<svg width="1310" height="902" viewBox="0 0 1310 902" fill="none" xmlns="http://www.w3.org/2000/svg">
<rect x="1056.53" y="342.728" width="34" height="34" rx="17" fill="#613DE4" fill-opacity="0.15"/>
<path fill-rule="evenodd" clip-rule="evenodd" d="M1073.53 372.728C1080.71 372.728 1086.53 366.908 1086.53 359.728C1086.53 352.549 1080.71 346.728 1073.53 346.728C1066.35 346.728 1060.53 352.549 1060.53 359.728C1060.53 366.908 1066.35 372.728 1073.53 372.728Z" fill="#1D2939"/>
<g clip-path="url(#clip0_2187_27241)">
<path d="M1062.53 362.365L1063.34 363.728H1068.88L1066.68 360.046L1062.53 362.365ZM1076.19 363.728L1071.53 355.956L1067.38 358.246L1070.65 363.728H1076.19ZM1077.97 363.728H1083.53L1076.33 351.728L1072.18 354.046L1077.97 363.728Z" fill="white"/>
</g>
<rect x="1153.53" y="64.7283" width="33.9409" height="33.9409" rx="16.9705" fill="#613DE4" fill-opacity="0.15"/>
<path fill-rule="evenodd" clip-rule="evenodd" d="M1170.5 94.6692C1177.66 94.6692 1183.47 88.8621 1183.47 81.6987C1183.47 74.5353 1177.66 68.7283 1170.5 68.7283C1163.33 68.7283 1157.53 74.5353 1157.53 81.6987C1157.53 88.8621 1163.33 94.6692 1170.5 94.6692Z" fill="#1D2939"/>
<path fill-rule="evenodd" clip-rule="evenodd" d="M1179.53 79.5464L1167.82 84.7143C1166.85 85.1478 1166.03 85.3646 1165.37 85.3646C1164.63 85.3646 1164.09 85.0908 1163.75 84.5432C1163.32 83.8359 1163.51 82.7065 1164.24 81.5086C1164.68 80.8127 1165.24 80.1738 1165.79 79.5578C1165.66 79.7746 1164.53 81.7368 1165.77 82.6608C1166.01 82.8434 1166.36 82.9346 1166.78 82.9346C1167.12 82.9346 1167.52 82.8776 1167.96 82.7635L1179.53 79.5464Z" fill="white"/>
<rect x="23.5259" y="292.728" width="34" height="34" rx="17" fill="#613DE4" fill-opacity="0.15"/>
<path d="M53.4551 309.729C53.4551 316.87 47.6656 322.66 40.5238 322.66C33.3819 322.66 27.5923 316.87 27.5923 309.729C27.5923 302.587 33.3819 296.797 40.5238 296.797C47.6655 296.797 53.4551 302.587 53.4551 309.729Z" fill="#1D2939"/>
<g clip-path="url(#clip1_2187_27241)">
<path d="M32.6392 311.346C32.6595 311.288 32.6798 311.232 32.7089 311.177C33.3943 309.792 36.3248 309.22 40.5244 309.728L41.3696 306.621C37.0479 306.072 33.8938 306.691 33.3681 308.657L32.6392 311.346Z" fill="#0095FF"/>
<path d="M48.4096 308.111C48.3922 308.157 48.3748 308.204 48.3545 308.25C47.6981 309.656 44.756 310.236 40.5244 309.725L39.6792 312.832C44.0009 313.381 47.155 312.763 47.6807 310.797L48.4096 308.111Z" fill="#0000C9"/>
<path d="M35.4043 304.835C41.7822 305.294 48.2967 308.448 47.6809 310.803L48.2531 308.7C48.4361 308.038 48.5261 307.696 48.5261 307.42C48.5261 305.021 42.2382 302.094 36.2495 301.728L35.4043 304.835Z" fill="#0095FF"/>
<path d="M45.6448 314.618C39.2668 314.162 32.7524 311.009 33.371 308.654L32.7989 310.756C32.6159 311.418 32.5259 311.761 32.5259 312.037C32.5259 314.435 38.8138 317.362 44.8025 317.728L45.6448 314.618Z" fill="#0000C9"/>
</g>
<rect x="200.526" y="51.7283" width="34" height="34" rx="17" fill="#613DE4" fill-opacity="0.15"/>
<path d="M230.136 71.8733C228.399 78.8376 221.345 83.0756 214.38 81.3393C207.418 79.603 203.18 72.5489 204.917 65.585C206.652 58.6198 213.706 54.381 220.669 56.1173C227.634 57.8536 231.872 64.9085 230.135 71.8733H230.136Z" fill="#1D2939"/>
<g clip-path="url(#clip2_2187_27241)">
<path d="M220.735 62.577C221.956 62.577 222.958 67.4998 222.958 73.5585H224.728C224.728 67.0297 222.944 61.7283 220.735 61.7283C219.486 61.7283 218.361 63.3213 217.634 65.8023C216.893 63.3213 215.781 61.7283 214.519 61.7283C212.31 61.7283 210.526 67.0297 210.526 73.5585H212.296C212.296 67.4867 213.284 62.577 214.519 62.577C215.74 62.577 216.742 67.1211 216.742 72.7098H218.512C218.512 67.108 219.514 62.577 220.735 62.577Z" fill="#FDBB20"/>
<path d="M225.785 73.0885H225.909C226.005 73.0885 226.101 73.0885 226.101 72.9709C226.101 72.8795 226.018 72.8665 225.936 72.8665H225.785V73.0885ZM225.675 72.7881H225.95C226.114 72.7881 226.197 72.8534 226.197 72.984C226.197 73.1146 226.114 73.1668 226.005 73.1668L226.21 73.4671H226.087L225.895 73.1668H225.771V73.4802H225.662V72.7881H225.675ZM225.909 73.6369C226.197 73.6369 226.416 73.4149 226.416 73.1276C226.416 72.8404 226.197 72.6314 225.909 72.6314C225.62 72.6314 225.401 72.8534 225.401 73.1276C225.401 73.4149 225.62 73.6369 225.909 73.6369ZM225.909 72.54C226.252 72.54 226.526 72.7881 226.526 73.1276C226.526 73.4671 226.238 73.7152 225.909 73.7152C225.565 73.7152 225.291 73.4671 225.291 73.1276C225.291 72.8012 225.565 72.54 225.909 72.54Z" fill="#FDBB20"/>
</g>
<rect x="180.526" y="441.728" width="33.8629" height="33.863" rx="16.9314" fill="#613DE4" fill-opacity="0.15"/>
<path d="M210.389 458.66C210.389 465.802 204.599 471.591 197.457 471.591C190.315 471.591 184.526 465.802 184.526 458.66C184.526 451.518 190.315 445.728 197.457 445.728C204.599 445.728 210.389 451.518 210.389 458.66Z" fill="#1D2939"/>
<path d="M197.005 460.835L197.586 458.651L198.959 458.149L199.301 456.865L199.289 456.833L197.937 457.327L198.911 453.659H196.148L194.875 458.446L193.811 458.835L193.459 460.158L194.522 459.77L193.771 462.591H201.124L201.595 460.835H197.005Z" fill="#613DE4"/>
<rect x="43.5259" y="722.728" width="34" height="34" rx="17" fill="#613DE4" fill-opacity="0.15"/>
<path d="M60.5259 752.728C67.7056 752.728 73.5259 746.908 73.5259 739.728C73.5259 732.549 67.7056 726.728 60.5259 726.728C53.3462 726.728 47.5259 732.549 47.5259 739.728C47.5259 746.908 53.3462 752.728 60.5259 752.728Z" fill="#1D2939"/>
<g clip-path="url(#clip3_2187_27241)">
<path d="M66.3521 738.61C63.1773 736.725 57.9405 736.552 54.9097 737.472C54.423 737.619 53.9083 737.344 53.7609 736.858C53.6133 736.371 53.8878 735.856 54.3749 735.709C57.854 734.652 63.6375 734.856 67.2925 737.026C67.7302 737.286 67.8738 737.851 67.6144 738.288C67.3547 738.726 66.7888 738.87 66.3521 738.61ZM66.2482 741.403C66.0254 741.765 65.5528 741.878 65.1919 741.656C62.545 740.029 58.509 739.558 55.3775 740.508C54.9715 740.631 54.5425 740.402 54.4192 739.997C54.2968 739.591 54.5259 739.162 54.9313 739.039C58.5085 737.953 62.9555 738.479 65.9955 740.347C66.3565 740.57 66.4701 741.042 66.2482 741.403ZM65.043 744.085C64.866 744.375 64.4881 744.466 64.1989 744.289C61.886 742.876 58.9749 742.557 55.5465 743.34C55.2161 743.415 54.8868 743.208 54.8115 742.878C54.7358 742.548 54.9421 742.218 55.2732 742.143C59.0249 741.285 62.2433 741.654 64.8393 743.241C65.1287 743.418 65.2199 743.796 65.043 744.085ZM60.526 729.879C55.0865 729.879 50.6768 734.289 50.6768 739.728C50.6768 745.168 55.0865 749.577 60.526 749.577C65.9657 749.577 70.3752 745.168 70.3752 739.728C70.3752 734.289 65.9657 729.879 60.526 729.879Z" fill="#1ED760"/>
</g>
<rect x="1074.53" y="650.728" width="34" height="34" rx="17" fill="#613DE4" fill-opacity="0.15"/>
<path d="M1091.53 680.728C1098.71 680.728 1104.53 674.908 1104.53 667.728C1104.53 660.549 1098.71 654.728 1091.53 654.728C1084.35 654.728 1078.53 660.549 1078.53 667.728C1078.53 674.908 1084.35 680.728 1091.53 680.728Z" fill="#1D2939"/>
<g clip-path="url(#clip4_2187_27241)">
<path fill-rule="evenodd" clip-rule="evenodd" d="M1100.29 662.028C1099.96 662.168 1099.7 662.028 1099.28 662.788C1098.01 665.188 1097.02 667.128 1095.83 669.908C1095.87 667.608 1096.31 665.788 1096.58 663.548C1096.62 663.128 1096.69 662.568 1096.69 662.148C1096.69 661.828 1096.31 661.768 1095.59 662.108C1095.19 662.288 1094.71 662.268 1094.51 662.708C1093.72 664.568 1091.89 669.728 1091.05 672.648C1090.85 673.348 1091.6 673.468 1091.85 672.748C1092.4 671.008 1093.67 667.148 1094.44 665.168C1094.38 666.988 1093.83 669.848 1094.07 671.368C1094.16 671.848 1094.64 672.048 1094.88 672.448C1095.06 672.728 1095.34 672.768 1095.5 672.368C1096.25 670.528 1097.68 667.288 1099.06 664.708C1098.8 665.848 1097.74 670.688 1097.46 672.628C1097.39 673.008 1097.92 673.028 1098.38 673.608C1098.49 673.748 1098.89 673.888 1098.95 673.548C1099.19 672.388 1100.82 664.868 1101.44 662.488C1101.64 661.808 1101.59 661.488 1100.29 662.028ZM1089.71 667.488C1090.26 666.728 1090.44 666.888 1090.57 666.648C1090.74 666.368 1090.63 666.088 1090.02 666.148C1090.02 666.148 1089.8 666.168 1089.38 666.208C1090.04 664.668 1090.61 663.348 1091.03 662.368C1091.19 662.028 1091.21 661.788 1090.96 661.728C1090.72 661.668 1090.02 662.028 1089.58 662.088C1089.45 662.128 1089.29 662.248 1089.25 662.348C1088.59 663.708 1087.97 665.088 1087.38 666.488C1086.67 666.588 1085.86 666.728 1084.96 666.928C1085.62 665.408 1086.28 663.908 1086.92 662.468C1087.22 661.768 1086.41 661.688 1086.08 662.408C1085.38 663.968 1084.67 665.548 1084.01 667.128C1083.37 667.268 1082.69 667.428 1081.99 667.628C1081.48 667.768 1081.46 667.888 1081.68 668.168C1081.81 668.328 1082.05 668.308 1082.16 668.428C1082.47 668.708 1082.65 669.068 1083.18 669.108C1082.69 670.268 1082.23 671.448 1081.79 672.628C1081.53 673.348 1082.3 673.508 1082.6 672.728C1083.09 671.488 1083.59 670.228 1084.12 668.988C1084.56 668.888 1085.6 668.688 1086.59 668.508C1085.82 670.428 1085.31 671.888 1085.11 672.588C1085.07 672.728 1085.13 672.808 1085.18 672.848C1085.44 673.188 1085.68 673.208 1086.01 673.628C1086.1 673.748 1086.28 673.768 1086.41 673.668C1086.45 673.628 1086.5 673.568 1086.52 673.528C1087.18 671.708 1087.91 669.888 1088.65 668.088C1088.9 668.028 1089.4 667.908 1089.71 667.488Z" fill="#CD2026"/>
<path fill-rule="evenodd" clip-rule="evenodd" d="M1090.24 670.468C1090.2 670.508 1090.13 670.548 1090.09 670.608C1090.02 670.448 1089.98 670.268 1089.91 670.108C1090.09 669.928 1090.24 669.728 1090.37 669.548C1090.94 668.728 1089.82 668.268 1089.31 668.788C1089.05 669.068 1089.12 669.348 1089.18 669.588L1089.27 669.888C1089.14 670.008 1088.96 670.188 1088.74 670.408C1088.19 670.988 1088.35 671.748 1088.94 671.928C1089.29 672.028 1089.64 671.888 1089.93 671.648C1089.95 671.688 1089.95 671.728 1089.98 671.748C1090.13 672.108 1090.61 671.988 1090.42 671.568C1090.39 671.488 1090.35 671.388 1090.31 671.268C1090.39 671.168 1090.48 671.068 1090.57 670.948C1090.94 670.468 1090.61 670.188 1090.24 670.468ZM1089.87 669.348C1089.82 669.408 1089.76 669.448 1089.71 669.508C1089.69 669.468 1089.69 669.428 1089.67 669.388C1089.51 668.828 1090.24 668.988 1089.87 669.348ZM1089.49 671.088C1089.27 671.208 1089.09 671.088 1089.4 670.708C1089.45 670.648 1089.51 670.588 1089.56 670.528C1089.6 670.668 1089.64 670.808 1089.71 670.948C1089.62 670.988 1089.56 671.048 1089.49 671.088Z" fill="#CD2026"/>
</g>
<rect x="1222.53" y="459.728" width="34" height="34" rx="17" fill="#613DE4" fill-opacity="0.15"/>
<path d="M1239.53 489.728C1246.71 489.728 1252.53 483.908 1252.53 476.728C1252.53 469.549 1246.71 463.728 1239.53 463.728C1232.35 463.728 1226.53 469.549 1226.53 476.728C1226.53 483.908 1232.35 489.728 1239.53 489.728Z" fill="#1D2939"/>
<g clip-path="url(#clip5_2187_27241)">
<path d="M1244.68 481.046C1244.59 481.774 1244.14 482.403 1243.51 482.683C1243.2 482.823 1242.86 482.865 1242.52 482.823C1242.2 482.781 1241.88 482.669 1241.54 482.459C1241.08 482.179 1240.61 481.746 1240.07 481.102C1240.92 479.969 1241.44 478.934 1241.63 478.011C1241.72 477.577 1241.74 477.185 1241.7 476.821C1241.65 476.472 1241.53 476.15 1241.35 475.87C1240.95 475.24 1240.28 474.877 1239.53 474.877C1238.78 474.877 1238.1 475.254 1237.7 475.87C1237.52 476.15 1237.41 476.472 1237.35 476.821C1237.3 477.185 1237.31 477.591 1237.42 478.011C1237.61 478.934 1238.14 479.983 1238.98 481.116C1238.45 481.76 1237.97 482.193 1237.51 482.473C1237.17 482.683 1236.85 482.795 1236.53 482.837C1236.18 482.879 1235.84 482.823 1235.54 482.697C1234.91 482.417 1234.46 481.788 1234.37 481.06C1234.33 480.71 1234.35 480.361 1234.48 479.969C1234.52 479.829 1234.59 479.689 1234.65 479.521C1234.74 479.298 1234.85 479.06 1234.95 478.822L1234.96 478.794C1235.85 476.709 1236.81 474.583 1237.81 472.512L1237.85 472.428C1237.95 472.219 1238.05 471.995 1238.16 471.785C1238.26 471.561 1238.38 471.351 1238.52 471.169C1238.79 470.833 1239.15 470.652 1239.55 470.652C1239.95 470.652 1240.31 470.833 1240.59 471.169C1240.73 471.351 1240.84 471.561 1240.95 471.785C1241.05 471.995 1241.15 472.219 1241.26 472.428L1241.3 472.512C1242.28 474.597 1243.24 476.723 1244.13 478.808V478.822C1244.23 479.046 1244.32 479.298 1244.43 479.521C1244.49 479.689 1244.55 479.829 1244.59 479.969C1244.7 480.333 1244.74 480.683 1244.68 481.046ZM1239.53 480.389C1238.83 479.437 1238.38 478.542 1238.22 477.787C1238.16 477.465 1238.14 477.185 1238.18 476.933C1238.21 476.709 1238.28 476.513 1238.39 476.345C1238.63 475.968 1239.05 475.73 1239.53 475.73C1240 475.73 1240.43 475.954 1240.66 476.345C1240.77 476.513 1240.84 476.709 1240.87 476.933C1240.91 477.185 1240.9 477.479 1240.83 477.787C1240.68 478.528 1240.22 479.423 1239.53 480.389ZM1245.36 479.661C1245.29 479.493 1245.23 479.311 1245.16 479.158C1245.06 478.906 1244.96 478.668 1244.86 478.444L1244.85 478.43C1243.96 476.331 1243 474.205 1241.99 472.107L1241.96 472.023C1241.85 471.813 1241.75 471.589 1241.65 471.365C1241.52 471.113 1241.39 470.848 1241.18 470.596C1240.77 470.036 1240.17 469.728 1239.54 469.728C1238.89 469.728 1238.31 470.036 1237.88 470.568C1237.69 470.82 1237.55 471.085 1237.42 471.337C1237.31 471.561 1237.21 471.785 1237.11 471.995L1237.07 472.079C1236.07 474.177 1235.1 476.304 1234.21 478.402L1234.2 478.43C1234.11 478.654 1234.01 478.892 1233.9 479.144C1233.84 479.298 1233.77 479.465 1233.71 479.647C1233.54 480.165 1233.49 480.654 1233.55 481.158C1233.7 482.207 1234.34 483.089 1235.23 483.48C1235.57 483.634 1235.92 483.704 1236.28 483.704C1236.38 483.704 1236.51 483.69 1236.62 483.676C1237.04 483.62 1237.48 483.467 1237.91 483.201C1238.44 482.879 1238.94 482.417 1239.51 481.746C1240.08 482.417 1240.6 482.879 1241.12 483.201C1241.54 483.467 1241.98 483.62 1242.41 483.676C1242.51 483.69 1242.64 483.704 1242.74 483.704C1243.11 483.704 1243.47 483.634 1243.79 483.48C1244.7 483.089 1245.33 482.193 1245.47 481.158C1245.58 480.668 1245.52 480.179 1245.36 479.661Z" fill="#FF385C"/>
</g>
<path d="M359.809 755.385L298.807 555.043L6.74263 740.913L359.809 755.385Z" stroke="#613DE4" stroke-opacity="0.15" stroke-width="0.5"/>
<circle cx="359.809" cy="755.385" r="3" transform="rotate(120 359.809 755.385)" fill="#613DE4"/>
<circle cx="298.807" cy="555.043" r="3" transform="rotate(120 298.807 555.043)" fill="#613DE4"/>
<circle cx="6.74274" cy="740.913" r="3" transform="rotate(120 6.74274 740.913)" fill="#613DE4"/>
<path d="M1275.57 225.848L1153.48 177.302L1273.66 153.154L1275.57 225.848Z" stroke="#613DE4" stroke-opacity="0.15" stroke-width="0.5"/>
<circle cx="1153.48" cy="177.302" r="2" transform="rotate(-60 1153.48 177.302)" fill="#613DE4"/>
<circle cx="1272.79" cy="152.654" r="2" transform="rotate(-60 1272.79 152.654)" fill="#613DE4"/>
<circle cx="1276.07" cy="224.982" r="2" transform="rotate(-60 1276.07 224.982)" fill="#613DE4"/>
<path d="M1052.78 771.107L1085.34 534.716L1268.08 722.203L1052.78 771.107Z" stroke="#613DE4" stroke-opacity="0.15" stroke-width="0.5"/>
<circle cx="1084.97" cy="533.35" r="3" transform="rotate(30 1084.97 533.35)" fill="#613DE4"/>
<circle cx="1268.08" cy="722.203" r="3" transform="rotate(30 1268.08 722.203)" fill="#613DE4"/>
<circle cx="1053.65" cy="771.607" r="3" transform="rotate(30 1053.65 771.607)" fill="#613DE4"/>
<path d="M135.979 77.8374L94.5272 105.036L249.426 284.232L135.979 77.8374Z" stroke="#613DE4" stroke-opacity="0.15" stroke-width="0.5"/>
<circle cx="249.597" cy="283.538" r="2" transform="rotate(45 249.597 283.538)" fill="#613DE4"/>
<circle cx="136.459" cy="77.0626" r="2" transform="rotate(45 136.459 77.0626)" fill="#613DE4"/>
<circle cx="94.7402" cy="104.64" r="2" transform="rotate(45 94.7402 104.64)" fill="#613DE4"/>
<defs>
<clipPath id="clip0_2187_27241">
<rect width="21" height="12" fill="white" transform="translate(1062.53 351.728)"/>
</clipPath>
<clipPath id="clip1_2187_27241">
<rect width="16" height="16" fill="white" transform="translate(32.5259 301.728)"/>
</clipPath>
<clipPath id="clip2_2187_27241">
<rect width="16" height="12" fill="white" transform="translate(210.526 61.7283)"/>
</clipPath>
<clipPath id="clip3_2187_27241">
<rect width="20" height="20" fill="white" transform="translate(50.5259 729.728)"/>
</clipPath>
<clipPath id="clip4_2187_27241">
<rect width="20" height="12" fill="white" transform="translate(1081.53 661.728)"/>
</clipPath>
<clipPath id="clip5_2187_27241">
<rect width="12" height="14" fill="white" transform="translate(1233.53 469.728)"/>
</clipPath>
</defs>
</svg>
