<svg width="98" height="32" viewBox="0 0 98 32" fill="none" xmlns="http://www.w3.org/2000/svg">
<path d="M92.4863 8.12178L91.9405 11.1918C92.418 10.1003 93.1685 9.25884 94.1918 8.66757C95.2152 8.0763 96.375 7.78066 97.6712 7.78066L96.682 13.5796C95.8633 13.4659 95.1015 13.4887 94.3965 13.6479C93.5778 13.8071 92.8274 14.2278 92.1451 14.91C91.4629 15.5922 91.0308 16.445 90.8489 17.4684L90.883 17.2637L89.4844 25.1776H84.3677L87.3695 8.12178H92.4863Z" fill="white"/>
<path d="M68.876 10.1343C70.809 8.47424 73.049 7.64419 75.596 7.64419C78.143 7.64419 80.1442 8.50835 81.5996 10.2367C83.1006 11.965 83.6122 14.1027 83.1347 16.6497C83.0437 17.2637 82.8618 17.9459 82.5889 18.6964H70.3769C70.6043 20.2882 71.7755 21.0842 73.8904 21.0842C75.3231 21.0842 76.517 20.6407 77.4721 19.7538L81.0539 22.6874C79.1209 24.6659 76.6193 25.6552 73.5493 25.6552C70.6612 25.6552 68.4667 24.7569 66.9657 22.9603C65.4876 21.1183 64.9645 18.901 65.3966 16.3086C65.7605 13.8298 66.9203 11.7717 68.876 10.1343ZM71.0933 14.8076H78.3249C78.143 13.0566 77.1196 12.181 75.2549 12.181C73.3674 12.181 71.9802 13.0566 71.0933 14.8076Z" fill="white"/>
<path d="M56.3897 7.64419C58.8003 7.64419 60.6423 8.58794 61.9158 10.4755C63.1666 12.3175 63.5987 14.4893 63.2121 16.9908C62.871 19.2876 61.859 21.3116 60.1761 23.0627C58.516 24.791 56.4239 25.6552 53.8996 25.6552C51.6255 25.6552 49.954 24.8478 48.8852 23.2332L47.3502 31.9999H42.2334L46.4291 8.12175H51.5459L51.3071 9.55444C52.7171 8.28094 54.4113 7.64419 56.3897 7.64419ZM54.8547 12.488C53.6949 12.488 52.6716 12.8519 51.7847 13.5796C50.8978 14.3073 50.3292 15.2738 50.0791 16.4791L50.0109 16.7861C49.8517 18.0141 50.0791 18.992 50.6931 19.7197C51.3071 20.4474 52.2054 20.8113 53.3879 20.8113C54.5932 20.8113 55.6165 20.4361 56.458 19.6856C57.2994 18.9352 57.8452 17.9232 58.0953 16.6497C58.3227 15.3762 58.1294 14.3642 57.5154 13.6137C56.9242 12.8633 56.0373 12.488 54.8547 12.488Z" fill="white"/>
<path d="M35.1368 7.64419C37.5474 7.64419 39.3894 8.58794 40.6629 10.4755C41.9137 12.3175 42.3457 14.4893 41.9591 16.9908C41.618 19.2876 40.6061 21.3116 38.9232 23.0627C37.2631 24.791 35.1709 25.6552 32.6467 25.6552C30.3726 25.6552 28.7011 24.8478 27.6322 23.2332L26.0972 31.9999H20.9805L25.1762 8.12175H30.293L30.0542 9.55444C31.4641 8.28094 33.1583 7.64419 35.1368 7.64419ZM33.6018 12.488C32.442 12.488 31.4186 12.8519 30.5317 13.5796C29.6448 14.3073 29.0763 15.2738 28.8262 16.4791L28.7579 16.7861C28.5987 18.0141 28.8262 18.992 29.4402 19.7197C30.0542 20.4474 30.9524 20.8113 32.135 20.8113C33.3403 20.8113 34.3636 20.4361 35.205 19.6856C36.0465 18.9352 36.5922 17.9232 36.8424 16.6497C37.0698 15.3762 36.8765 14.3642 36.2625 13.6137C35.6712 12.8633 34.7843 12.488 33.6018 12.488Z" fill="white"/>
<path d="M9.83833 25.6552C6.95021 25.6552 4.73295 24.8934 3.18655 23.3697C1.64016 21.8233 1.083 19.8562 1.51508 17.4684L4.38046 1.29948H9.83833L7.07528 16.9909C6.68868 19.2195 7.74615 20.3338 10.2477 20.3338C12.7492 20.3338 14.1933 19.2195 14.5799 16.9909L17.3429 1.29948H22.8008L19.9354 17.4684C19.4578 20.1291 18.3208 22.1645 16.5242 23.5744C14.7504 24.9616 12.5218 25.6552 9.83833 25.6552Z" fill="white"/>
<path d="M91.1132 6.8224L90.5674 9.89245C91.045 8.80088 91.7954 7.95945 92.8188 7.36819C93.8421 6.77692 95.0019 6.48128 96.2982 6.48128L95.3089 12.2803C94.4903 12.1666 93.7284 12.1893 93.0235 12.3485C92.2048 12.5077 91.4543 12.9284 90.7721 13.6106C90.0899 14.2929 89.6578 15.1456 89.4758 16.169L89.51 15.9643L88.1114 23.8782H82.9946L85.9965 6.8224H91.1132Z" fill="#613DE4"/>
<path d="M67.5025 8.83496C69.4355 7.17486 71.6755 6.34481 74.2225 6.34481C76.7695 6.34481 78.7707 7.20897 80.2261 8.93729C81.727 10.6656 82.2387 12.8033 81.7611 15.3503C81.6702 15.9643 81.4882 16.6465 81.2154 17.397H69.0034C69.2308 18.9889 70.4019 19.7848 72.5169 19.7848C73.9496 19.7848 75.1435 19.3414 76.0986 18.4545L79.6803 21.3881C77.7473 23.3665 75.2458 24.3558 72.1758 24.3558C69.2876 24.3558 67.0931 23.4575 65.5922 21.6609C64.114 19.8189 63.591 17.6017 64.0231 15.0092C64.3869 12.5304 65.5467 10.4723 67.5025 8.83496ZM69.7197 13.5083H76.9514C76.7695 11.7572 75.7461 10.8817 73.8813 10.8817C71.9938 10.8817 70.6066 11.7572 69.7197 13.5083Z" fill="#613DE4"/>
<path d="M55.0162 6.34481C57.4268 6.34481 59.2688 7.28856 60.5423 9.17608C61.7931 11.0181 62.2251 13.1899 61.8385 15.6914C61.4974 17.9883 60.4855 20.0122 58.8026 21.7633C57.1425 23.4916 55.0503 24.3558 52.5261 24.3558C50.2519 24.3558 48.5805 23.5485 47.5116 21.9338L45.9766 30.7005H40.8599L45.0556 6.82237H50.1724L49.9336 8.25506C51.3435 6.98156 53.0377 6.34481 55.0162 6.34481ZM53.4812 11.1887C52.3214 11.1887 51.298 11.5525 50.4111 12.2802C49.5242 13.008 48.9557 13.9745 48.7056 15.1797L48.6373 15.4867C48.4781 16.7148 48.7056 17.6926 49.3196 18.4203C49.9336 19.1481 50.8318 19.5119 52.0144 19.5119C53.2197 19.5119 54.243 19.1367 55.0844 18.3862C55.9259 17.6358 56.4716 16.6238 56.7218 15.3503C56.9492 14.0768 56.7559 13.0648 56.1419 12.3144C55.5506 11.5639 54.6637 11.1887 53.4812 11.1887Z" fill="#613DE4"/>
<path d="M33.7623 6.34481C36.1729 6.34481 38.0149 7.28856 39.2884 9.17608C40.5392 11.0181 40.9712 13.1899 40.5846 15.6914C40.2435 17.9883 39.2315 20.0122 37.5487 21.7633C35.8886 23.4916 33.7964 24.3558 31.2722 24.3558C28.998 24.3558 27.3266 23.5485 26.2577 21.9338L24.7227 30.7005H19.606L23.8017 6.82237H28.9184L28.6797 8.25506C30.0896 6.98156 31.7838 6.34481 33.7623 6.34481ZM32.2273 11.1887C31.0675 11.1887 30.0441 11.5525 29.1572 12.2802C28.2703 13.008 27.7018 13.9745 27.4516 15.1797L27.3834 15.4867C27.2242 16.7148 27.4516 17.6926 28.0657 18.4203C28.6797 19.1481 29.5779 19.5119 30.7605 19.5119C31.9658 19.5119 32.9891 19.1367 33.8305 18.3862C34.6719 17.6358 35.2177 16.6238 35.4679 15.3503C35.6953 14.0768 35.502 13.0648 34.888 12.3144C34.2967 11.5639 33.4098 11.1887 32.2273 11.1887Z" fill="#613DE4"/>
<path d="M8.46479 24.3557C5.57667 24.3557 3.35941 23.5939 1.81302 22.0703C0.26662 20.5239 -0.290537 18.5568 0.141544 16.1689L3.00693 0H8.46479L5.70175 15.6914C5.31515 17.92 6.37261 19.0343 8.87413 19.0343C11.3757 19.0343 12.8197 17.92 13.2063 15.6914L15.9694 0H21.4272L18.5618 16.1689C18.0843 18.8296 16.9472 20.865 15.1507 22.2749C13.3769 23.6621 11.1482 24.3557 8.46479 24.3557Z" fill="#613DE4"/>
</svg>
