<svg width="756" height="982" viewBox="0 0 756 982" fill="none" xmlns="http://www.w3.org/2000/svg">
<g clip-path="url(#clip0_2187_29073)">
<rect width="756" height="982" fill="#101828"/>
<path d="M36.0514 913.792L88.3461 941.674L109.596 846.04L36.0514 913.792Z" stroke="#613DE4" stroke-opacity="0.15" stroke-width="0.5"/>
<circle cx="36.0515" cy="913.792" r="0.848951" transform="rotate(-105 36.0515 913.792)" fill="#613DE4"/>
<circle cx="88.3464" cy="941.674" r="0.848951" transform="rotate(-105 88.3464 941.674)" fill="#613DE4"/>
<circle cx="109.596" cy="846.04" r="0.848951" transform="rotate(-105 109.596 846.04)" fill="#613DE4"/>
<path d="M680.259 436.058L567.196 292.972L728.416 347.349L680.259 436.058Z" stroke="#613DE4" stroke-opacity="0.15" stroke-width="0.5"/>
<circle cx="567.196" cy="292.972" r="2.77612" transform="rotate(-30 567.196 292.972)" fill="#613DE4"/>
<circle cx="727.722" cy="346.146" r="2.77612" transform="rotate(-30 727.722 346.146)" fill="#613DE4"/>
<circle cx="681.461" cy="435.364" r="2.77612" transform="rotate(-30 681.461 435.364)" fill="#613DE4"/>
<path d="M789.204 125.057L663.99 179.021L734.458 73.1127L789.204 125.057Z" stroke="#613DE4" stroke-opacity="0.15" stroke-width="0.5"/>
<circle cx="663.99" cy="179.021" r="2.0756" transform="rotate(-105 663.99 179.021)" fill="#613DE4"/>
<circle cx="733.455" cy="73.3813" r="2.0756" transform="rotate(-105 733.455 73.3813)" fill="#613DE4"/>
<path d="M544 951L454 730L706 801L544 951Z" stroke="#613DE4" stroke-opacity="0.15" stroke-width="0.5"/>
<circle cx="453" cy="729" r="3" fill="#613DE4"/>
<circle cx="706" cy="801" r="3" fill="#613DE4"/>
<circle cx="545" cy="951" r="3" fill="#613DE4"/>
<path d="M127.612 218.87L94.6123 255.87L290.612 388.87L127.612 218.87Z" stroke="#613DE4" stroke-opacity="0.15" stroke-width="0.5"/>
<circle cx="290.598" cy="388.155" r="2" transform="rotate(30 290.598 388.155)" fill="#613DE4"/>
<circle cx="127.876" cy="217.997" r="2" transform="rotate(30 127.876 217.997)" fill="#613DE4"/>
<circle cx="94.7154" cy="255.433" r="2" transform="rotate(30 94.7154 255.433)" fill="#613DE4"/>
<path d="M335.188 187.587L357.118 93.0863L196.899 100.005L335.188 187.587Z" stroke="#613DE4" stroke-opacity="0.15" stroke-width="0.5"/>
<circle cx="335.188" cy="187.587" r="1.38971" transform="rotate(150 335.188 187.587)" fill="#613DE4"/>
<circle cx="357.118" cy="93.0864" r="1.38971" transform="rotate(150 357.118 93.0864)" fill="#613DE4"/>
<circle cx="196.898" cy="100.005" r="1.38971" transform="rotate(150 196.898 100.005)" fill="#613DE4"/>
<path d="M61.1404 600.18L110.476 762.207L346.684 611.884L61.1404 600.18Z" stroke="#613DE4" stroke-opacity="0.15" stroke-width="0.5"/>
<circle cx="61.14" cy="600.18" r="2.42626" transform="rotate(-60 61.14 600.18)" fill="#613DE4"/>
<circle cx="110.476" cy="762.207" r="2.42626" transform="rotate(-60 110.476 762.207)" fill="#613DE4"/>
<circle cx="346.684" cy="611.884" r="2.42626" transform="rotate(-60 346.684 611.884)" fill="#613DE4"/>
<path d="M518.52 656.6C520.16 656.63 521.8 656.66 523.43 656.67C526.67 656.69 530.19 655.9 532.21 653.37C534.94 649.95 534.36 644.2 534.32 640.08C534.17 622.17 533.82 604.27 533.82 586.36C533.84 567.89 533.77 549.42 533.6 530.94C533.52 521.97 533.25 512.99 533.19 504.03C533.08 485.97 533.11 467.69 532.66 449.77C532.6 447.3 532.36 444.49 530.41 442.97C529.05 441.92 527.21 441.79 525.49 441.73C518.16 441.46 510.82 441.51 503.48 441.68C467.16 442.52 430.83 443.02 394.49 443.07C376.72 443.09 359 443.57 341.25 443.13C304.75 442.22 268.26 441.8 231.74 441.43C227.56 441.39 223.38 441.42 219.19 441.4C213.96 441.37 208.62 441.35 203.51 442.62C198.36 443.9 195.81 446.77 195.1 452.16C193.87 461.52 195.45 470.84 195.75 480.2C196.94 516.12 194.64 552.03 195.52 587.95C195.73 597.65 195.61 607.34 195.31 617.03C195.02 626.24 193.64 635.67 195.09 644.84C195.51 647.47 196.22 650.16 197.89 652.23C199.76 654.55 202.65 655.87 205.59 656.39C213.53 657.82 222.85 656.04 230.92 655.77C240.12 655.47 249.33 655.23 258.53 655.07C276.94 654.74 295.36 654.7 313.77 654.93C350.22 655.4 386.66 655.64 423.14 655.47C425.72 655.46 428.29 655.43 430.87 655.43C448.58 655.43 466.29 655.36 483.99 655.54C495.52 655.67 507.03 656.36 518.52 656.6Z" fill="white"/>
<path d="M523 652.2C526.15 652.4 530.62 651.45 533.43 653.1C534.72 653.85 535.6 655.13 536.43 656.36C538.58 659.53 540.74 662.7 542.89 665.87C544.86 668.77 547.1 671.64 547.94 675.12C549.6 681.98 543.84 685.72 537.79 686.59C526.06 688.26 513.31 688.44 501.48 688.51C474.4 688.66 447.32 689.03 420.24 689.03C404.73 689.03 389.26 689.15 373.77 689.05C346.3 688.88 318.83 688.76 291.38 688.76C280.73 688.76 270.07 688.77 259.42 688.77C245.8 688.77 232.18 688.78 218.56 688.34C211.69 688.12 204.82 687.79 197.97 687.29C191.93 686.85 185.77 686.86 180.2 684.39C173.49 681.41 175.51 673.8 179.21 669.17C182.11 665.54 185.06 661.94 187.92 658.28C190.12 655.47 192.42 652.71 195.85 651.38C198.63 650.3 201.69 650.25 204.67 650.22C231.96 650.22 259.23 649.68 286.53 649.73C300.39 649.76 314.24 649.84 328.1 649.99C341.88 650.14 355.72 650.79 369.49 650.59C374.23 650.52 378.99 650.6 383.74 650.65C398.4 650.8 413.05 650.95 427.71 651.11C441.22 651.25 454.73 651.39 468.24 651.53C479 651.64 489.76 651.75 500.52 651.86C506.93 651.93 513.33 651.99 519.74 652.06C520.83 652.07 521.92 652.13 523 652.2Z" fill="white"/>
<path d="M532.52 647.6C534.16 647.63 535.8 647.66 537.43 647.67C540.67 647.69 544.19 646.9 546.21 644.37C548.94 640.95 548.36 635.2 548.32 631.08C548.17 613.17 547.82 595.27 547.82 577.36C547.84 558.89 547.77 540.42 547.6 521.94C547.52 512.97 547.25 503.99 547.19 495.03C547.08 476.97 547.11 458.69 546.66 440.77C546.6 438.3 546.36 435.49 544.41 433.97C543.05 432.92 541.21 432.79 539.49 432.73C532.16 432.46 524.82 432.51 517.48 432.68C481.16 433.52 444.83 434.02 408.49 434.07C390.72 434.09 373 434.57 355.25 434.13C318.75 433.22 282.26 432.8 245.74 432.43C241.56 432.39 237.38 432.42 233.19 432.4C227.96 432.37 222.62 432.35 217.51 433.62C212.36 434.9 209.81 437.77 209.1 443.16C207.87 452.52 209.45 461.84 209.75 471.2C210.94 507.12 208.64 543.03 209.52 578.95C209.73 588.65 209.61 598.34 209.31 608.03C209.02 617.24 207.64 626.67 209.09 635.84C209.51 638.47 210.22 641.16 211.89 643.23C213.76 645.55 216.65 646.87 219.59 647.39C227.53 648.82 236.85 647.04 244.92 646.77C254.12 646.47 263.33 646.23 272.53 646.07C290.94 645.74 309.36 645.7 327.77 645.93C364.22 646.4 400.66 646.64 437.14 646.47C439.72 646.46 442.29 646.43 444.87 646.43C462.58 646.43 480.29 646.36 497.99 646.54C509.52 646.67 521.03 647.36 532.52 647.6Z" fill="#FBFCFE"/>
<path d="M537 643.2C540.15 643.4 544.62 642.45 547.43 644.1C548.72 644.85 549.6 646.13 550.43 647.36C552.58 650.53 554.74 653.7 556.89 656.87C558.86 659.77 561.1 662.64 561.94 666.12C563.6 672.98 557.84 676.72 551.79 677.59C540.06 679.26 527.31 679.44 515.48 679.51C488.4 679.66 461.32 680.03 434.24 680.03C418.73 680.03 403.26 680.15 387.77 680.05C360.3 679.88 332.83 679.76 305.38 679.76C294.73 679.76 284.07 679.77 273.42 679.77C259.8 679.77 246.18 679.78 232.56 679.34C225.69 679.12 218.82 678.79 211.97 678.29C205.93 677.85 199.77 677.86 194.2 675.39C187.49 672.41 189.51 664.8 193.21 660.17C196.11 656.54 199.06 652.94 201.92 649.28C204.12 646.47 206.42 643.71 209.85 642.38C212.63 641.3 215.69 641.25 218.67 641.22C245.96 641.22 273.23 640.68 300.53 640.73C314.39 640.76 328.24 640.84 342.1 640.99C355.88 641.14 369.72 641.79 383.49 641.59C388.23 641.52 392.99 641.6 397.74 641.65C412.4 641.8 427.05 641.95 441.71 642.11C455.22 642.25 468.73 642.39 482.24 642.53C493 642.64 503.76 642.75 514.52 642.86C520.93 642.93 527.33 642.99 533.74 643.06C534.83 643.07 535.92 643.13 537 643.2Z" fill="#1D2939"/>
<path d="M537 644.7C539.44 644.81 541.9 644.4 544.33 644.7C547.45 645.09 548.73 647.5 550.35 649.9C552.16 652.56 553.96 655.23 555.78 657.88C557.39 660.23 559.21 662.58 560.15 665.31C561.8 670.1 559.24 673.81 554.67 675.36C552.14 676.22 549.41 676.42 546.77 676.7C543.69 677.03 540.6 677.27 537.5 677.45C524.94 678.18 512.34 678.01 499.76 678.11C486.59 678.21 473.41 678.34 460.24 678.43C434.01 678.6 407.77 678.66 381.53 678.51C355.18 678.35 328.83 678.25 302.48 678.26C276.35 678.27 250.16 678.73 224.04 677.51C217.86 677.22 211.66 676.87 205.49 676.36C202.63 676.12 199.77 675.74 197.03 674.86C194.87 674.17 192.53 673.21 191.66 670.93C190.16 666.99 193.03 662.78 195.37 659.87C197.34 657.42 199.31 654.99 201.27 652.53C202.95 650.42 204.53 648.19 206.5 646.34C211.11 642 217.57 642.73 223.43 642.72C230.01 642.71 236.58 642.66 243.16 642.61C256.31 642.5 269.47 642.35 282.62 642.27C308.74 642.12 334.87 642.26 360.98 642.88C373.97 643.19 386.95 643.04 399.94 643.18C413.13 643.32 426.32 643.45 439.51 643.59C465.82 643.86 492.13 644.14 518.44 644.41C524.62 644.46 530.84 644.32 537 644.7C538.93 644.82 538.92 641.82 537 641.7C530.48 641.3 523.91 641.45 517.38 641.39C510.44 641.32 503.5 641.25 496.56 641.17C482.82 641.03 469.09 640.89 455.35 640.74C441.52 640.6 427.7 640.45 413.87 640.31C400.36 640.17 386.85 640.23 373.34 640.1C359.77 639.96 346.2 639.51 332.63 639.39C318.89 639.27 305.15 639.19 291.41 639.23C277.77 639.26 264.12 639.41 250.48 639.54C243.54 639.6 236.59 639.66 229.65 639.69C226.24 639.71 222.83 639.71 219.42 639.72C216.51 639.73 213.5 639.73 210.68 640.53C205.23 642.08 202.07 646.75 198.72 650.95C195.48 655.01 191.31 658.99 189.35 663.88C187.93 667.41 187.77 671.65 190.5 674.6C194.09 678.48 200.9 678.99 205.82 679.38C232.67 681.49 259.6 681.27 286.5 681.26C313.88 681.25 341.27 681.28 368.65 681.43C396.01 681.57 423.36 681.6 450.72 681.48C464.5 681.42 478.29 681.29 492.07 681.17C505.35 681.06 518.66 681.2 531.94 680.71C538.26 680.48 544.59 680.05 550.86 679.21C555.18 678.63 559.78 677.24 562.29 673.38C565.07 669.1 563.29 663.95 560.81 659.99C559.16 657.35 557.31 654.82 555.56 652.25C553.85 649.74 552.27 647.04 550.33 644.71C546.9 640.59 541.69 641.92 536.99 641.71C535.07 641.61 535.08 644.61 537 644.7Z" fill="#613DE4"/>
<path d="M532.52 647.6C534.16 647.63 535.8 647.66 537.43 647.67C540.67 647.69 544.19 646.9 546.21 644.37C548.94 640.95 548.36 635.2 548.32 631.08C548.17 613.17 547.82 595.27 547.82 577.36C547.84 558.89 547.77 540.42 547.6 521.94C547.52 512.97 547.25 503.99 547.19 495.03C547.08 476.97 547.11 458.69 546.66 440.77C546.6 438.3 546.36 435.49 544.41 433.97C543.05 432.92 541.21 432.79 539.49 432.73C532.16 432.46 524.82 432.51 517.48 432.68C481.16 433.52 444.83 434.02 408.49 434.07C390.72 434.09 373 434.57 355.25 434.13C318.75 433.22 282.26 432.8 245.74 432.43C241.56 432.39 237.38 432.42 233.19 432.4C227.96 432.37 222.62 432.35 217.51 433.62C212.36 434.9 209.81 437.77 209.1 443.16C207.87 452.52 209.45 461.84 209.75 471.2C210.94 507.12 208.64 543.03 209.52 578.95C209.73 588.65 209.61 598.34 209.31 608.03C209.02 617.24 207.64 626.67 209.09 635.84C209.51 638.47 210.22 641.16 211.89 643.23C213.76 645.55 216.65 646.87 219.59 647.39C227.53 648.82 236.85 647.04 244.92 646.77C254.12 646.47 263.33 646.23 272.53 646.07C290.94 645.74 309.36 645.7 327.77 645.93C364.22 646.4 400.66 646.64 437.14 646.47C439.72 646.46 442.29 646.43 444.87 646.43C462.58 646.43 480.29 646.36 497.99 646.54C509.52 646.67 521.03 647.36 532.52 647.6Z" fill="#1D2939"/>
<path d="M532.52 649.1C536.21 649.17 540.1 649.54 543.58 648.08C546.57 646.83 548.51 644.37 549.3 641.26C550.11 638.08 549.88 634.76 549.83 631.51C549.76 626.89 549.74 622.27 549.68 617.65C549.46 599.26 549.35 580.88 549.32 562.49C549.29 543.81 549.19 525.14 548.84 506.47C548.5 488.13 548.65 469.78 548.37 451.43C548.3 447.13 548.51 442.68 548 438.41C547.62 435.19 546.08 432.4 542.73 431.6C541.03 431.19 539.22 431.22 537.49 431.17C535.05 431.1 532.6 431.06 530.15 431.05C525.47 431.03 520.8 431.11 516.12 431.22C497.62 431.64 479.12 431.98 460.62 432.21C441.89 432.45 423.17 432.5 404.44 432.59C386.01 432.68 367.6 432.92 349.17 432.49C312.07 431.62 274.93 430.91 237.82 430.92C233.34 430.92 228.84 430.77 224.37 431.1C220.83 431.36 217.05 431.79 213.83 433.38C207.21 436.63 207.12 444.79 207.15 451.2C207.17 455.66 207.56 460.1 207.89 464.54C208.23 469.23 208.37 473.92 208.47 478.63C208.66 487.83 208.65 497.04 208.55 506.24C208.36 524.76 207.81 543.28 207.83 561.8C207.85 580.26 208.49 598.66 207.34 617.11C207.06 621.64 206.81 626.19 207.07 630.73C207.29 634.54 207.67 638.64 209.4 642.11C213.05 649.42 222.35 649.71 229.44 649.41C233.64 649.23 237.81 648.74 242 648.46C246.56 648.15 251.14 648.11 255.71 647.98C264.91 647.73 274.12 647.55 283.33 647.44C320.42 647 357.52 647.9 394.62 648.03C413.06 648.09 431.5 647.98 449.94 647.97C468.44 647.96 486.97 647.72 505.46 648.23C514.48 648.45 523.49 648.91 532.52 649.1C534.45 649.14 534.45 646.14 532.52 646.1C523.5 645.91 514.48 645.45 505.46 645.2C496.37 644.95 487.27 644.96 478.18 644.94C460.34 644.9 442.5 644.99 424.67 645.02C388.56 645.1 352.45 644.56 316.34 644.33C298.38 644.21 280.41 644.36 262.45 644.78C253.81 644.98 245.16 645.12 236.55 645.87C232.47 646.22 228.37 646.58 224.28 646.39C220.57 646.22 216.44 645.69 213.67 642.95C210.75 640.05 210.38 635.21 210.11 631.34C209.81 627.02 210 622.69 210.25 618.37C210.78 609.51 211.09 600.67 211.13 591.79C211.18 582.79 210.87 573.79 210.83 564.8C210.79 555.82 210.89 546.84 211.04 537.86C211.33 519.79 211.78 501.72 211.54 483.65C211.42 474.57 210.81 465.57 210.31 456.51C210.06 452.06 209.93 447.49 210.62 443.07C211.05 440.32 212.14 437.78 214.62 436.33C217.81 434.46 222.02 434.19 225.62 434C229.9 433.78 234.19 433.9 238.47 433.9C247.43 433.9 256.38 434.03 265.34 434.13C283.37 434.33 301.39 434.56 319.42 434.87C337.42 435.18 355.43 435.83 373.44 435.81C391.44 435.78 409.44 435.6 427.44 435.5C445.49 435.4 463.55 435.19 481.6 434.89C499.65 434.59 517.76 433.71 535.82 434.12C537.74 434.16 539.79 434.05 541.68 434.42C543.68 434.82 544.59 436.17 544.94 438.09C545.25 439.83 545.18 441.66 545.22 443.42C545.27 445.75 545.32 448.08 545.35 450.42C545.5 459.47 545.55 468.53 545.6 477.59C545.68 495.53 546.04 513.46 546.18 531.4C546.32 549.4 546.25 567.41 546.35 585.41C546.4 594.36 546.51 603.32 546.62 612.27C546.72 620.4 547.18 628.62 546.88 636.74C546.77 639.82 546.2 643.23 543.29 644.9C540.12 646.72 536.02 646.16 532.53 646.09C530.59 646.06 530.59 649.06 532.52 649.1Z" fill="#613DE4"/>
<path d="M523.08 641.02C524.62 641.05 526.16 641.08 527.69 641.09C530.73 641.11 534.04 640.37 535.93 637.99C538.49 634.78 537.95 629.38 537.91 625.51C537.77 608.7 537.44 591.89 537.44 575.08C537.46 557.74 537.39 540.4 537.23 523.06C537.15 514.64 536.9 506.21 536.85 497.8C536.74 480.85 536.77 463.68 536.35 446.86C536.29 444.54 536.07 441.9 534.24 440.48C532.96 439.49 531.24 439.37 529.62 439.32C522.74 439.07 515.84 439.11 508.96 439.27C474.86 440.06 440.76 440.53 406.65 440.57C389.97 440.59 373.33 441.04 356.67 440.62C322.4 439.76 288.15 439.38 253.87 439.03C249.94 438.99 246.02 439.02 242.09 439C237.18 438.97 232.17 438.95 227.37 440.14C222.54 441.34 220.14 444.04 219.47 449.1C218.31 457.89 219.79 466.64 220.08 475.42C221.19 509.13 219.04 542.85 219.87 576.57C220.07 585.67 219.96 594.77 219.67 603.87C219.4 612.52 218.1 621.37 219.47 629.98C219.86 632.45 220.53 634.97 222.1 636.92C223.85 639.1 226.57 640.33 229.33 640.83C236.79 642.17 245.53 640.5 253.11 640.25C261.75 639.96 270.39 639.75 279.03 639.59C296.31 639.28 313.6 639.24 330.88 639.46C365.1 639.9 399.31 640.13 433.55 639.97C435.97 639.96 438.39 639.93 440.81 639.93C457.43 639.93 474.06 639.87 490.68 640.04C501.48 640.15 512.29 640.8 523.08 641.02Z" fill="#613DE4"/>
<path d="M235 489C235 487.895 235.895 487 237 487H257C258.105 487 259 487.895 259 489V635H235V489Z" fill="#1D2939"/>
<path d="M271 542C271 540.895 271.895 540 273 540H293C294.105 540 295 540.895 295 542V635H271V542Z" fill="#1D2939"/>
<path d="M343 531C343 529.895 343.895 529 345 529H365C366.105 529 367 529.895 367 531V635H343V531Z" fill="#1D2939"/>
<path d="M379 506C379 504.895 379.895 504 381 504H401C402.105 504 403 504.895 403 506V635H379V506Z" fill="#1D2939"/>
<path d="M307 506C307 504.895 307.895 504 309 504H329C330.105 504 331 504.895 331 506V635H307V506Z" fill="#1D2939"/>
<path d="M196.995 665.012C193.261 665.012 191.576 669.689 194.45 672.081C195.947 673.33 196.995 673.696 200.141 674.096C223 677 324.5 677.305 377 677C429.5 676.695 522.5 677 551.992 674.096C557 673 556.434 673.224 557.978 671.833C560.628 669.442 558.755 665 555.185 665H196.995V665.012Z" fill="#613DE4"/>
<path d="M312.825 391.217C312.545 390.185 312.353 389.123 312.25 388.046C311.026 375.051 319.949 363.089 332.472 359.918C342.974 357.248 356.175 361.408 362.635 370.331C368.152 377.957 367.488 388.474 363.211 396.512C356.912 408.327 343.033 413.283 330.422 409.123C322.501 406.513 315.023 399.506 312.825 391.217Z" fill="white"/>
<path d="M309.875 388.267C309.595 387.235 309.403 386.173 309.3 385.096C308.076 372.101 316.999 360.139 329.522 356.968C340.024 354.298 353.225 358.458 359.685 367.381C365.202 375.007 364.538 385.524 360.26 393.562C353.962 405.377 340.083 410.333 327.472 406.173C319.551 403.563 312.073 396.557 309.875 388.267Z" fill="#101828"/>
<path d="M312.014 387.677C309.624 378.031 314.477 367.662 322.663 362.352C330.967 356.983 341.764 357.278 350.29 362.071C354.626 364.505 358.446 368.193 360.172 372.942C361.971 377.898 361.721 383.341 360.098 388.311C357.03 397.707 348.564 404.536 338.667 405.318C327.147 406.218 315.2 399.108 312.014 387.677C311.247 384.934 306.984 386.099 307.751 388.857C311.07 400.716 322.545 408.991 334.61 409.772C346.012 410.51 357.222 404.418 362.429 394.182C368.152 382.913 366.736 368.96 356.44 360.891C347.34 353.752 334.36 351.82 323.784 356.702C311.896 362.189 304.55 375.995 307.751 388.857C308.43 391.615 312.692 390.45 312.014 387.677Z" fill="#613DE4"/>
<path d="M326.248 382.603C328.386 385.671 330.348 388.842 332.133 392.132C332.457 392.736 333.401 392.884 333.873 392.353C339.788 385.701 345.983 379.299 352.458 373.193C353.49 372.219 351.927 370.656 350.895 371.629C344.419 377.736 338.224 384.137 332.31 390.789C332.885 390.863 333.475 390.937 334.05 391.011C332.265 387.721 330.304 384.55 328.165 381.482C327.354 380.332 325.422 381.438 326.248 382.603Z" fill="white"/>
<path d="M559.818 540.005C559.682 539.506 559.59 538.992 559.54 538.471C558.947 532.184 563.265 526.397 569.323 524.863C574.403 523.571 580.79 525.584 583.915 529.901C586.584 533.59 586.263 538.678 584.194 542.567C581.147 548.283 574.432 550.68 568.331 548.668C564.499 547.405 560.881 544.015 559.818 540.005Z" fill="white"/>
<path d="M558.391 538.578C558.256 538.078 558.163 537.565 558.113 537.044C557.521 530.757 561.838 524.97 567.896 523.436C572.977 522.144 579.363 524.157 582.489 528.474C585.157 532.163 584.836 537.251 582.767 541.14C579.72 546.855 573.005 549.253 566.904 547.241C563.072 545.978 559.454 542.588 558.391 538.578Z" fill="#101828"/>
<path d="M559.426 538.292C558.27 533.626 560.617 528.609 564.578 526.04C568.595 523.443 573.818 523.586 577.943 525.905C580.041 527.082 581.889 528.866 582.724 531.164C583.594 533.561 583.473 536.195 582.688 538.599C581.204 543.145 577.108 546.449 572.32 546.827C566.747 547.262 560.967 543.823 559.426 538.292C559.055 536.965 556.992 537.529 557.363 538.863C558.969 544.6 564.52 548.604 570.358 548.982C575.873 549.339 581.297 546.392 583.816 541.439C586.584 535.988 585.899 529.237 580.918 525.334C576.516 521.88 570.236 520.945 565.12 523.307C559.368 525.962 555.815 532.641 557.363 538.863C557.692 540.198 559.754 539.634 559.426 538.292Z" fill="#613DE4"/>
<path d="M566.311 535.838C567.346 537.322 568.295 538.856 569.158 540.447C569.315 540.74 569.772 540.811 570 540.554C572.862 537.336 575.859 534.239 578.991 531.285C579.491 530.814 578.735 530.058 578.235 530.529C575.102 533.483 572.105 536.58 569.244 539.798C569.522 539.834 569.808 539.869 570.086 539.905C569.223 538.314 568.274 536.78 567.239 535.295C566.846 534.739 565.912 535.274 566.311 535.838Z" fill="white"/>
<path d="M161.994 557.742C161.898 557.389 161.833 557.025 161.797 556.657C161.378 552.207 164.433 548.112 168.721 547.026C172.316 546.112 176.836 547.536 179.048 550.591C180.937 553.202 180.71 556.803 179.245 559.555C177.089 563.6 172.337 565.297 168.019 563.873C165.307 562.979 162.747 560.58 161.994 557.742Z" fill="white"/>
<path d="M160.984 556.732C160.888 556.379 160.823 556.015 160.787 555.647C160.368 551.197 163.424 547.102 167.711 546.016C171.307 545.102 175.826 546.526 178.038 549.581C179.927 552.192 179.7 555.793 178.235 558.545C176.079 562.59 171.327 564.287 167.009 562.863C164.297 561.969 161.737 559.57 160.984 556.732Z" fill="#101828"/>
<path d="M161.717 556.53C160.898 553.228 162.56 549.677 165.363 547.859C168.206 546.021 171.903 546.122 174.821 547.763C176.306 548.597 177.614 549.859 178.205 551.485C178.821 553.182 178.735 555.046 178.18 556.747C177.129 559.964 174.231 562.303 170.842 562.57C166.898 562.878 162.807 560.444 161.717 556.53C161.454 555.591 159.995 555.99 160.257 556.934C161.393 560.995 165.322 563.828 169.453 564.095C173.357 564.348 177.195 562.262 178.978 558.757C180.937 554.899 180.452 550.122 176.927 547.359C173.811 544.915 169.367 544.254 165.747 545.925C161.676 547.804 159.161 552.531 160.257 556.934C160.489 557.879 161.949 557.48 161.717 556.53Z" fill="#613DE4"/>
<path d="M166.59 554.793C167.322 555.843 167.994 556.929 168.605 558.055C168.716 558.262 169.039 558.313 169.201 558.131C171.226 555.854 173.347 553.662 175.564 551.571C175.917 551.238 175.382 550.703 175.028 551.036C172.812 553.127 170.69 555.318 168.665 557.596C168.862 557.621 169.064 557.646 169.261 557.672C168.65 556.545 167.979 555.46 167.246 554.409C166.969 554.015 166.307 554.394 166.59 554.793Z" fill="white"/>
<path d="M421.93 723.812C421.687 722.914 421.52 721.992 421.431 721.056C420.367 709.766 428.12 699.372 439.001 696.617C448.125 694.298 459.595 697.912 465.208 705.665C470.001 712.29 469.424 721.428 465.708 728.412C460.236 738.677 448.176 742.983 437.219 739.369C430.337 737.101 423.84 731.014 421.93 723.812Z" fill="white"/>
<path d="M419.367 721.248C419.124 720.351 418.957 719.429 418.868 718.493C417.804 707.203 425.557 696.809 436.438 694.054C445.562 691.735 457.032 695.348 462.645 703.102C467.438 709.727 466.861 718.865 463.145 725.849C457.673 736.114 445.613 740.42 434.656 736.806C427.774 734.538 421.277 728.451 419.367 721.248Z" fill="#101828"/>
<path d="M421.225 720.736C419.149 712.355 423.366 703.345 430.478 698.732C437.693 694.067 447.074 694.323 454.481 698.488C458.249 700.603 461.568 703.807 463.068 707.933C464.631 712.239 464.413 716.968 463.004 721.287C460.338 729.45 452.982 735.384 444.383 736.063C434.374 736.845 423.993 730.668 421.225 720.736C420.559 718.352 416.855 719.365 417.522 721.761C420.405 732.065 430.376 739.254 440.859 739.933C450.765 740.574 460.505 735.281 465.028 726.387C470.001 716.596 468.771 704.473 459.825 697.463C451.918 691.26 440.641 689.581 431.452 693.823C421.123 698.591 414.741 710.586 417.522 721.761C418.111 724.158 421.815 723.145 421.225 720.736Z" fill="#613DE4"/>
<path d="M433.592 716.327C435.451 718.993 437.155 721.748 438.706 724.606C438.988 725.132 439.808 725.26 440.218 724.798C445.357 719.019 450.739 713.457 456.365 708.151C457.262 707.305 455.904 705.947 455.007 706.793C449.381 712.098 443.998 717.66 438.859 723.44C439.359 723.504 439.872 723.568 440.372 723.632C438.821 720.774 437.117 718.019 435.258 715.353C434.553 714.354 432.875 715.315 433.592 716.327Z" fill="white"/>
<path d="M162.774 415.123C165.596 410.755 170.253 407.852 175.363 406.806C180.02 405.86 185.075 406.365 189.28 408.734C192.253 410.406 194.732 413.025 196.253 416.169C199.684 423.255 197.89 432.853 192.376 438.288C191.821 438.836 191.219 439.348 190.588 439.796C188.088 441.589 185.095 442.55 182.075 442.856C177.096 443.361 171.383 442.599 167.157 439.64C161.514 435.684 158.891 427.481 160.438 420.687C160.904 418.638 161.712 416.774 162.774 415.123Z" fill="white"/>
<path d="M165.766 414.39C168.562 410.224 173.176 407.455 178.238 406.457C182.852 405.555 187.86 406.037 192.027 408.296C194.972 409.891 197.428 412.388 198.934 415.387C202.334 422.146 200.556 431.3 195.094 436.484C194.544 437.007 193.947 437.495 193.323 437.923C190.846 439.633 187.881 440.549 184.888 440.841C179.955 441.322 174.296 440.596 170.109 437.774C164.517 434.001 161.918 426.177 163.452 419.696C163.913 417.742 164.714 415.964 165.766 414.39Z" fill="#101828"/>
<path d="M166.648 414.906C170.808 408.799 178.896 406.077 186.035 407.326C189.767 407.977 193.207 409.701 195.759 412.524C198.018 415.021 199.348 418.237 199.606 421.59C200.122 428.396 196.736 435.65 190.289 438.459C186.795 439.986 182.771 440.216 179.018 439.796C175.483 439.402 171.839 438.187 169.179 435.745C163.486 430.506 162.427 421.325 166.648 414.906C167.367 413.806 165.61 412.789 164.89 413.881C160.629 420.368 161.253 429.21 165.997 435.283C171.032 441.73 180.749 443.25 188.328 441.282C192.393 440.23 195.847 437.835 198.229 434.381C200.319 431.347 201.479 427.683 201.676 424.012C201.873 420.355 201.018 416.616 199.05 413.508C196.81 409.972 193.35 407.38 189.394 406.071C180.694 403.194 170.122 406.22 164.904 413.888C164.151 414.96 165.915 415.985 166.648 414.906Z" fill="#613DE4"/>
<path d="M183.246 419.764C185.227 420.463 186.89 422.519 186.645 424.697C186.428 426.652 184.779 428.226 182.845 428.443C179.839 428.782 176.134 426.306 177.112 422.954C177.865 420.402 180.749 418.97 183.246 419.764C184.121 420.042 184.494 418.665 183.626 418.394C180.817 417.498 177.682 418.807 176.25 421.379C175.117 423.408 175.368 425.797 176.888 427.541C178.231 429.088 180.396 429.97 182.438 429.902C184.956 429.821 187.175 428.172 187.88 425.722C188.79 422.567 186.544 419.425 183.619 418.394C182.757 418.081 182.384 419.459 183.246 419.764Z" fill="white"/>
<path d="M191.735 428.687C188.769 432.487 183.768 434.564 179.059 433.085C174.716 431.721 171.235 427.751 171.547 423.055C171.846 418.658 175.137 414.777 179.398 413.745C183.795 412.68 188.939 414.315 191.097 418.475C191.728 419.69 192.06 421.054 192.067 422.417C192.074 423.51 192.006 424.908 191.246 425.77C190.147 427.011 188.756 425.831 188.328 424.636C187.792 423.15 188.077 421.4 188.43 419.907C188.64 419.018 187.263 418.631 187.059 419.527C186.462 422.085 186.103 425.987 188.919 427.432C190.059 428.016 191.402 427.697 192.257 426.774C193.092 425.878 193.357 424.616 193.458 423.435C193.703 420.565 192.746 417.688 190.792 415.564C189 413.616 186.462 412.483 183.87 412.13C178.448 411.397 173.217 414.166 171.052 419.249C170.034 421.63 169.776 424.379 170.597 426.862C171.452 429.454 173.325 431.605 175.619 433.051C181.312 436.634 188.688 434.917 192.753 429.699C193.302 428.979 192.298 427.968 191.735 428.687Z" fill="white"/>
<path d="M531.929 406.615C533.891 403.577 537.13 401.559 540.683 400.832C543.922 400.174 547.437 400.525 550.361 402.172C552.428 403.335 554.152 405.155 555.21 407.342C557.596 412.27 556.348 418.944 552.514 422.723C552.128 423.104 551.709 423.461 551.271 423.772C549.532 425.019 547.451 425.687 545.351 425.9C541.888 426.251 537.916 425.721 534.977 423.663C531.053 420.913 529.229 415.208 530.305 410.484C530.629 409.059 531.191 407.763 531.929 406.615Z" fill="white"/>
<path d="M534.009 406.105C535.953 403.208 539.162 401.282 542.682 400.589C545.891 399.961 549.373 400.296 552.271 401.868C554.319 402.976 556.027 404.713 557.074 406.799C559.438 411.498 558.202 417.864 554.403 421.469C554.021 421.832 553.606 422.172 553.172 422.469C551.45 423.659 549.388 424.296 547.307 424.498C543.876 424.833 539.941 424.329 537.029 422.366C533.141 419.742 531.334 414.301 532.4 409.795C532.721 408.436 533.278 407.2 534.009 406.105Z" fill="#101828"/>
<path d="M534.623 406.464C537.515 402.217 543.14 400.325 548.104 401.193C550.699 401.646 553.092 402.844 554.866 404.807C556.437 406.544 557.362 408.78 557.542 411.111C557.9 415.844 555.546 420.889 551.063 422.842C548.633 423.904 545.834 424.064 543.225 423.772C540.767 423.498 538.233 422.653 536.383 420.955C532.424 417.312 531.688 410.927 534.623 406.464C535.123 405.699 533.901 404.991 533.401 405.751C530.437 410.262 530.871 416.411 534.17 420.634C537.671 425.117 544.428 426.174 549.699 424.805C552.526 424.074 554.927 422.408 556.584 420.006C558.037 417.897 558.844 415.349 558.981 412.796C559.118 410.253 558.523 407.653 557.155 405.492C555.597 403.033 553.191 401.231 550.44 400.32C544.391 398.319 537.039 400.424 533.41 405.756C532.886 406.501 534.113 407.214 534.623 406.464Z" fill="#613DE4"/>
<path d="M546.165 409.842C547.543 410.328 548.699 411.758 548.529 413.273C548.378 414.632 547.231 415.726 545.887 415.877C543.796 416.113 541.22 414.391 541.899 412.06C542.423 410.286 544.429 409.29 546.165 409.842C546.774 410.036 547.033 409.078 546.429 408.889C544.476 408.266 542.296 409.177 541.3 410.965C540.512 412.376 540.687 414.037 541.744 415.25C542.678 416.326 544.183 416.939 545.603 416.892C547.354 416.835 548.897 415.689 549.388 413.985C550.02 411.791 548.458 409.606 546.425 408.889C545.825 408.672 545.566 409.63 546.165 409.842Z" fill="white"/>
<path d="M552.068 416.047C550.006 418.69 546.528 420.134 543.253 419.105C540.233 418.157 537.813 415.396 538.03 412.131C538.237 409.073 540.526 406.374 543.489 405.657C546.547 404.916 550.124 406.053 551.624 408.946C552.063 409.79 552.294 410.739 552.299 411.687C552.304 412.447 552.257 413.419 551.728 414.018C550.964 414.882 549.996 414.061 549.699 413.23C549.326 412.197 549.524 410.979 549.77 409.941C549.916 409.323 548.958 409.054 548.817 409.677C548.401 411.456 548.151 414.169 550.11 415.174C550.902 415.58 551.837 415.358 552.431 414.717C553.012 414.094 553.196 413.216 553.266 412.395C553.436 410.399 552.771 408.398 551.412 406.921C550.166 405.567 548.401 404.779 546.599 404.534C542.829 404.024 539.19 405.949 537.685 409.484C536.977 411.14 536.798 413.051 537.369 414.778C537.964 416.58 539.266 418.076 540.861 419.081C544.82 421.573 549.949 420.379 552.776 416.75C553.158 416.25 552.459 415.547 552.068 416.047Z" fill="white"/>
<rect x="405" y="310.196" width="6" height="14" rx="3" transform="rotate(-60 405 310.196)" fill="#613DE4"/>
<rect x="428" y="279" width="6" height="14" rx="3" transform="rotate(-30 428 279)" fill="#613DE4"/>
<rect x="470.624" y="274" width="6" height="14" rx="3" transform="rotate(15 470.624 274)" fill="#613DE4"/>
<rect x="495.899" y="304" width="6" height="14" rx="3" transform="rotate(45 495.899 304)" fill="#613DE4"/>
<path d="M262.03 635.46C257.45 621.03 263.99 605.39 275.06 595.81C287.47 585.08 304.34 581.35 320.34 580.93C339.03 580.43 357.53 583.94 376.19 584.3C385.12 584.47 394.6 584.24 403.19 581.56C410.22 579.37 416.38 575.04 421.2 569.51C432.13 556.97 435.45 540.3 436.76 524.17C436.93 522.02 437.08 519.86 437.21 517.7C437.33 515.77 434.32 515.78 434.21 517.7C433.23 534.17 431.22 551.66 420.88 565.2C416.57 570.84 410.85 575.61 404.14 578.07C395.59 581.21 385.94 581.43 376.94 581.3C358.19 581.02 339.61 577.48 320.84 577.9C304.67 578.27 287.97 581.86 274.98 592C263.29 601.13 255.75 616.03 257.93 631.03C258.19 632.8 258.6 634.53 259.14 636.24C259.72 638.09 262.62 637.31 262.03 635.46Z" fill="white"/>
<path d="M351.51 636.06C349.32 623.84 359.88 614.09 369.8 609.1C382.85 602.53 397.69 601.27 412.07 601.59C426.89 601.92 442.81 603.53 456.88 597.78C462.69 595.4 468.71 591.91 472.62 586.89C476.41 582.01 478.67 575.99 480.16 570.04C484.42 553.05 481.14 535.26 479.29 518.18C479.08 516.28 476.08 516.26 476.29 518.18C477.96 533.59 480.89 549.55 478.16 565.02C477.05 571.33 475.07 577.79 471.56 583.21C468.01 588.7 462.02 592.43 456.07 594.89C441.98 600.72 425.94 598.86 411.1 598.58C396.77 598.31 382.12 599.8 369.07 606.12C357.47 611.73 346.1 622.88 348.6 636.87C348.96 638.76 351.85 637.95 351.51 636.06Z" fill="white"/>
<path fill-rule="evenodd" clip-rule="evenodd" d="M438 437.5C437.947 432.588 437.763 427.553 437.577 422.468C437.13 410.255 436.673 397.756 438 386C438.193 384.297 438.266 382.096 438.342 379.818C438.448 376.652 438.558 373.338 439 371C439.295 369.44 439.294 367.332 439.293 365.156V365.156C439.292 362.241 439.29 359.204 440 357.2C440.317 356.31 440.186 354.686 440.06 353.134V353.134C439.959 351.897 439.863 350.706 440 349.97C440.272 348.517 440.07 348.346 439.926 348.225C439.806 348.124 439.727 348.056 440 347.3C440.547 345.783 440.775 344.664 440.988 343.616C441.273 342.212 441.532 340.936 442.5 339C443.686 336.626 444.448 334.091 445.202 331.585C446.483 327.327 447.739 323.154 451 320C452.995 318.068 453.168 315.689 453.303 313.832C453.471 311.518 453.58 310.014 457.08 311.19C462.61 313.05 466.47 318.3 469.14 323.21C472.75 329.84 475.47 337.06 477.83 344.22C480.31 351.76 482.41 359.5 483.86 367.31C485.36 375.35 486.1 383.52 486.42 391.69C486.832 402.25 486.54 412.806 486.247 423.363V423.363L486.247 423.364C486.085 429.202 485.923 435.04 485.88 440.88C485.81 449.21 485.96 457.55 486.22 465.88C486.285 467.935 486.363 469.988 486.441 472.04C486.673 478.177 486.905 484.307 486.8 490.46L486.799 490.524C486.78 491.873 486.756 493.517 485.85 494.6C484.93 495.696 483.275 496.19 481.851 496.615L481.85 496.615C481.572 496.698 481.303 496.778 481.05 496.86C479.269 497.432 477.469 497.946 475.655 498.408C475.425 498.412 475.19 498.426 474.95 498.45C472.904 498.66 470.864 498.898 468.825 499.137L468.825 499.137C465.024 499.582 461.227 500.026 457.4 500.28C451.476 500.664 445.507 500.835 439.564 500.625C439.106 500.175 439 499.605 438.878 498.941C438.796 498.499 438.707 498.016 438.5 497.5C438.145 497.437 437.953 497.42 437.866 497.413C437.823 497.409 437.805 497.407 437.805 497.404C437.805 497.401 437.814 497.397 437.83 497.391C437.97 497.335 438.628 497.07 438 495.5C438.362 494.416 438.305 494.267 438.17 493.912C438.119 493.777 438.056 493.611 438 493.35C437.694 491.88 437.771 491.119 437.876 490.076C437.922 489.621 437.973 489.113 438 488.47C438.222 483.24 438.183 481.94 438.111 479.587C438.07 478.229 438.019 476.52 438 473.5C437.978 469.708 437.996 467.165 438.014 464.738V464.738C438.035 461.815 438.055 459.062 438 454.5C437.951 451.589 437.971 446.453 437.987 442.214V442.214C437.994 440.396 438 438.742 438 437.5ZM476.01 501.386C464.203 504.325 451.931 504.998 439.761 504.644C439.633 504.948 439.404 505.385 439 506C438.468 507.332 438.224 507.282 437.958 507.226C437.724 507.178 437.472 507.126 436.99 508C436.699 508.624 436.473 509.053 436.295 509.391C435.783 510.365 435.664 510.591 435.5 512.58C435.469 512.945 435.398 513.239 435.334 513.503C435.194 514.078 435.089 514.514 435.5 515.24C435.749 515.669 435.782 515.919 435.803 516.08C435.835 516.321 435.841 516.362 436.5 516.5C439.319 517.095 439.253 517.724 439.2 518.224C439.148 518.725 439.109 519.095 441.99 519.17C447.26 519.3 452.56 519.12 457.83 518.87C462.88 518.63 468.03 518.38 473 517.38C475.32 516.91 477.65 516.27 479.79 515.24C480.99 514.67 481.56 513.92 481.69 512.58C481.96 509.71 480.66 506.58 479.31 504.11C478.92 503.4 478.5 502.65 477.92 502.09C477.354 501.546 476.717 501.396 476.01 501.386ZM420.26 502.91C420.493 502.954 420.726 502.996 420.959 503.038C419.817 505.491 418.845 508.032 418.43 510.71C418.08 512.98 417.92 515.7 419.25 517.71C420.566 519.697 423.127 520.119 425.392 520.493L425.393 520.493C425.727 520.548 426.054 520.602 426.37 520.66C429.17 521.16 431.99 521.53 434.82 521.78C440.75 522.31 446.69 522.27 452.63 522.09C458.59 521.91 464.59 521.64 470.5 520.83C473.21 520.46 475.9 519.93 478.48 519.01L478.682 518.938C480.561 518.268 482.64 517.527 483.74 515.77C485.61 512.78 484.49 508.64 483.29 505.63C482.69 504.11 481.99 502.59 481.05 501.24C480.788 500.867 480.512 500.532 480.221 500.233C480.909 500.027 481.596 499.813 482.28 499.59C485.63 498.5 488.82 497.18 489.52 493.35C489.77 492.008 489.777 490.646 489.784 489.286C489.786 489.014 489.787 488.742 489.79 488.47C489.795 488.157 489.799 487.845 489.804 487.532C489.832 485.667 489.86 483.807 489.8 481.94C489.697 478.612 489.571 475.285 489.445 471.957L489.445 471.957C489.24 466.548 489.036 461.138 488.93 455.72C488.742 445.597 488.985 435.488 489.228 425.378V425.378C489.399 418.261 489.57 411.143 489.59 404.02C489.61 395.48 489.36 386.93 488.45 378.43C487.55 370.01 485.92 361.75 483.72 353.58C481.61 345.74 479.03 338.03 475.85 330.55C473.19 324.29 470.28 317.83 465.31 313.02C460.79 308.65 454.77 306.42 448.56 308.12C441.52 310.05 436.3 315.64 432.13 321.34C427.53 327.63 423.96 334.62 421.16 341.89C420.47 343.68 419.83 345.48 419.24 347.3C419.18 347.488 419.115 347.677 419.05 347.866C418.814 348.552 418.575 349.249 418.52 349.97C418.45 350.82 418.25 351.63 417.99 352.44C417.804 353.033 417.596 353.619 417.389 354.206L417.389 354.206C417.04 355.191 416.691 356.178 416.44 357.2C415.92 359.3 415.46 361.42 415.04 363.54C411.67 380.56 411.35 397.85 411.58 415.14C411.64 419.44 411.69 423.73 411.73 428.03C411.731 428.051 411.734 428.072 411.74 428.095C411.743 431.807 411.768 435.518 411.806 439.23C411.703 439.466 411.603 439.702 411.504 439.936C411.298 440.419 411.097 440.892 410.89 441.34C408.23 447.1 405.75 452.95 403.56 458.91C402.114 462.838 400.907 466.826 399.699 470.821C399.144 472.654 398.589 474.489 398.01 476.32C398 476.353 397.995 476.386 397.995 476.42C396.984 479.654 396.028 482.948 395.74 486.33C395.51 489.1 395.89 492.56 398.72 493.89C400.338 494.651 402.255 494.433 404.015 494.232C404.267 494.203 404.516 494.175 404.76 494.15C407.092 493.909 409.471 493.628 411.749 493.043C411.586 495.065 411.533 497.158 412.39 499.02C413.639 501.744 416.698 502.281 419.417 502.759C419.703 502.809 419.985 502.859 420.26 502.91Z" fill="white"/>
<path d="M429.3 500.71C427.72 504.04 426.3 508.21 426.81 511.95C426.95 513.01 427.42 514.08 428.29 514.71C428.93 515.18 429.72 515.37 430.49 515.54C438.74 517.38 447.23 517.86 455.67 517.68C461.28 517.56 466.88 517.36 472.48 516.87C477.75 516.41 483.15 515.74 487.95 513.35C492.53 511.06 489.06 502.54 487 499.33C486.55 498.64 486.04 497.98 485.36 497.51C483.93 496.52 481.93 496.95 480.32 497.17C468.31 498.78 456.11 499.58 444 499.01C440.12 498.82 435.57 497.59 431.79 498.8C430.75 499.13 429.78 499.7 429.3 500.71Z" fill="#613DE4"/>
<path d="M428 499.95C426.84 502.43 425.85 505 425.43 507.71C425.08 509.98 424.92 512.7 426.25 514.71C427.76 516.99 430.91 517.21 433.37 517.66C436.17 518.16 438.99 518.53 441.82 518.78C447.75 519.31 453.69 519.27 459.63 519.09C465.59 518.91 471.59 518.64 477.5 517.83C480.21 517.46 482.9 516.93 485.48 516.01C487.41 515.32 489.6 514.59 490.74 512.77C492.61 509.78 491.49 505.64 490.29 502.63C489.69 501.11 488.99 499.59 488.05 498.24C486.54 496.09 484.56 495.19 481.95 495.45C476.09 496.05 470.28 496.89 464.4 497.28C457.62 497.72 450.78 497.88 443.99 497.51C441.01 497.35 438.05 496.69 435.06 496.78C432.43 496.87 429.38 497.46 428 499.95C427.07 501.64 429.66 503.16 430.59 501.46C431.62 499.59 434.72 499.71 436.55 499.79C438.84 499.89 441.1 500.3 443.38 500.47C448.64 500.85 453.97 500.75 459.24 500.54C464.49 500.33 469.73 499.91 474.95 499.33C477.41 499.05 479.87 498.59 482.34 498.41C483.32 498.34 484.18 498.38 484.92 499.09C485.5 499.65 485.92 500.4 486.31 501.11C487.66 503.58 488.96 506.71 488.69 509.58C488.56 510.92 487.99 511.67 486.79 512.24C484.65 513.27 482.32 513.91 480 514.38C475.03 515.38 469.88 515.63 464.83 515.87C459.56 516.12 454.26 516.3 448.99 516.17C443.23 516.02 437.48 515.49 431.84 514.3C430.74 514.07 429.29 513.96 428.67 512.89C428.07 511.83 428.17 510.35 428.27 509.19C428.49 506.51 429.48 503.88 430.61 501.46C431.41 499.73 428.82 498.21 428 499.95Z" fill="#111112"/>
<path d="M420.24 425.02C420.18 419.73 420.12 414.44 420.05 409.16C419.91 398.75 420.02 388.38 421.03 378C421.54 372.76 422.25 367.53 423.23 362.35C423.73 359.67 424.31 357.01 424.96 354.36C425.51 352.1 427.04 349.09 427.04 346.8C430.18 336.54 434.71 326.62 441.24 318.03C444.59 313.63 448.59 309.49 453.71 307.35C465.4 302.47 473.71 311.74 478.4 321.34C484.13 333.05 488.07 345.29 491.04 357.93C497.22 384.19 494.59 410.96 494.36 437.62C494.25 451.14 494.7 464.69 495.29 478.2C495.41 480.98 495.31 483.67 495.29 486.44C495.27 488.45 495.33 491.21 493.79 492.76C492.78 493.78 491.38 494.3 490.01 494.77C476.16 499.48 461.79 500.56 447.25 500.14C439.19 499.9 431.06 499.55 423.27 497.48C418.83 496.3 420.42 490.22 420.47 486.99C420.58 481.07 420.64 475.14 420.66 469.22C420.71 454.47 420.24 439.74 420.24 425.02Z" fill="#1D2939"/>
<path d="M421.74 425.02C421.56 408.31 420.97 391.55 422.85 374.9C423.31 370.83 423.91 366.77 424.67 362.75C425.36 359.1 426.08 355.44 427.32 351.94C427.89 350.34 428.22 348.8 428.53 347.14C428.85 345.4 429.63 343.63 430.23 341.97C431.51 338.42 432.97 334.94 434.66 331.56C437.86 325.15 441.81 318.75 446.99 313.74C451.47 309.4 457.77 306.07 464.08 308.19C469.61 310.05 473.47 315.3 476.14 320.21C479.75 326.84 482.47 334.06 484.83 341.22C487.31 348.76 489.41 356.5 490.86 364.31C492.36 372.35 493.1 380.52 493.42 388.69C494.06 405.09 493 421.48 492.88 437.88C492.81 446.21 492.96 454.55 493.22 462.88C493.48 471.08 493.94 479.25 493.8 487.46C493.78 488.82 493.77 490.5 492.85 491.6C491.75 492.91 489.6 493.36 488.05 493.86C484.31 495.06 480.49 496.01 476.62 496.74C468.74 498.23 460.72 498.75 452.71 498.74C444.75 498.73 436.62 498.56 428.77 497.16C427.01 496.85 424.99 496.62 423.33 495.93C422.4 495.55 422.01 494.73 421.81 493.79C421.37 491.68 421.89 489.44 421.98 487.32C422.33 479.07 422.22 470.77 422.17 462.52C422.12 454.16 421.95 445.8 421.85 437.45C421.78 433.29 421.74 429.16 421.74 425.02C421.74 423.09 418.74 423.09 418.74 425.02C418.75 442.55 419.28 460.07 419.11 477.6C419.07 481.31 419.18 485.06 418.86 488.76C418.65 491.16 418.35 493.76 419.39 496.02C420.77 499.03 424.36 499.37 427.26 499.91C431.35 500.68 435.51 501.09 439.66 501.33C456.29 502.3 473.32 501.79 489.28 496.59C492.63 495.5 495.82 494.18 496.52 490.35C496.82 488.74 496.77 487.1 496.79 485.47C496.82 483.29 496.87 481.12 496.8 478.94C496.53 470.2 496.1 461.47 495.93 452.72C495.61 435.47 496.54 418.26 496.59 401.02C496.61 392.48 496.36 383.93 495.45 375.43C494.55 367.01 492.92 358.75 490.72 350.58C488.61 342.74 486.03 335.03 482.85 327.55C480.19 321.29 477.28 314.83 472.31 310.02C467.79 305.65 461.77 303.42 455.56 305.12C448.52 307.05 443.3 312.64 439.13 318.34C434.53 324.63 430.96 331.62 428.16 338.89C427.47 340.68 426.83 342.48 426.24 344.3C425.96 345.17 425.59 346.05 425.52 346.97C425.45 347.82 425.25 348.63 424.99 349.44C424.49 351.03 423.84 352.57 423.44 354.2C422.92 356.3 422.46 358.42 422.04 360.54C418.67 377.56 418.35 394.85 418.58 412.14C418.64 416.44 418.69 420.73 418.73 425.03C418.76 426.95 421.76 426.95 421.74 425.02Z" fill="#613DE4"/>
<path d="M433.78 351.75C437.33 354.37 441.8 355.05 446.06 355.62C450.56 356.22 455.1 356.53 459.64 356.4C468.6 356.14 477.54 354.19 485.38 349.73C487.06 348.78 485.55 346.18 483.87 347.14C476.49 351.33 468.08 353.15 459.64 353.4C455.39 353.52 451.12 353.27 446.9 352.73C442.88 352.22 438.63 351.63 435.29 349.16C433.74 348.01 432.24 350.61 433.78 351.75Z" fill="#613DE4"/>
<path d="M465.21 378.8C469.69 376.81 474.92 376.44 479.33 378.81C483.64 381.12 486.14 385.26 487.34 389.89C488.6 394.74 488.77 399.95 488.56 404.94C488.33 410.3 487.42 415.73 485.37 420.71C483.62 424.96 480.66 428.91 476.52 431.05C472.45 433.15 467.6 432.91 463.43 431.2C454 427.33 450 416.88 449.79 407.32C449.55 395.86 454.33 383.88 465.21 378.8C466.96 377.98 465.44 375.4 463.7 376.21C452.91 381.25 447.46 392.79 446.85 404.24C446.28 415.04 449.93 427.27 459.93 432.82C464.39 435.3 469.78 436.32 474.75 434.94C479.82 433.53 483.85 429.73 486.45 425.26C489.4 420.2 490.72 414.23 491.31 408.45C491.89 402.79 491.78 396.89 490.73 391.29C489.63 385.41 486.84 379.81 481.58 376.63C476.03 373.28 469.47 373.64 463.71 376.2C461.94 376.99 463.46 379.58 465.21 378.8Z" fill="#613DE4"/>
<path d="M406.46 473.75C406.82 472.6 407.13 471.64 407.31 471C410.62 458.81 415.34 447.13 420.78 435.75C421.28 434.71 421.81 433.64 422.67 432.86C423.53 432.09 424.82 431.68 425.88 432.16C427.19 432.76 427.61 434.39 427.82 435.83C428.89 443.36 428.33 451.02 427.93 458.61C427.63 464.24 427.43 469.87 427.31 475.5C427.22 479.96 426.82 484.37 422.66 486.91C420.49 488.23 417.95 488.8 415.45 489.2C413.17 489.56 410.86 489.81 408.55 489.92C401.54 490.27 404.63 479.55 406.46 473.75Z" fill="#1D2939"/>
<path d="M407.91 474.14C409.32 469.66 410.53 465.13 412.05 460.68C413.65 456.03 415.42 451.43 417.35 446.91C418.33 444.62 419.34 442.35 420.38 440.09C420.87 439.03 421.36 437.97 421.87 436.92C422.31 436 422.73 434.93 423.45 434.18C423.99 433.62 424.93 433.09 425.59 433.77C426.15 434.35 426.25 435.45 426.37 436.21C426.75 438.79 426.88 441.42 426.92 444.02C427.01 449.13 426.64 454.23 426.38 459.33C426.11 464.54 425.92 469.76 425.81 474.98C425.73 478.57 425.66 482.77 422.53 485.16C420.75 486.52 418.45 487.1 416.29 487.51C413.96 487.95 411.59 488.21 409.23 488.36C408.1 488.43 406.87 488.53 406.23 487.46C405.59 486.39 405.65 484.93 405.72 483.73C405.91 480.47 406.93 477.25 407.91 474.14C408.49 472.29 405.59 471.5 405.02 473.34C404 476.6 403.03 479.92 402.74 483.33C402.51 486.1 402.89 489.56 405.72 490.89C407.57 491.76 409.81 491.35 411.76 491.15C414.37 490.88 417.04 490.56 419.56 489.82C424.22 488.45 427.52 485.34 428.38 480.47C428.79 478.16 428.78 475.82 428.84 473.48C428.91 470.5 429.01 467.52 429.14 464.54C429.38 458.67 429.85 452.8 429.92 446.92C429.96 443.93 429.88 440.94 429.57 437.96C429.34 435.75 429.24 433.02 427.47 431.41C425.76 429.85 423.21 430.32 421.6 431.77C419.77 433.41 418.89 436.17 417.89 438.34C415.23 444.1 412.75 449.95 410.56 455.91C408.45 461.64 406.85 467.5 405.01 473.32C404.43 475.19 407.33 475.98 407.91 474.14Z" fill="#613DE4"/>
<path d="M494.42 435.73C494.36 436.47 495.44 437.49 495.7 438.19C496.19 439.5 496.6 440.84 497.01 442.18C500.92 454.94 503.24 468.06 505.35 481.21C505.53 482.32 505.83 483.42 505.67 484.56C505.51 485.68 504.85 486.79 503.78 487.16C503.06 487.41 502.27 487.29 501.52 487.16C499.52 486.83 497.34 486.38 496.1 484.78C495.09 483.48 494.99 481.8 494.87 480.22C494.72 478.23 494.6 476.23 494.51 474.24C494.21 467.56 494.05 460.87 494.02 454.18C494.01 450.87 494.02 447.56 494.07 444.25C494.11 441.4 494.42 438.54 494.42 435.73Z" fill="#1D2939"/>
<path d="M492.92 435.73C493.02 437.07 493.94 437.85 494.41 439.03C495.12 440.76 495.58 442.64 496.11 444.43C497.15 447.97 498.08 451.54 498.91 455.14C500.55 462.17 501.85 469.27 503.04 476.39C503.33 478.13 503.6 479.88 503.89 481.62C504.08 482.76 504.76 485.09 503.32 485.75C502.3 486.21 500.06 485.44 499.09 485.08C497.71 484.57 496.9 483.67 496.59 482.22C496.26 480.68 496.27 479.04 496.17 477.47C496.05 475.58 495.97 473.69 495.9 471.8C495.75 468.05 495.65 464.3 495.58 460.54C495.51 456.43 495.49 452.32 495.52 448.22C495.55 444.05 495.89 439.9 495.92 435.73C495.93 433.8 492.93 433.79 492.92 435.73C492.9 439.73 492.56 443.72 492.53 447.72C492.5 451.83 492.51 455.94 492.58 460.05C492.65 464.13 492.76 468.21 492.93 472.28C493.01 474.24 493.1 476.19 493.23 478.15C493.34 479.87 493.35 481.71 493.8 483.39C494.71 486.71 497.64 488 500.77 488.55C502.51 488.85 504.3 489.02 505.69 487.71C506.82 486.64 507.29 485.03 507.2 483.5C507.1 481.65 506.63 479.78 506.34 477.96C506.02 475.98 505.69 474 505.34 472.03C504.66 468.08 503.92 464.14 503.11 460.21C502.2 455.81 501.17 451.44 500 447.11C499.41 444.95 498.79 442.81 498.12 440.67C497.8 439.65 497.51 438.6 497.08 437.62C496.85 437.09 495.97 436.27 495.93 435.74C495.77 433.81 492.77 433.8 492.92 435.73Z" fill="#613DE4"/>
<rect x="40" y="40" width="48" height="48" rx="4" fill="url(#paint0_linear_2187_29073)"/>
<path d="M74.7137 60.522C76.3819 60.522 77.6567 61.1751 78.538 62.4813C79.4036 63.7561 79.7026 65.259 79.435 66.9902C79.199 68.5797 78.4986 69.9803 77.334 71.1921C76.1852 72.3882 74.7373 72.9862 72.9904 72.9862C71.4167 72.9862 70.2599 72.4275 69.5203 71.3102L68.458 77.377H64.917L67.8206 60.8525H71.3616L71.1963 61.8439C72.1721 60.9626 73.3445 60.522 74.7137 60.522ZM73.6514 63.8741C72.8488 63.8741 72.1406 64.1259 71.5268 64.6295C70.9131 65.1331 70.5196 65.802 70.3465 66.6361L70.2993 66.8485C70.1891 67.6984 70.3465 68.3751 70.7714 68.8787C71.1963 69.3823 71.818 69.6341 72.6363 69.6341C73.4704 69.6341 74.1786 69.3744 74.7609 68.8551C75.3432 68.3357 75.7209 67.6354 75.894 66.7541C76.0514 65.8728 75.9176 65.1725 75.4927 64.6531C75.0836 64.1338 74.4698 63.8741 73.6514 63.8741Z" fill="#111112"/>
<path d="M57.2066 72.9862C55.2079 72.9862 53.6735 72.459 52.6033 71.4046C51.5331 70.3344 51.1476 68.9731 51.4466 67.3207L53.4295 56.1311H57.2066L55.2945 66.9902C55.0269 68.5325 55.7587 69.3036 57.4899 69.3036C59.221 69.3036 60.2204 68.5325 60.4879 66.9902L62.4 56.1311H66.1771L64.1941 67.3207C63.8636 69.162 63.0768 70.5705 61.8335 71.5462C60.6059 72.5062 59.0636 72.9862 57.2066 72.9862Z" fill="#111112"/>
<path d="M73.6644 59.4728C75.3326 59.4728 76.6073 60.1259 77.4887 61.4321C78.3542 62.7069 78.6533 64.2098 78.3857 65.941C78.1496 67.5305 77.4493 68.9312 76.2847 70.143C75.1359 71.339 73.688 71.9371 71.9411 71.9371C70.3673 71.9371 69.2106 71.3784 68.471 70.261L67.4087 76.3279H63.8677L66.7713 59.8033H70.3123L70.147 60.7948C71.1228 59.9134 72.2952 59.4728 73.6644 59.4728ZM72.6021 62.8249C71.7995 62.8249 71.0913 63.0767 70.4775 63.5803C69.8637 64.0839 69.4703 64.7528 69.2972 65.5869L69.25 65.7994C69.1398 66.6492 69.2972 67.3259 69.7221 67.8295C70.147 68.3331 70.7687 68.5849 71.587 68.5849C72.4211 68.5849 73.1293 68.3253 73.7116 67.8059C74.2939 67.2866 74.6716 66.5862 74.8447 65.7049C75.0021 64.8236 74.8683 64.1233 74.4434 63.6039C74.0342 63.0846 73.4205 62.8249 72.6021 62.8249Z" fill="white"/>
<path d="M56.1573 71.9371C54.1586 71.9371 52.6242 71.4098 51.554 70.3554C50.4838 69.2853 50.0983 67.9239 50.3973 66.2715L52.3802 55.082H56.1573L54.2451 65.941C53.9776 67.4833 54.7094 68.2544 56.4405 68.2544C58.1717 68.2544 59.171 67.4833 59.4386 65.941L61.3507 55.082H65.1278L63.1448 66.2715C62.8143 68.1128 62.0274 69.5213 60.7842 70.4971C59.5566 71.4571 58.0143 71.9371 56.1573 71.9371Z" fill="white"/>
</g>
<defs>
<linearGradient id="paint0_linear_2187_29073" x1="64" y1="40" x2="64" y2="88" gradientUnits="userSpaceOnUse">
<stop stop-color="#613DE4"/>
<stop offset="1" stop-color="#421DC9"/>
</linearGradient>
<clipPath id="clip0_2187_29073">
<rect width="756" height="982" fill="white"/>
</clipPath>
</defs>
</svg>
