<svg width="1290" height="550" viewBox="0 0 1290 550" fill="none" xmlns="http://www.w3.org/2000/svg">
<path d="M1226 243L1207 113L1288 205L1226 243Z" stroke="#613DE4" stroke-opacity="0.15" stroke-width="0.5"/>
<circle cx="1207" cy="113" r="2" fill="#613DE4"/>
<circle cx="1288" cy="204" r="2" fill="#613DE4"/>
<circle cx="1227" cy="243" r="2" fill="#613DE4"/>
<path d="M146 234L3 387L310 547L146 234Z" stroke="#613DE4" stroke-opacity="0.15" stroke-width="0.5"/>
<circle cx="146" cy="234" r="3" fill="#613DE4"/>
<circle cx="3" cy="387" r="3" fill="#613DE4"/>
<circle cx="310" cy="547" r="3" fill="#613DE4"/>
<path d="M1073 543L983 322L1235 393L1073 543Z" stroke="#613DE4" stroke-opacity="0.15" stroke-width="0.5"/>
<circle cx="982" cy="321" r="3" fill="#613DE4"/>
<circle cx="1235" cy="393" r="3" fill="#613DE4"/>
<circle cx="1074" cy="543" r="3" fill="#613DE4"/>
<path d="M55.2082 81.8878L45.1294 130.431L281.37 147.612L55.2082 81.8878Z" stroke="#613DE4" stroke-opacity="0.15" stroke-width="0.5"/>
<circle cx="281" cy="147" r="2" fill="#613DE4"/>
<circle cx="55" cy="81" r="2" fill="#613DE4"/>
<circle cx="45" cy="130" r="2" fill="#613DE4"/>
<rect x="1170" y="157" width="34" height="34" rx="17" fill="#613DE4" fill-opacity="0.15"/>
<path fill-rule="evenodd" clip-rule="evenodd" d="M1187 187C1194.18 187 1200 181.18 1200 174C1200 166.82 1194.18 161 1187 161C1179.82 161 1174 166.82 1174 174C1174 181.18 1179.82 187 1187 187Z" fill="#1D2939"/>
<path fill-rule="evenodd" clip-rule="evenodd" d="M1185.86 168C1186.58 168 1187.29 168 1188 168C1187.96 168.483 1187.91 168.969 1187.87 169.452C1188.71 169.512 1189.52 169.78 1190.25 170.176C1189.93 170.969 1189.61 171.761 1189.3 172.554C1188.68 172.032 1187.87 171.743 1187.07 171.754C1186.87 171.759 1186.66 171.798 1186.49 171.914C1186.38 171.99 1186.3 172.108 1186.27 172.239C1186.25 172.344 1186.26 172.462 1186.32 172.557C1186.38 172.662 1186.5 172.725 1186.61 172.764C1186.85 172.848 1187.11 172.853 1187.35 172.88C1187.93 172.95 1188.51 173.05 1189.06 173.258C1189.49 173.42 1189.9 173.664 1190.19 174.021C1190.46 174.35 1190.62 174.764 1190.68 175.189C1190.75 175.68 1190.73 176.19 1190.58 176.667C1190.46 177.051 1190.26 177.408 1190 177.709C1189.45 178.339 1188.66 178.717 1187.84 178.814C1187.86 179.332 1187.9 179.846 1187.92 180.363C1187.25 180.363 1186.57 180.363 1185.9 180.363C1185.92 179.851 1185.96 179.339 1185.98 178.828C1185.44 178.809 1184.9 178.688 1184.39 178.497C1183.9 178.31 1183.44 178.064 1183 177.775C1183.32 176.951 1183.64 176.127 1183.96 175.3C1184.33 175.607 1184.72 175.893 1185.14 176.111C1185.6 176.344 1186.11 176.494 1186.62 176.499C1186.86 176.502 1187.12 176.489 1187.35 176.405C1187.49 176.352 1187.63 176.26 1187.69 176.116C1187.76 175.964 1187.75 175.772 1187.65 175.636C1187.58 175.544 1187.48 175.481 1187.38 175.436C1187.23 175.378 1187.09 175.347 1186.94 175.323C1186.39 175.234 1185.83 175.161 1185.3 174.987C1184.87 174.848 1184.45 174.654 1184.11 174.355C1183.9 174.168 1183.72 173.94 1183.59 173.683C1183.4 173.3 1183.33 172.866 1183.34 172.441C1183.34 171.966 1183.44 171.483 1183.67 171.066C1183.88 170.693 1184.19 170.389 1184.54 170.155C1184.97 169.874 1185.44 169.683 1185.92 169.528C1185.9 169.018 1185.88 168.509 1185.86 168Z" fill="#83BD67"/>
<rect x="1011" y="79" width="33.9409" height="33.9409" rx="16.9705" fill="#613DE4" fill-opacity="0.15"/>
<path fill-rule="evenodd" clip-rule="evenodd" d="M1027.97 108.941C1035.13 108.941 1040.94 103.134 1040.94 95.9705C1040.94 88.8071 1035.13 83 1027.97 83C1020.81 83 1015 88.8071 1015 95.9705C1015 103.134 1020.81 108.941 1027.97 108.941Z" fill="#1D2939"/>
<path fill-rule="evenodd" clip-rule="evenodd" d="M1022.69 93.5613H1029.37C1029.37 93.5613 1031.67 93.5399 1030.08 96.4861C1030.08 96.4861 1028.91 98.7917 1026.03 98.749L1027.59 94.8128C1027.62 94.7174 1027.61 94.6098 1027.55 94.5247C1027.5 94.4396 1027.4 94.3877 1027.3 94.3858L1025.26 94.3512L1022.67 100.585C1022.67 100.585 1023.53 100.67 1024.01 100.628L1023.75 101.268H1024.97C1025.04 101.268 1025.1 101.226 1025.12 101.162L1025.34 100.585L1025.86 100.542L1025.56 101.268H1026.74C1026.83 101.268 1026.91 101.214 1026.94 101.133L1027.28 100.286C1027.28 100.286 1030.89 99.6884 1032.53 96.785C1032.53 96.785 1034.72 93.4119 1032.14 92.2163C1031.64 91.9874 1031.1 91.8432 1030.55 91.7894L1030.85 91.0524C1030.87 91.0071 1030.87 90.9555 1030.84 90.9149C1030.81 90.8743 1030.77 90.8499 1030.72 90.85H1029.6L1029.26 91.7467H1028.78L1029.05 91.0503C1029.07 91.0048 1029.06 90.9538 1029.04 90.9138C1029.01 90.8738 1028.96 90.8499 1028.91 90.85H1027.79L1027.45 91.7467H1023.97C1023.78 91.7461 1023.61 91.8505 1023.52 92.0178L1022.69 93.5613Z" fill="#613DE4"/>
<rect x="97" y="165" width="34" height="34" rx="17" fill="#613DE4" fill-opacity="0.15"/>
<path d="M126.929 182C126.929 189.142 121.14 194.932 113.998 194.932C106.856 194.932 101.066 189.142 101.066 182C101.066 174.858 106.856 169.069 113.998 169.069C121.14 169.069 126.929 174.858 126.929 182Z" fill="#1D2939"/>
<path d="M112.672 181.774V179.512H109.604V177.529H118.178V179.539H115.11V181.774H112.672Z" fill="#00A478"/>
<path fill-rule="evenodd" clip-rule="evenodd" d="M108.285 182.025C108.285 181.271 110.751 180.657 113.819 180.657C116.888 180.657 119.354 181.271 119.354 182.025C119.354 182.779 116.888 183.394 113.819 183.394C110.751 183.394 108.285 182.779 108.285 182.025ZM118.895 182.025C118.694 181.746 117.031 180.88 113.819 180.88C110.607 180.88 108.944 181.718 108.743 182.025C108.944 182.304 110.607 182.723 113.819 182.723C117.06 182.723 118.694 182.304 118.895 182.025Z" fill="#00A478"/>
<path d="M115.11 182.472V180.908C114.709 180.88 114.278 180.852 113.848 180.852C113.447 180.852 113.074 180.852 112.701 180.88V182.444C113.045 182.444 113.447 182.472 113.848 182.472C114.278 182.5 114.709 182.5 115.11 182.472Z" fill="#00A478"/>
<path d="M113.819 183.394C113.418 183.394 113.045 183.394 112.672 183.366V187.527H115.081V183.338C114.68 183.366 114.25 183.394 113.819 183.394Z" fill="#00A478"/>
<rect x="282" y="68" width="34" height="34" rx="17" fill="#613DE4" fill-opacity="0.15"/>
<path d="M311.61 88.145C309.874 95.1094 302.819 99.3474 295.854 97.6111C288.892 95.8747 284.654 88.8206 286.391 81.8567C288.126 74.8915 295.18 70.6527 302.143 72.389C309.108 74.1253 313.346 81.1803 311.609 88.145H311.61Z" fill="#1D2939"/>
<path fill-rule="evenodd" clip-rule="evenodd" d="M302.915 83.4897C303.091 82.3162 302.197 81.6854 300.975 81.2646L301.372 79.6749L300.404 79.4338L300.018 80.9815C299.764 80.9181 299.503 80.8583 299.243 80.7991L299.632 79.2411L298.665 79L298.268 80.5891C298.057 80.5411 297.851 80.4937 297.65 80.4438L297.651 80.4389L296.317 80.1057L296.059 81.1392C296.059 81.1392 296.777 81.3037 296.762 81.3139C297.154 81.4117 297.225 81.6711 297.213 81.8767L296.762 83.6876C296.789 83.6945 296.824 83.7044 296.862 83.7198L296.76 83.6945L296.127 86.2313C296.079 86.3504 295.958 86.529 295.684 86.4612C295.693 86.4752 294.98 86.2856 294.98 86.2856L294.5 87.3935L295.759 87.7074C295.902 87.743 296.042 87.7797 296.181 87.8159C296.271 87.8394 296.36 87.8627 296.449 87.8854L296.049 89.4935L297.015 89.7347L297.412 88.1439C297.676 88.2156 297.932 88.2817 298.183 88.344L297.788 89.9273L298.755 90.1685L299.156 88.5637C300.806 88.8759 302.047 88.75 302.568 87.2579C302.989 86.0563 302.548 85.3632 301.68 84.9109C302.312 84.7646 302.788 84.3487 302.915 83.4897H302.915ZM300.704 86.5899C300.429 87.6927 298.703 87.2364 297.914 87.0278C297.843 87.0091 297.78 86.9924 297.726 86.979L298.257 84.8489C298.323 84.8654 298.404 84.8835 298.495 84.9039L298.495 84.9039C299.311 85.0872 300.985 85.4627 300.704 86.5899H300.704ZM298.659 83.9155C299.318 84.0912 300.753 84.4742 301.003 83.4723C301.259 82.4474 299.863 82.1385 299.181 81.9876C299.105 81.9707 299.037 81.9557 298.982 81.942L298.5 83.8739C298.546 83.8852 298.599 83.8995 298.659 83.9155Z" fill="#F7931A"/>
<rect x="278" y="314" width="33.8629" height="33.863" rx="16.9314" fill="#613DE4" fill-opacity="0.15"/>
<path d="M307.863 330.931C307.863 338.073 302.073 343.863 294.932 343.863C287.79 343.863 282 338.073 282 330.931C282 323.79 287.79 318 294.932 318C302.073 318 307.863 323.79 307.863 330.931Z" fill="#1D2939"/>
<path d="M294.48 333.107L295.06 330.923L296.433 330.421L296.775 329.137L296.763 329.105L295.411 329.599L296.385 325.931H293.623L292.349 330.718L291.285 331.106L290.934 332.43L291.996 332.042L291.246 334.863H298.598L299.069 333.107H294.48Z" fill="#613DE4"/>
<rect x="61" y="451" width="34" height="34" rx="17" fill="#613DE4" fill-opacity="0.15"/>
<path d="M78 481C85.1797 481 91 475.18 91 468C91 460.82 85.1797 455 78 455C70.8203 455 65 460.82 65 468C65 475.18 70.8203 481 78 481Z" fill="#1D2939"/>
<path fill-rule="evenodd" clip-rule="evenodd" d="M77.3657 460.821C77.1282 460.82 76.8907 460.819 76.6535 460.827C76.6491 460.926 76.7361 460.941 76.8126 460.955L76.8188 460.957C76.7932 460.959 76.7418 460.963 76.7162 460.964C76.7765 461.089 76.843 461.21 76.9095 461.332L76.9095 461.332C76.9775 461.456 77.0454 461.58 77.1068 461.707C77.1496 461.78 77.1902 461.855 77.2307 461.93C77.2943 462.047 77.3579 462.164 77.4303 462.275C77.6164 462.638 77.812 462.996 78.0077 463.353L78.0077 463.353L78.0077 463.353C78.1731 463.656 78.3386 463.958 78.4982 464.264C78.9518 465.088 79.4007 465.916 79.8445 466.747C79.9835 466.982 80.1117 467.223 80.2357 467.466C80.2848 467.57 80.3433 467.669 80.4018 467.768L80.4018 467.768L80.4018 467.768C80.4825 467.904 80.5632 468.041 80.6191 468.19C80.6742 468.265 80.717 468.348 80.7597 468.431C80.7773 468.465 80.7949 468.499 80.8134 468.533C81.1251 469.096 81.4311 469.663 81.7371 470.229L81.7372 470.229L81.7374 470.229L81.7375 470.23C81.882 470.497 82.0265 470.764 82.1716 471.032C82.2545 471.173 82.3313 471.318 82.4082 471.463C82.4867 471.612 82.5653 471.76 82.6503 471.905C82.6735 471.944 82.6927 471.986 82.7119 472.028L82.712 472.028C82.7447 472.099 82.7774 472.171 82.8297 472.23C82.8518 472.255 82.8568 472.287 82.8618 472.319V472.319C82.8637 472.332 82.8656 472.344 82.8685 472.356C82.4957 472.35 82.123 472.352 81.7503 472.354H81.7503H81.7503L81.4842 472.356C81.3588 472.358 81.2682 472.257 81.2159 472.154C80.5184 470.857 79.8153 469.564 79.1121 468.27L79.112 468.27L79.1118 468.27C78.8291 467.75 78.5465 467.23 78.2642 466.71C78.2569 466.695 78.2499 466.68 78.2428 466.666L78.2428 466.666C78.2093 466.595 78.1748 466.522 78.1016 466.485C77.375 467.829 76.6459 469.172 75.9169 470.514C75.3837 471.496 74.8505 472.478 74.3182 473.46L74.4077 473.447L74.3991 473.451L74.3991 473.451C74.3645 473.468 74.3297 473.485 74.2955 473.504C74.355 473.52 74.4159 473.515 74.4768 473.509C74.516 473.505 74.5552 473.501 74.5941 473.503C74.8688 473.508 75.1434 473.508 75.418 473.507C75.5172 473.507 75.6163 473.507 75.7155 473.507C75.8249 473.497 75.8671 473.397 75.9076 473.302C75.9237 473.264 75.9396 473.227 75.9593 473.196C76.1517 472.853 76.3386 472.506 76.5254 472.16L76.5255 472.16C76.7186 471.801 76.9118 471.443 77.1111 471.088C77.2048 470.909 77.3014 470.732 77.3979 470.555L77.3979 470.555L77.398 470.555L77.398 470.555L77.398 470.555C77.4838 470.397 77.5697 470.24 77.6536 470.081C77.702 469.996 77.7476 469.908 77.7932 469.821C77.8686 469.678 77.944 469.534 78.0321 469.397C78.0501 469.366 78.0464 469.331 78.0427 469.296C78.0412 469.282 78.0397 469.268 78.0397 469.254C78.0718 469.256 78.1038 469.258 78.1361 469.26L78.1362 469.26L78.1362 469.26L78.1421 469.26C78.1247 469.282 78.1072 469.303 78.0898 469.325C78.4096 469.896 78.7203 470.471 79.031 471.047L79.0311 471.047L79.0311 471.047L79.0311 471.047C79.2387 471.431 79.4463 471.816 79.6566 472.199C79.8375 472.54 80.0192 472.88 80.2082 473.217C80.2238 473.243 80.2374 473.273 80.2514 473.305C80.2933 473.398 80.3385 473.499 80.4495 473.504C80.766 473.512 81.0824 473.51 81.3989 473.508C81.5496 473.507 81.7003 473.506 81.851 473.506L83.2149 473.506L84.5791 473.506C84.7107 473.503 84.8432 473.502 84.9742 473.522C84.9719 473.509 84.9699 473.496 84.9679 473.483C84.9616 473.441 84.9553 473.399 84.9371 473.361C82.7105 469.252 80.4813 465.146 78.2507 461.039C78.2399 461.021 78.2299 461 78.2196 460.979L78.2196 460.979C78.179 460.895 78.1345 460.803 78.0265 460.817C77.8063 460.823 77.586 460.822 77.3657 460.821ZM75.2295 473.494C74.9696 473.492 74.7098 473.49 74.4499 473.493C74.4653 473.461 74.4808 473.429 74.4966 473.397C74.6447 473.411 74.793 473.408 74.9415 473.405C75.0513 473.403 75.1611 473.401 75.2708 473.406C75.3149 473.408 75.3592 473.407 75.4036 473.406C75.5134 473.404 75.6235 473.402 75.7298 473.441L75.7251 473.443L75.7251 473.443C75.6594 473.471 75.5923 473.499 75.522 473.497C75.4245 473.496 75.327 473.495 75.2295 473.494ZM80.4773 473.422L80.49 473.504C81.3173 473.497 82.1448 473.498 82.9722 473.499H82.9722C83.5986 473.5 84.225 473.5 84.8513 473.497C84.8176 473.42 84.7554 473.4 84.6936 473.405C83.9623 473.405 83.2311 473.405 82.4998 473.405C82.2863 473.407 82.0728 473.406 81.8593 473.405C81.3986 473.404 80.9378 473.402 80.4773 473.422ZM76.5227 463.748L76.5637 463.706C76.6695 463.881 76.7666 464.061 76.8638 464.242L76.8639 464.242C76.9365 464.377 77.0092 464.511 77.0855 464.644C77.1093 464.69 77.1357 464.735 77.1621 464.78L77.1621 464.78C77.2144 464.869 77.2666 464.958 77.2995 465.056C77.2528 465.179 77.1929 465.299 77.1192 465.408C76.9902 465.659 76.8546 465.907 76.7189 466.154L76.7189 466.154C76.5629 466.439 76.4069 466.723 76.2611 467.013L76.2374 467.03L76.2192 467.043C76.2043 467.032 76.1902 467.019 76.1776 467.005C76.1687 467.024 76.1557 467.043 76.1426 467.062C76.1167 467.099 76.0904 467.137 76.0949 467.181C76.1309 467.214 76.151 467.163 76.165 467.127C76.1681 467.119 76.1708 467.112 76.1734 467.107C76.1795 467.069 76.2175 467.087 76.2413 467.098L76.2482 467.101L76.2012 467.116C76.0994 467.294 76.003 467.474 75.9066 467.655L75.9066 467.655C75.8117 467.833 75.7168 468.011 75.6168 468.186C75.4686 468.455 75.3234 468.725 75.1782 468.996L75.1782 468.996L75.1782 468.996C75.0085 469.312 74.8388 469.629 74.6642 469.943C74.6369 469.991 74.6109 470.039 74.585 470.088L74.585 470.088C74.534 470.184 74.483 470.279 74.4223 470.369C74.294 470.636 74.1508 470.894 74.0076 471.153L74.0075 471.153C73.8961 471.355 73.7846 471.556 73.6801 471.761C73.4572 472.159 73.2428 472.561 73.0284 472.962L73.0282 472.963C72.9595 473.091 72.8907 473.22 72.8217 473.349C72.8142 473.361 72.8071 473.375 72.7998 473.388C72.771 473.443 72.7395 473.502 72.6724 473.503C72.4698 473.513 72.2667 473.51 72.0637 473.507C71.7825 473.502 71.5014 473.498 71.2217 473.527L71.2338 473.518L71.2338 473.518C71.2655 473.494 71.2969 473.471 71.3283 473.447L71.2543 473.457C71.9222 472.226 72.5904 470.995 73.2586 469.764C74.347 467.758 75.4355 465.753 76.5227 463.748ZM71.3932 473.497C71.438 473.496 71.4827 473.495 71.5274 473.494C71.6829 473.496 71.8384 473.495 71.9939 473.495C72.2012 473.494 72.4085 473.494 72.6158 473.5L72.6189 473.414C72.4121 473.402 72.2051 473.403 71.9981 473.405H71.9981C71.8113 473.407 71.6245 473.409 71.438 473.4C71.4307 473.415 71.419 473.441 71.4086 473.464L71.3932 473.497Z" fill="#E7B64D"/>
<rect x="1044" y="313" width="34" height="34" rx="17" fill="#613DE4" fill-opacity="0.15"/>
<path d="M1061 343C1068.18 343 1074 337.18 1074 330C1074 322.82 1068.18 317 1061 317C1053.82 317 1048 322.82 1048 330C1048 337.18 1053.82 343 1061 343Z" fill="#1D2939"/>
<path fill-rule="evenodd" clip-rule="evenodd" d="M1059.85 322.294C1060.74 322.295 1061.63 322.293 1062.52 322.295C1062.31 323.216 1062.11 324.137 1061.92 325.058C1063 325.056 1064.09 325.058 1065.17 325.057C1064.98 325.829 1064.81 326.605 1064.62 327.378C1063.54 327.375 1062.46 327.382 1061.38 327.374C1061.06 328.809 1060.75 330.246 1060.44 331.681C1060.38 332.019 1060.31 332.405 1060.51 332.713C1060.68 332.988 1061.02 333.076 1061.32 333.073C1062.2 333.078 1063.07 333.071 1063.95 333.075C1063.76 333.866 1063.59 334.662 1063.4 335.455C1062.35 335.449 1061.29 335.462 1060.23 335.449C1059.4 335.413 1058.49 335.212 1057.94 334.534C1057.49 333.994 1057.47 333.237 1057.6 332.578C1057.98 330.844 1058.35 329.109 1058.73 327.375C1057.77 327.378 1056.81 327.377 1055.85 327.376C1056.02 326.603 1056.19 325.829 1056.37 325.057C1057.33 325.06 1058.29 325.053 1059.25 325.061C1059.45 324.139 1059.65 323.217 1059.85 322.294Z" fill="#2C58A7"/>
<path fill-rule="evenodd" clip-rule="evenodd" d="M1063.29 322.164C1063.43 322.469 1063.57 322.773 1063.72 323.074C1063.62 323.491 1063.53 323.909 1063.45 324.327C1063.23 324.33 1063.02 324.33 1062.81 324.331C1062.98 323.609 1063.11 322.882 1063.29 322.164Z" fill="#2C58A7"/>
<path fill-rule="evenodd" clip-rule="evenodd" d="M1065.93 324.925C1066.08 325.234 1066.23 325.545 1066.37 325.857C1066.14 326.816 1065.91 327.775 1065.7 328.736C1064.61 328.744 1063.53 328.736 1062.45 328.741C1062.19 329.949 1061.92 331.151 1061.67 332.359C1061.47 332.356 1061.26 332.334 1061.07 332.277C1061.34 330.883 1061.66 329.498 1061.96 328.109C1063.03 328.115 1064.11 328.106 1065.19 328.114C1065.44 327.052 1065.7 325.991 1065.93 324.925Z" fill="#2C58A7"/>
<path fill-rule="evenodd" clip-rule="evenodd" d="M1055.55 328.108C1056.31 328.114 1057.07 328.111 1057.83 328.112C1057.79 328.32 1057.74 328.53 1057.69 328.74C1057.25 328.73 1056.81 328.76 1056.37 328.729C1056.07 328.563 1055.83 328.317 1055.55 328.108Z" fill="#2C58A7"/>
<path fill-rule="evenodd" clip-rule="evenodd" d="M1063.98 336.191C1064.22 335.105 1064.49 334.028 1064.7 332.939C1064.85 333.249 1065.04 333.544 1065.13 333.879C1064.94 334.864 1064.68 335.834 1064.48 336.815C1063.18 336.813 1061.89 336.829 1060.6 336.801C1059.45 336.76 1058.23 336.309 1057.6 335.285C1057.99 335.563 1058.4 335.829 1058.87 335.959C1059.77 336.263 1060.74 336.154 1061.67 336.18C1062.44 336.208 1063.21 336.203 1063.98 336.191Z" fill="#2C58A7"/>
<rect x="1240" y="474" width="34" height="34" rx="17" fill="#613DE4" fill-opacity="0.15"/>
<path d="M1257 504C1264.18 504 1270 498.18 1270 491C1270 483.82 1264.18 478 1257 478C1249.82 478 1244 483.82 1244 491C1244 498.18 1249.82 504 1257 504Z" fill="#1D2939"/>
<path fill-rule="evenodd" clip-rule="evenodd" d="M1254.54 487.392C1254.06 488.218 1253.58 489.043 1253.1 489.869C1252.95 490.129 1252.79 490.389 1252.64 490.649C1252.39 491.074 1252.14 491.499 1251.9 491.928L1251.89 491.931C1251.62 492.411 1251.34 492.89 1251.06 493.369C1250.71 493.958 1250.37 494.548 1250.02 495.138C1250.6 494.625 1251.28 494.228 1252.01 494.01C1252.92 493.734 1253.9 493.716 1254.81 493.958C1255.69 494.189 1256.51 494.665 1257.17 495.321C1258.08 496.309 1259.37 496.908 1260.69 496.97C1261.91 497.04 1263.14 496.614 1264.12 495.873C1264 495.785 1263.88 495.71 1263.76 495.635C1263.66 495.572 1263.56 495.51 1263.47 495.44C1263.57 495.443 1263.67 495.429 1263.76 495.402C1263.72 495.401 1263.67 495.401 1263.62 495.401C1263.45 495.4 1263.28 495.4 1263.11 495.367C1262.61 495.279 1262.16 495.015 1261.78 494.689C1261.23 494.231 1260.8 493.654 1260.39 493.072C1260.34 493.075 1260.29 493.076 1260.25 493.045C1259.4 492.497 1258.55 491.951 1257.7 491.404C1257.11 491.024 1256.51 490.644 1255.92 490.263C1255.89 490.245 1255.87 490.228 1255.84 490.211C1255.77 490.171 1255.7 490.13 1255.65 490.075C1255.62 490.033 1255.64 489.987 1255.66 489.946C1255.67 489.936 1255.67 489.927 1255.68 489.917C1256 489.34 1256.34 488.766 1256.67 488.192C1256.8 487.968 1256.93 487.743 1257.06 487.518C1257.08 487.448 1257.14 487.52 1257.15 487.553C1257.65 488.422 1258.15 489.29 1258.66 490.154C1258.7 490.038 1258.78 489.95 1258.85 489.863C1258.88 489.834 1258.91 489.806 1258.93 489.777C1259.13 489.541 1259.32 489.307 1259.52 489.073C1259.74 488.816 1259.96 488.558 1260.17 488.298C1259.74 487.554 1259.31 486.81 1258.87 486.066C1258.6 485.608 1258.34 485.15 1258.07 484.692C1257.75 484.136 1257.42 483.581 1257.1 483.026C1256.24 484.481 1255.39 485.936 1254.54 487.392Z" fill="url(#paint0_linear_2187_27442)"/>
<path fill-rule="evenodd" clip-rule="evenodd" d="M1257.06 487.518C1257.08 487.448 1257.14 487.52 1257.15 487.553C1257.65 488.422 1258.15 489.29 1258.66 490.154C1259.15 490.975 1259.62 491.808 1260.1 492.632C1260.19 492.782 1260.29 492.93 1260.39 493.072C1260.34 493.075 1260.29 493.076 1260.25 493.045C1258.81 492.116 1257.36 491.191 1255.92 490.263C1255.83 490.202 1255.73 490.153 1255.65 490.075C1255.62 490.023 1255.66 489.965 1255.68 489.917C1256.13 489.114 1256.6 488.317 1257.06 487.518Z" fill="url(#paint1_linear_2187_27442)"/>
<path fill-rule="evenodd" clip-rule="evenodd" d="M1263.76 495.402C1264.19 495.349 1264.59 495.196 1264.99 495.055C1264.73 495.36 1264.44 495.634 1264.12 495.873C1263.91 495.712 1263.68 495.594 1263.47 495.44C1263.57 495.443 1263.67 495.429 1263.76 495.402Z" fill="#F56417"/>
<path fill-rule="evenodd" clip-rule="evenodd" d="M1258.93 489.777C1259.34 489.281 1259.76 488.795 1260.17 488.298C1260.7 489.193 1261.22 490.086 1261.74 490.983C1262.03 491.479 1262.31 491.984 1262.63 492.464C1263.01 493.047 1263.43 493.611 1263.9 494.127C1264.22 494.479 1264.58 494.815 1264.99 495.055C1264.59 495.196 1264.19 495.349 1263.76 495.402C1263.55 495.398 1263.33 495.409 1263.11 495.367C1262.61 495.279 1262.16 495.015 1261.78 494.689C1261.23 494.231 1260.8 493.654 1260.39 493.072C1260.29 492.93 1260.19 492.782 1260.1 492.632C1259.62 491.808 1259.15 490.975 1258.66 490.154C1258.71 490 1258.83 489.896 1258.93 489.777Z" fill="url(#paint2_linear_2187_27442)"/>
<defs>
<linearGradient id="paint0_linear_2187_27442" x1="1250.02" y1="483.026" x2="1250.02" y2="496.978" gradientUnits="userSpaceOnUse">
<stop stop-color="#CF351C"/>
<stop offset="1" stop-color="#F76617"/>
</linearGradient>
<linearGradient id="paint1_linear_2187_27442" x1="1256.18" y1="487.489" x2="1256.18" y2="491.793" gradientUnits="userSpaceOnUse">
<stop stop-color="#9F0F0C"/>
<stop offset="1" stop-color="#F76617"/>
</linearGradient>
<linearGradient id="paint2_linear_2187_27442" x1="1256.25" y1="492.254" x2="1261.96" y2="497.598" gradientUnits="userSpaceOnUse">
<stop stop-color="#E14B1A"/>
<stop offset="1" stop-color="#F67C3A"/>
</linearGradient>
</defs>
</svg>
