<svg width="506" height="429" viewBox="0 0 506 429" fill="none" xmlns="http://www.w3.org/2000/svg">
<path d="M160.207 186.082C161.175 184.617 162.143 183.172 163.151 181.747C163.822 180.791 164.671 179.342 165.767 178.82C167.615 177.924 169.587 180.448 170.586 181.64C173.81 185.505 177.261 189.178 180.65 192.929C181.054 193.382 182.48 194.929 181.64 195.54C181.476 195.654 181.275 195.687 181.094 195.721C176.895 196.437 172.369 196.184 168.135 196.16C165.838 196.142 163.562 196.105 161.267 196.047C158.871 196.005 156.418 196.461 154.038 195.961C153.879 195.936 153.721 195.89 153.625 195.767C152.933 194.985 155.782 192.265 156.22 191.7C157.224 190.376 158.247 189.072 159.174 187.685C159.491 187.157 159.849 186.629 160.207 186.082Z" fill="#3BB266"/>
<path d="M161.458 186.885C162.743 184.931 163.971 182.895 165.431 181.067C165.994 180.367 166.39 179.901 167.232 180.409C167.976 180.853 168.55 181.572 169.087 182.23C172.295 186.014 175.647 189.664 178.978 193.353C179.228 193.621 180.005 194.866 180.32 195.016C180.338 195.057 180.357 195.097 180.395 195.139C180.939 194.418 180.969 194.139 180.464 194.302C180.305 194.257 179.882 194.382 179.701 194.416C178.978 194.511 178.257 194.567 177.516 194.621C174.994 194.776 172.459 194.709 169.943 194.684C167.407 194.658 164.871 194.632 162.335 194.585C159.92 194.543 157.47 194.9 155.082 194.639C154.863 194.611 154.664 194.585 154.446 194.557C154.613 194.923 154.78 195.288 154.948 195.653C154.928 195.652 155.056 195.397 155.076 195.398C155.322 195.226 155.601 194.656 155.789 194.403C156.205 193.918 156.661 193.454 157.077 192.969C158.719 191.087 160.089 188.976 161.458 186.885C162.532 185.263 159.989 183.678 158.916 185.28C157.484 187.449 155.885 189.812 154.37 191.478C153.353 192.602 151.558 194.299 152.039 196.014C152.771 198.576 157.717 197.645 159.617 197.569C162.918 197.442 166.268 197.616 169.582 197.668C172.777 197.717 175.99 197.786 179.177 197.475C180.32 197.354 181.957 197.389 182.808 196.459C183.555 195.626 183.473 194.524 182.985 193.589C182.534 192.734 181.84 192.012 181.185 191.29C180.03 190.012 178.894 188.755 177.738 187.497C175.543 185.086 173.408 182.656 171.315 180.168C169.836 178.419 167.533 176.244 165.074 177.479C163.753 178.133 162.929 179.443 162.11 180.634C161.039 182.176 159.988 183.718 158.956 185.281C157.862 186.902 160.404 188.507 161.458 186.885Z" fill="white"/>
<path opacity="0.2" d="M164.539 144.399C163.731 152.302 164.34 160.254 163.612 168.16C163.457 169.772 164.947 171.201 166.504 171.254C168.2 171.312 169.444 169.976 169.598 168.363C170.326 160.457 169.717 152.506 170.525 144.602C170.679 142.99 169.17 141.56 167.633 141.508C165.917 141.449 164.693 142.786 164.539 144.399Z" fill="white"/>
<path opacity="0.2" d="M166.739 201.967C166.901 210.143 167.063 218.319 167.225 226.494C167.25 228.113 168.44 229.532 170.116 229.589C171.673 229.642 173.236 228.317 173.211 226.698C173.049 218.522 172.887 210.346 172.725 202.17C172.701 200.551 171.51 199.132 169.834 199.075C168.278 199.023 166.695 200.347 166.739 201.967Z" fill="white"/>
<path d="M124.882 186.881C125.85 185.415 126.818 183.97 127.826 182.546C128.497 181.59 129.345 180.14 130.442 179.618C132.29 178.722 134.262 181.246 135.26 182.439C138.485 186.304 141.936 189.977 145.325 193.728C145.729 194.181 147.155 195.727 146.315 196.338C146.151 196.452 145.95 196.486 145.769 196.519C141.57 197.236 137.044 196.982 132.81 196.958C130.513 196.94 128.237 196.903 125.942 196.845C123.546 196.804 121.093 197.26 118.713 196.759C118.554 196.734 118.396 196.689 118.3 196.566C117.608 195.783 120.457 193.063 120.895 192.498C121.899 191.174 122.922 189.871 123.848 188.484C124.166 187.955 124.523 187.428 124.882 186.881Z" fill="#3BB266"/>
<path d="M126.153 187.683C127.437 185.729 128.665 183.693 130.126 181.864C130.689 181.164 131.084 180.698 131.926 181.206C132.67 181.651 133.245 182.37 133.782 183.027C136.989 186.812 140.341 190.462 143.672 194.15C143.923 194.419 144.699 195.664 145.014 195.814C145.032 195.855 145.051 195.895 145.09 195.937C145.633 195.216 145.663 194.937 145.158 195.1C145 195.055 144.576 195.18 144.395 195.214C143.673 195.309 142.952 195.365 142.211 195.419C139.688 195.573 137.154 195.507 134.637 195.482C132.101 195.456 129.565 195.429 127.03 195.383C124.614 195.341 122.165 195.698 119.776 195.437C119.558 195.409 119.359 195.383 119.14 195.355C119.307 195.72 119.475 196.086 119.642 196.451C119.622 196.45 119.751 196.195 119.771 196.196C120.016 196.024 120.295 195.454 120.484 195.201C120.9 194.716 121.355 194.252 121.771 193.766C123.393 191.884 124.783 189.774 126.153 187.683C127.226 186.061 124.683 184.476 123.61 186.078C122.178 188.247 120.58 190.61 119.065 192.276C118.048 193.4 116.252 195.097 116.733 196.812C117.465 199.373 122.411 198.443 124.311 198.367C127.612 198.24 130.962 198.413 134.276 198.466C137.471 198.515 140.685 198.584 143.872 198.272C145.014 198.151 146.651 198.187 147.502 197.257C148.249 196.423 148.167 195.322 147.679 194.386C147.229 193.532 146.534 192.809 145.88 192.088C144.724 190.81 143.588 189.553 142.433 188.295C140.237 185.883 138.102 183.454 136.009 180.966C134.53 179.217 132.227 177.042 129.768 178.277C128.447 178.931 127.624 180.241 126.804 181.432C125.733 182.974 124.682 184.516 123.65 186.079C122.556 187.7 125.079 189.304 126.153 187.683Z" fill="white"/>
<path opacity="0.2" d="M127.988 147.153C127.788 154.238 127.507 161.32 127.267 168.404C127.212 170.02 128.542 171.443 130.158 171.498C131.774 171.553 133.198 170.223 133.253 168.607C133.493 161.523 133.774 154.441 133.974 147.356C134.029 145.74 132.699 144.317 131.083 144.262C129.467 144.207 128.023 145.536 127.988 147.153Z" fill="white"/>
<path opacity="0.2" d="M129.126 206.023C129.81 219.39 130.794 232.768 130.799 246.172C130.807 259.457 130.356 272.746 130.684 286.021C130.774 289.86 136.759 290.083 136.67 286.225C136.342 272.949 136.773 259.659 136.785 246.376C136.781 232.971 135.796 219.613 135.112 206.226C134.922 202.404 128.937 202.161 129.126 206.023Z" fill="white"/>
<path d="M110.335 186.986C109.366 188.452 108.398 189.897 107.391 191.321C106.719 192.277 105.871 193.727 104.775 194.249C102.926 195.145 100.955 192.621 99.9563 191.428C96.7315 187.563 93.2804 183.89 89.8919 180.139C89.4878 179.686 88.0621 178.139 88.9019 177.529C89.0655 177.414 89.2664 177.381 89.4474 177.347C93.6468 176.631 98.1728 176.885 102.407 176.909C104.704 176.927 106.98 176.964 109.275 177.022C111.671 177.063 114.123 176.607 116.504 177.108C116.663 177.133 116.821 177.178 116.917 177.301C117.609 178.084 114.76 180.804 114.321 181.368C113.318 182.693 112.294 183.996 111.368 185.383C111.051 185.912 110.693 186.439 110.335 186.986Z" fill="#EF4444"/>
<path d="M109.084 186.184C107.799 188.138 106.571 190.174 105.111 192.002C104.548 192.702 104.152 193.168 103.311 192.66C102.567 192.215 101.992 191.497 101.455 190.839C98.2471 187.055 94.8952 183.405 91.5645 179.716C91.3139 179.448 90.5372 178.203 90.2226 178.052C90.2041 178.012 90.1855 177.971 90.1469 177.93C89.6031 178.651 89.5736 178.929 90.0785 178.767C90.2368 178.812 90.6606 178.687 90.8415 178.653C91.5639 178.558 92.2849 178.502 93.0259 178.447C95.5482 178.293 98.083 178.359 100.599 178.385C103.135 178.411 105.671 178.437 108.207 178.483C110.623 178.525 113.072 178.169 115.46 178.43C115.679 178.457 115.878 178.484 116.097 178.512C115.929 178.146 115.762 177.781 115.594 177.416C115.614 177.416 115.486 177.672 115.466 177.671C115.22 177.843 114.941 178.412 114.753 178.666C114.337 179.151 113.882 179.615 113.466 180.1C111.824 181.982 110.453 184.113 109.084 186.184C108.01 187.806 110.553 189.39 111.626 187.789C113.058 185.62 114.657 183.257 116.172 181.591C117.189 180.466 118.984 178.769 118.503 177.055C117.771 174.493 112.825 175.424 110.925 175.499C107.625 175.627 104.274 175.453 100.96 175.401C97.7656 175.352 94.5517 175.283 91.3649 175.594C90.2221 175.715 88.5852 175.68 87.7346 176.61C86.9872 177.443 87.0696 178.545 87.5573 179.48C88.0077 180.334 88.7023 181.057 89.357 181.779C90.5122 183.056 91.6481 184.314 92.804 185.571C94.9994 187.983 97.1343 190.413 99.2272 192.901C100.706 194.649 103.009 196.825 105.468 195.59C106.789 194.936 107.613 193.625 108.432 192.435C109.503 190.893 110.555 189.35 111.587 187.787C112.68 186.166 110.137 184.582 109.084 186.184Z" fill="white"/>
<path opacity="0.2" d="M100.753 103.259C99.8965 107.884 100.241 112.45 100.202 117.124C100.153 122.096 100.065 127.047 100.036 132.02C99.9683 142.246 100.04 152.476 100.192 162.71C100.262 166.547 106.247 166.771 106.178 162.913C106.016 152.999 105.953 143.089 106.009 133.182C106.033 128.369 106.076 123.556 106.159 118.764C106.233 114.232 105.634 109.517 106.466 105.031C107.172 101.299 101.46 99.4872 100.753 103.259Z" fill="white"/>
<path opacity="0.2" d="M99.9459 201.736C99.6277 211.693 100.667 221.677 99.9898 231.622C99.7193 235.468 105.705 235.672 105.976 231.825C106.654 221.86 105.614 211.897 105.932 201.939C106.063 198.088 100.077 197.885 99.9459 201.736Z" fill="white"/>
<path opacity="0.2" d="M63.3884 202.932C65.0147 220.926 63.6 239.057 63.2482 257.063C62.8924 275.19 62.7561 293.324 62.5399 311.455C62.489 315.309 68.475 315.512 68.526 311.658C68.7421 293.527 68.8585 275.393 69.2343 257.267C69.586 239.26 71.0014 221.109 69.3744 203.135C69.0435 199.348 63.0396 199.085 63.3884 202.932Z" fill="white"/>
<path d="M60.3718 184.69C61.3405 183.224 62.3085 181.779 63.3157 180.355C63.9874 179.399 64.8357 177.949 65.9322 177.427C67.7805 176.531 69.7523 179.055 70.7506 180.248C73.9754 184.113 77.4265 187.786 80.815 191.537C81.2191 191.99 82.6448 193.537 81.805 194.147C81.6413 194.262 81.4405 194.295 81.2595 194.328C77.0601 195.045 72.5341 194.791 68.2999 194.767C66.0032 194.749 63.7271 194.712 61.4318 194.654C59.0361 194.613 56.5834 195.069 54.2032 194.568C54.0443 194.543 53.886 194.498 53.7903 194.375C53.0977 193.592 55.9469 190.872 56.3855 190.308C57.3894 188.983 58.4125 187.68 59.3385 186.293C59.6561 185.764 60.0136 185.237 60.3718 184.69Z" fill="#3BB266"/>
<path d="M61.6232 185.491C62.9081 183.537 64.1359 181.501 65.5963 179.673C66.1595 178.973 66.5549 178.507 67.3966 179.015C68.1406 179.46 68.7155 180.178 69.2525 180.836C72.4601 184.621 75.812 188.27 79.1427 191.959C79.3933 192.227 80.17 193.472 80.4845 193.623C80.5031 193.663 80.5218 193.704 80.5603 193.745C81.1042 193.025 81.1336 192.746 80.6287 192.909C80.4704 192.863 80.0466 192.989 79.8657 193.022C79.1433 193.118 78.4223 193.173 77.6813 193.228C75.159 193.382 72.6242 193.316 70.1081 193.29C67.572 193.264 65.0358 193.238 62.5004 193.192C60.0847 193.15 57.6354 193.506 55.2471 193.245C55.0283 193.218 54.8294 193.191 54.6106 193.164C54.778 193.529 54.9454 193.894 55.1128 194.259C55.0928 194.259 55.2214 194.003 55.2413 194.004C55.4869 193.833 55.7659 193.263 55.9543 193.01C56.3703 192.524 56.8255 192.06 57.2415 191.575C58.8836 189.693 60.2538 187.582 61.6232 185.491C62.6971 183.87 60.1539 182.285 59.0808 183.887C57.6487 186.055 56.0503 188.418 54.5354 190.085C53.5184 191.209 51.7228 192.906 52.204 194.62C52.936 197.182 57.8818 196.251 59.7821 196.176C63.0826 196.048 66.4327 196.222 69.7471 196.275C72.9416 196.323 76.1555 196.392 79.3423 196.081C80.4851 195.96 82.122 195.996 82.9726 195.066C83.72 194.232 83.6376 193.131 83.1499 192.195C82.6995 191.341 82.0049 190.618 81.3502 189.897C80.195 188.619 79.0591 187.362 77.9032 186.104C75.7078 183.692 73.5729 181.262 71.48 178.774C70.0011 177.026 67.6978 174.85 65.2387 176.085C63.918 176.739 63.0945 178.05 62.2749 179.241C61.2038 180.782 60.1526 182.325 59.1207 183.888C58.0268 185.509 60.5693 187.113 61.6232 185.491Z" fill="white"/>
<path d="M302.996 90.7205C306.658 92.8502 311.18 91.917 314.435 94.944C317.33 97.6361 318.885 101.429 321.051 104.659C325.334 111.013 332.094 115.32 339.178 118.239C349.036 122.307 359.936 124.03 370.489 122.547C381.042 121.063 391.224 116.301 398.678 108.691C406.515 100.699 411.073 89.9668 413.442 79.0311C416.876 63.154 415.751 45.6736 407.017 31.986C400.293 21.4332 389.321 13.7758 377.201 10.677C365.081 7.57815 351.932 8.97801 340.553 14.1467C320.429 23.2877 306.359 44.9916 307.328 67.0784C307.507 71.278 308.189 75.4776 307.842 79.6652C307.663 81.7949 307.184 83.9366 306.287 85.8868C305.318 88.0045 303.69 89.1532 302.386 90.9478" fill="#613DE4"/>
<path d="M302.087 92.2757C304.612 93.6637 307.363 93.8671 310.079 94.6328C312.963 95.4583 314.674 97.6239 316.205 100.089C317.844 102.721 319.244 105.437 321.195 107.854C322.989 110.079 325.107 112.005 327.38 113.728C337.431 121.302 350.987 125.011 363.466 124.879C375.753 124.748 387.957 120.536 397.29 112.46C406.538 104.456 411.982 92.9338 414.782 81.2085C417.606 69.3275 418.025 56.5852 414.639 44.7641C411.372 33.3498 404.385 23.5149 394.646 16.7309C374.222 2.50495 345.866 4.98164 326.95 20.6194C318.55 27.5709 312.113 36.8794 308.524 47.169C306.741 52.2899 305.7 57.6979 305.497 63.1179C305.258 69.6386 307.208 76.4944 305.449 82.8955C304.624 85.9106 302.649 87.6454 300.819 90.0503C299.419 91.8929 302.53 93.6756 303.918 91.857C304.743 90.7802 305.736 89.8469 306.574 88.7701C307.483 87.5856 308.117 86.2815 308.596 84.8696C309.637 81.8426 309.804 78.5523 309.673 75.3817C309.433 69.4951 308.68 63.7879 309.553 57.9133C311.049 47.7553 315.607 38.0878 322.259 30.2869C329.414 21.8997 338.819 15.7738 349.455 12.8305C360.977 9.64785 373.624 10.2102 384.583 15.1516C394.753 19.7341 403.212 27.5948 408.118 37.6451C413.263 48.186 414.304 60.39 412.856 71.9119C411.432 83.3023 407.615 95.0874 400.341 104.133C393.102 113.13 382.537 118.801 371.195 120.656C358.955 122.666 345.734 120.118 334.846 114.255C329.941 111.611 325.382 108.093 322.307 103.379C319.244 98.6888 317.055 93.0056 311.204 91.2588C308.763 90.5289 306.131 90.4452 303.858 89.2008C301.884 88.0522 300.065 91.1511 302.087 92.2757Z" fill="white"/>
<path d="M362.782 90.3232C362.86 90.2918 362.923 90.2448 363.001 90.1977C365.589 88.5979 364.57 83.7985 366.828 81.7595C369.275 79.548 371.769 78.356 373.635 75.4701C375.423 72.7253 376.521 69.5257 376.772 66.2476C377.478 56.884 371.722 49.4496 362.296 48.6654C358.735 48.3674 355.049 48.7752 351.85 50.375C347.427 52.5865 344.604 57.1193 343.757 61.9031C343.067 65.7457 343.992 69.3688 345.89 72.7253C347.835 76.1759 350.47 78.7167 350.375 82.9201C350.344 84.4258 349.811 87.1706 351.52 88.0176C351.96 88.2371 352.446 88.2999 352.916 88.3469C354.751 88.5508 356.571 88.692 358.327 89.2409C359.645 89.6644 361.386 90.9662 362.782 90.3232Z" fill="#FACC15"/>
<path d="M363.378 91.3426C366.75 89.5232 365.37 85.0845 367.66 82.5907C369.181 80.9439 371.283 79.893 372.851 78.2932C374.514 76.5993 375.706 74.4976 376.568 72.2861C379.439 65.0085 378.027 55.8802 371.612 50.9396C365.119 45.9363 354.297 46.0618 348.117 51.5199C344.964 54.3117 342.972 58.4368 342.471 62.5931C341.875 67.5337 343.851 71.8783 346.486 75.9092C348.007 78.2304 349.293 80.4263 349.183 83.2965C349.121 84.9904 348.838 86.951 350.046 88.3469C351.552 90.0722 354.689 89.6173 356.681 90.0565C358.829 90.527 360.821 92.1582 363.095 91.4681C364.538 91.0289 363.927 88.7547 362.468 89.1938C360.962 89.6487 358.814 88.1116 357.308 87.7822C355.692 87.4372 352.101 87.845 351.52 86.0726C351.113 84.8649 351.615 83.2338 351.52 81.9633C351.395 80.2694 350.846 78.701 350.046 77.211C348.038 73.4467 345.262 70.3412 344.776 65.9025C344.353 62.0285 345.717 57.8721 348.164 54.8607C353.01 48.9163 363.127 48.1007 369.401 52.2414C375.314 56.1625 376.819 63.9733 374.733 70.4353C373.965 72.8037 372.757 75.1093 370.953 76.8502C369.416 78.3402 367.471 79.4068 365.981 80.9282C364.962 81.9633 364.476 83.2495 364.146 84.661C363.786 86.1668 363.707 88.488 362.17 89.3193C360.853 90.0251 362.045 92.0484 363.378 91.3426Z" fill="white"/>
<path d="M331.883 44.1489C331.444 44.196 331.021 44.4156 330.738 44.7763C329.907 45.8428 330.88 46.8153 331.617 47.5681C332.683 48.666 333.907 50.2345 335.381 50.7521C335.993 50.9716 336.714 50.9716 337.279 50.6423C337.843 50.3129 338.22 49.6385 338.079 48.9954C337.891 48.1798 336.965 47.5681 336.369 47.0505C335.616 46.4075 334.816 45.7958 334.016 45.2155C333.703 44.9802 333.295 44.5881 332.919 44.494" fill="#FACC15"/>
<path d="M344.29 34.534C344.07 35.9613 343.804 37.5141 344.337 38.91C344.525 39.3805 344.807 39.8354 345.247 40.0706C345.874 40.4157 346.564 40.1334 346.972 39.6001C347.584 38.7845 347.756 37.5611 347.882 36.5887C348.07 35.1928 348.038 33.7812 347.803 32.3853C347.709 31.7736 347.521 31.1148 346.988 30.8011C345.937 30.1738 344.807 31.3501 344.604 32.3225C344.431 33.1538 344.509 32.8087 344.258 33.6243" fill="#FACC15"/>
<path d="M362.484 33.4834C362.672 34.5029 361.684 36.291 363.362 36.5105C364.789 36.6988 365.605 35.0205 365.966 33.8912C366.436 32.464 366.577 30.9112 366.624 29.4212C366.64 29.0761 366.624 28.7154 366.483 28.4017C366.185 27.743 365.291 27.6175 364.695 27.9155C364.13 28.1978 363.754 28.7781 363.534 29.3741C363.174 30.3779 363.127 31.4602 362.703 32.4483" fill="#FACC15"/>
<path d="M353.12 89.0999C353.058 91.1232 353.136 93.1621 353.324 95.1854C353.387 95.7971 353.826 96.3931 354.501 96.3618C355.097 96.3304 355.74 95.8442 355.677 95.1854C355.489 93.1621 355.426 91.1388 355.473 89.0999C355.489 88.4882 354.924 87.8922 354.297 87.9235C353.638 87.9549 353.136 88.4411 353.12 89.0999Z" fill="white"/>
<path d="M359.033 90.8732C359.002 90.6693 359.017 90.4811 359.111 90.3085C359.08 90.3556 359.049 90.4026 359.033 90.4497C358.97 90.5595 358.908 90.6536 358.845 90.7634C358.735 90.9516 358.641 91.1398 358.547 91.328C358.312 91.7986 358.092 92.2848 357.904 92.771C357.574 93.6179 357.323 94.4963 357.151 95.406C357.041 96.002 357.308 96.7078 357.966 96.8489C358.547 96.9744 359.3 96.6764 359.409 96.0333C359.504 95.5471 359.598 95.0766 359.739 94.6061C359.864 94.1512 360.005 93.6493 360.225 93.2258C360.084 93.5082 360.256 93.1474 360.288 93.0847C360.335 92.9749 360.382 92.8651 360.445 92.7553C360.554 92.5357 360.664 92.3161 360.774 92.1123C361.088 91.5476 361.574 90.9202 361.292 90.2458C361.166 89.9478 361.041 89.7125 360.758 89.54C360.507 89.3989 360.131 89.3361 359.849 89.4145C359.315 89.6027 358.782 90.2615 359.033 90.8732Z" fill="white"/>
<path d="M355.614 89.8851C355.567 90.7007 355.535 91.5163 355.551 92.3319C355.551 92.724 355.567 93.1004 355.567 93.4925C355.567 93.665 355.567 93.8532 355.551 94.0258C355.551 94.0885 355.535 94.1512 355.535 94.1983C355.535 94.1512 355.551 94.1042 355.551 94.0571C355.551 94.1669 355.504 94.2924 355.488 94.4022C355.347 94.9982 355.677 95.704 356.304 95.8452C356.916 95.9863 357.59 95.657 357.747 95.0296C357.951 94.1669 357.888 93.2886 357.888 92.4103C357.872 91.5633 357.904 90.7164 357.951 89.8694C357.982 89.2577 357.386 88.6617 356.775 88.6931C356.116 88.7401 355.645 89.2263 355.614 89.8851Z" fill="white"/>
<path d="M357.684 89.8371C357.653 89.9626 357.606 90.088 357.559 90.2135C357.449 90.4958 357.621 90.088 357.543 90.2449C357.512 90.3076 357.48 90.3704 357.464 90.4174C357.339 90.6684 357.198 90.9036 357.057 91.1546C356.727 91.7035 356.414 92.2368 356.178 92.8328C355.99 93.319 355.865 93.8052 355.708 94.3071C355.661 94.4483 355.629 94.5738 355.582 94.6992C355.567 94.7306 355.551 94.8561 355.52 94.8718C355.567 94.8404 355.598 94.6992 355.535 94.8404C355.473 94.9659 355.41 95.0913 355.347 95.2011C355.316 95.2482 355.284 95.2953 355.253 95.358C355.159 95.4992 355.425 95.1541 355.237 95.3737C354.829 95.8285 354.751 96.5971 355.237 97.0362C355.676 97.444 356.461 97.5224 356.9 97.0362C357.762 96.0638 357.982 94.8247 358.406 93.6327C358.453 93.5072 358.437 93.5543 358.39 93.6484C358.421 93.5856 358.437 93.5229 358.468 93.4759C358.531 93.3347 358.609 93.2092 358.672 93.0837C358.813 92.8171 358.97 92.5662 359.127 92.3152C359.472 91.7349 359.786 91.1389 359.974 90.4801C360.147 89.8841 359.77 89.1783 359.158 89.0372C358.5 88.8647 357.857 89.194 357.684 89.8371Z" fill="white"/>
<path d="M376.85 34.8638C376.333 35.7421 375.799 36.6361 375.282 37.5145C375.078 37.8595 374.858 38.2203 374.78 38.6124C374.702 39.0045 374.78 39.4593 375.078 39.7417C375.313 39.9612 375.658 40.024 375.972 40.024C376.897 39.9769 377.666 39.3182 378.293 38.6124C379.532 37.2165 380.52 35.5853 381.164 33.8443C381.352 33.3111 381.509 32.6523 381.132 32.2288C380.913 31.9779 380.552 31.8681 380.207 31.8681C379.407 31.8524 378.654 32.2916 378.105 32.8719C377.556 33.4522 377.195 34.1737 376.819 34.8952" fill="#FACC15"/>
<path d="M388.112 50.3605C386.967 50.5801 385.901 51.2388 385.101 52.1015C384.96 52.2583 384.818 52.4308 384.818 52.6347C384.818 52.9014 385.069 53.0896 385.305 53.1994C385.916 53.4817 386.638 53.4817 387.312 53.4033C388.661 53.2464 389.963 52.7759 391.186 52.1956C392.159 51.7407 393.115 51.2075 393.774 50.3605C394.025 50.0311 394.245 49.592 394.119 49.1999C394.025 48.9175 393.79 48.698 393.507 48.5882C393.225 48.4784 392.927 48.4784 392.629 48.5097C391.155 48.6666 389.979 49.7174 388.583 50.1252" fill="#FACC15"/>
<path d="M387.061 69.2443C385.916 69.2756 384.756 69.5266 383.752 70.0912C383.532 70.2167 383.329 70.3578 383.14 70.5147C382.811 70.7813 382.482 71.1734 382.56 71.5969C382.638 72.0047 383.046 72.2557 383.438 72.3968C384.285 72.6791 385.211 72.6948 386.089 72.5693C386.983 72.4596 387.846 72.24 388.724 72.0831C389.916 71.8792 391.155 71.7851 392.19 71.1578C392.378 71.0323 392.567 70.8911 392.708 70.7029C392.833 70.5147 392.912 70.2637 392.849 70.0442C392.755 69.7148 392.426 69.5266 392.112 69.3854C391.014 68.9149 389.712 68.7424 388.551 69.009C388.536 69.009 388.504 69.0247 388.489 69.0247C388.301 69.0717 388.097 69.1345 387.908 69.1658" fill="#FACC15"/>
<ellipse opacity="0.5" cx="360.331" cy="55.282" rx="9.57172" ry="4.78586" fill="white"/>
<path d="M199.442 161.109C201.105 175.191 202.194 189.549 207.817 202.758C210.222 208.393 213.536 213.801 218.286 217.761C223.18 221.853 229.246 224.234 235.527 225.156C246.248 226.711 257.817 224.438 267.066 218.766C276.087 213.227 282.572 204.313 284.57 193.868C285.755 187.694 286.102 181.365 286.365 175.095C286.628 168.886 286.736 162.664 286.724 156.455C286.724 154.145 283.135 154.145 283.135 156.455C283.147 166.696 283.087 177.07 281.938 187.252C281.352 192.516 280.335 197.697 277.834 202.423C275.621 206.622 272.51 210.284 268.777 213.227C260.988 219.365 250.71 222.284 240.875 222.045C235.025 221.901 229.09 220.513 224.029 217.486C218.98 214.471 215.319 209.829 212.651 204.66C205.747 191.284 204.754 175.801 203.031 161.121C202.756 158.847 199.167 158.812 199.442 161.109Z" fill="white"/>
<path d="M200.004 162.185C210.114 162.03 219.507 157.328 228.301 152.769C237.537 147.971 245.434 140.96 253.606 134.595C255.425 133.171 252.864 130.647 251.069 132.058C243.292 138.137 235.755 144.813 226.973 149.419C218.645 153.798 209.624 158.453 200.004 158.596C197.695 158.632 197.695 162.221 200.004 162.185Z" fill="white"/>
<path d="M250.986 134.583C256.155 139.274 261.18 144.035 267.114 147.745C272.786 151.286 278.888 154.086 284.966 156.862C287.047 157.819 288.878 154.72 286.772 153.763C280.85 151.059 274.915 148.331 269.364 144.921C263.501 141.308 258.584 136.641 253.511 132.035C251.823 130.503 249.275 133.028 250.986 134.583Z" fill="white"/>
<path d="M287.55 161.492C289.835 160.475 293.161 159.865 295.052 161.994C296.751 163.909 296.715 167.342 296.643 169.747C296.559 172.511 294.932 175.371 293.137 177.417C291.391 179.415 288.914 180.671 286.27 180.875C283.985 181.042 283.961 184.643 286.27 184.464C289.907 184.189 293.413 182.621 295.806 179.81C298.426 176.735 300.304 172.966 300.245 168.874C300.185 165.344 299.85 161.193 296.882 158.812C293.604 156.179 289.333 156.802 285.743 158.393C284.846 158.788 284.655 160.068 285.097 160.846C285.624 161.767 286.677 161.887 287.55 161.492Z" fill="white"/>
<path d="M202.074 161.169C199.526 158.453 195.123 158.201 192.072 160.235C188.829 162.389 187.214 166.313 187.202 170.118C187.19 174.186 188.961 178.075 191.952 180.803C195.015 183.578 199.167 185.935 203.319 186.318C205.616 186.534 205.604 182.932 203.319 182.729C200.387 182.466 197.3 180.599 195.063 178.769C192.73 176.866 191.103 174.258 190.827 171.219C190.576 168.551 191.294 165.655 193.304 163.789C195.027 162.198 197.839 161.922 199.514 163.705C201.117 165.404 203.654 162.856 202.074 161.169Z" fill="white"/>
<path d="M198.568 157.771C197.504 154.887 196.247 152.099 195.553 149.096C194.979 146.608 194.548 144.095 194.309 141.558C193.818 136.45 193.974 131.233 195.075 126.208C197.384 115.643 204.012 107.124 213.692 102.267C219.303 99.4549 225.537 98.1746 231.782 98.1387C234.091 98.1268 234.091 94.5374 231.782 94.5493C219.937 94.6211 208.056 99.1438 200.1 108.141C192.634 116.576 189.966 128.074 190.54 139.118C190.708 142.217 191.114 145.303 191.725 148.342C192.454 151.968 193.83 155.258 195.111 158.716C195.9 160.869 199.37 159.948 198.568 157.771Z" fill="white"/>
<path d="M233.733 97.6245C236.88 95.5666 240.134 92.8386 243.759 91.69C247.133 90.6132 250.926 90.7089 254.42 90.9961C260.988 91.5345 267.449 93.6881 272.989 97.2656C278.481 100.807 282.896 105.844 285.755 111.707C288.758 117.857 289.44 124.389 288.878 131.149C288.16 139.943 286.449 148.642 283.948 157.101C283.29 159.326 286.76 160.271 287.406 158.058C289.787 150.018 291.414 141.762 292.252 133.411C293.018 125.861 292.659 118.646 289.632 111.611C283.901 98.2945 271.051 89.5843 256.86 87.6819C252.697 87.1195 248.246 86.952 244.118 87.8853C239.584 88.9023 235.731 92.049 231.914 94.5376C229.988 95.7819 231.783 98.8928 233.733 97.6245Z" fill="white"/>
<path d="M222.869 90.7806C224.508 91.5464 225.98 92.5873 227.463 93.6043C229.055 94.6931 230.694 95.6503 232.524 96.3083C233.41 96.6194 234.523 95.9494 234.738 95.052C234.965 94.047 234.439 93.1855 233.482 92.8386C233.266 92.7668 233.051 92.683 232.836 92.5993C232.584 92.5036 233.087 92.7189 232.848 92.5993C232.74 92.5394 232.62 92.4916 232.501 92.4437C232.118 92.2643 231.747 92.0609 231.376 91.8575C230.61 91.4148 229.868 90.9242 229.15 90.4337C227.703 89.4406 226.267 88.4356 224.676 87.6938C223.826 87.2989 222.702 87.4305 222.223 88.3398C221.804 89.1176 221.96 90.3619 222.869 90.7806Z" fill="white"/>
<path d="M286.736 171.231C287.837 169.735 288.89 168.192 290.098 166.78C291.115 165.596 292.288 164.483 293.783 163.98C294.238 163.825 294.549 163.358 294.405 162.88C294.286 162.437 293.759 162.102 293.305 162.257C291.546 162.856 290.11 164.04 288.902 165.428C287.562 166.971 286.389 168.682 285.181 170.334C284.894 170.728 285.121 171.339 285.504 171.566C285.958 171.817 286.437 171.614 286.736 171.231Z" fill="white"/>
<path d="M202.469 170.489C201.069 167.594 198.234 165.428 195.063 164.866C194.584 164.782 194.094 164.997 193.962 165.488C193.843 165.919 194.106 166.505 194.584 166.589C197.36 167.091 199.693 168.85 200.914 171.387C201.129 171.817 201.751 171.937 202.146 171.71C202.589 171.458 202.673 170.932 202.469 170.489Z" fill="white"/>
<path d="M213.704 213.598C214.589 220.131 214.494 226.783 214.589 233.364C214.637 236.582 214.673 239.813 214.673 243.031C214.685 245.699 214.948 248.595 214.362 251.227C213.859 253.476 217.317 254.434 217.82 252.184C218.43 249.492 218.274 246.657 218.262 243.917C218.262 240.399 218.227 236.881 218.167 233.364C218.059 226.448 218.071 219.521 217.15 212.641C217.018 211.672 215.786 211.169 214.936 211.385C213.919 211.66 213.572 212.641 213.704 213.598Z" fill="white"/>
<path d="M273.683 210.727C273.623 217.678 273.599 224.618 273.958 231.557C274.125 234.943 274.376 238.329 274.688 241.715C274.951 244.503 274.819 247.853 276.865 250.03C278.444 251.717 280.981 249.181 279.402 247.494C278.588 246.621 278.624 245.149 278.504 244.036C278.349 242.493 278.205 240.949 278.074 239.406C277.81 236.223 277.607 233.029 277.463 229.822C277.188 223.457 277.212 217.104 277.272 210.739C277.296 208.417 273.706 208.405 273.683 210.727Z" fill="white"/>
<path d="M215.953 253.895C219.088 255.079 221.876 256.97 224.7 258.752C227.607 260.595 230.61 262.294 233.601 264.017C239.655 267.499 245.733 270.956 251.417 275.036C253.295 276.388 255.09 273.278 253.223 271.938C247.385 267.762 241.151 264.22 234.929 260.643C231.95 258.932 228.971 257.221 226.063 255.378C223.12 253.512 220.189 251.669 216.911 250.437C214.745 249.612 213.812 253.081 215.953 253.895Z" fill="white"/>
<path d="M254.216 275.204C262.759 267.475 271.433 259.865 279.617 251.753C281.256 250.126 278.72 247.589 277.081 249.217C268.897 257.329 260.222 264.938 251.68 272.667C249.969 274.223 252.505 276.759 254.216 275.204Z" fill="white"/>
<path d="M123.275 367.57C122.677 345.795 129.341 324.354 139.583 305.306C144.345 296.453 150.219 288.436 157.601 281.592C164.553 275.155 172.533 269.879 181.064 265.799C192.562 260.295 205.005 256.933 217.461 254.421C219.722 253.966 218.765 250.508 216.503 250.963C195.242 255.258 174.388 262.413 157.697 276.711C141.485 290.602 131.303 310.427 125.046 330.564C121.325 342.516 119.327 355.043 119.674 367.57C119.745 369.868 123.335 369.88 123.275 367.57Z" fill="white"/>
<path d="M278.564 250.904C289.009 251.813 299 255.414 308.213 260.308C317.282 265.118 326.124 271.016 333.948 277.668C341.474 284.082 347.768 291.847 352.53 300.509C357.746 309.997 360.606 320.239 362.221 330.899C364.183 343.893 366.564 357.293 365.057 370.442C364.793 372.728 368.383 372.716 368.646 370.442C370.058 358.167 367.868 345.951 366.241 333.819C364.734 322.632 362.257 311.828 357.196 301.67C352.625 292.505 346.368 284.129 338.83 277.19C335.037 273.696 330.874 270.621 326.674 267.63C322.235 264.471 317.677 261.48 312.939 258.788C302.326 252.77 290.792 248.367 278.576 247.29C276.267 247.111 276.279 250.7 278.564 250.904Z" fill="white"/>
<path d="M122.27 370.156C128.922 370.861 135.491 372.321 141.82 374.463C144.919 375.516 147.958 376.724 150.913 378.112C152.421 378.818 153.917 379.572 155.388 380.349C156.166 380.768 156.932 381.187 157.697 381.63C157.997 381.809 158.308 381.977 158.607 382.156C159.181 382.491 159.564 383.065 159.468 382.108C159.648 381.689 159.815 381.259 159.995 380.84C159.947 380.888 159.887 380.936 159.839 380.984C158.092 382.503 160.641 385.028 162.376 383.52C165.57 380.744 157.925 377.621 156.274 376.76C152.792 374.941 149.191 373.35 145.505 371.974C138.016 369.174 130.215 367.404 122.27 366.566C119.973 366.327 119.997 369.916 122.27 370.156Z" fill="white"/>
<path d="M339.488 373.649C343.496 371.938 347.828 370.885 352.171 370.55C354.265 370.394 356.37 370.382 358.464 370.526C359.589 370.61 360.714 370.729 361.838 370.909C362.317 370.992 362.795 371.076 363.274 371.172C363.585 371.232 363.908 371.303 364.219 371.375C364.841 371.626 364.865 371.495 364.303 371.004C364.363 370.538 364.423 370.083 364.482 369.616C364.447 369.688 364.411 369.772 364.375 369.844C363.358 371.914 366.457 373.732 367.474 371.65C368.969 368.611 365.152 367.846 363.035 367.487C360.163 366.996 357.256 366.769 354.348 366.841C348.581 366.984 342.97 368.276 337.682 370.538C336.784 370.921 336.605 372.225 337.036 372.99C337.562 373.936 338.591 374.031 339.488 373.649Z" fill="white"/>
<path d="M122.593 367.93C115.725 370.813 111.789 377.13 109.217 383.842C106.297 391.464 103.952 400.031 104.55 408.262C104.718 410.548 108.307 410.572 108.14 408.262C107.589 400.689 109.719 393.055 112.244 385.984C114.302 380.217 117.592 373.888 123.55 371.387C124.448 371.004 125.07 370.203 124.807 369.174C124.579 368.336 123.478 367.559 122.593 367.93Z" fill="white"/>
<path d="M364.04 372.022C370.776 375.42 375.956 381.354 379.498 387.935C383.051 394.515 385.097 402.125 384.116 409.627C383.985 410.596 385.038 411.409 385.911 411.421C386.988 411.433 387.574 410.584 387.706 409.627C388.771 401.539 386.425 393.211 382.597 386.128C378.78 379.057 373.097 372.584 365.846 368.935C363.788 367.882 361.97 370.981 364.04 372.022Z" fill="white"/>
<path d="M337.239 409.818C337.262 407.664 337.286 405.511 337.31 403.357C337.502 386.786 337.693 370.215 337.897 353.644C338.088 337.42 339.045 321.136 338.028 304.924C337.681 299.336 339.751 293.031 334.211 290.578C330.945 289.131 321.23 288.999 317.664 288.784C299.191 287.695 283.505 288.867 264.996 289.047C248.449 289.214 232.488 286.989 215.953 287.587C207.685 287.886 197.503 286.187 189.236 286.594C181.65 286.965 174.352 286.642 166.898 288.185C163.153 288.963 163.464 296.453 163.296 299.731C161.753 330.098 161.071 360.56 161.765 391.727L161.49 409.818L336.126 410.919" fill="white"/>
<path d="M339.033 409.818C339.225 393.654 339.416 377.501 339.596 361.337C339.787 345.017 340.625 328.662 340.158 312.342C340.05 308.812 339.691 305.283 339.811 301.765C339.895 299.217 340.17 296.537 339.428 294.048C337.861 288.772 332.525 288.03 327.799 287.575C314.614 286.331 301.249 286.391 288.028 286.726C280.251 286.917 272.474 287.204 264.697 287.264C256.705 287.324 248.736 286.845 240.756 286.391C232.787 285.936 224.819 285.541 216.838 285.769C209.6 285.984 202.433 285.087 195.218 284.811C191.677 284.68 188.147 284.871 184.606 284.967C180.609 285.075 176.601 285.122 172.617 285.541C170.834 285.721 169.052 285.972 167.293 286.295C166.072 286.522 164.996 286.881 164.11 287.791C162.483 289.478 162.052 291.978 161.801 294.216C161.55 296.429 161.562 298.678 161.454 300.904C161.251 304.972 161.059 309.028 160.892 313.096C160.557 321.052 160.281 329.009 160.09 336.965C159.504 360.512 160.102 384.046 159.743 407.581C159.731 408.322 159.719 409.076 159.707 409.818C159.695 410.787 160.545 411.601 161.502 411.613C167.293 411.649 173.084 411.685 178.863 411.72C192.765 411.804 206.668 411.9 220.571 411.984C237.394 412.091 254.204 412.199 271.026 412.295C285.563 412.39 300.112 412.474 314.649 412.57C321.697 412.618 328.804 412.917 335.839 412.702C335.935 412.702 336.042 412.702 336.138 412.702C338.447 412.713 338.447 409.124 336.138 409.112C330.347 409.076 324.556 409.04 318.777 409.004C304.874 408.921 290.971 408.825 277.068 408.741C260.246 408.634 243.436 408.526 226.613 408.43C212.076 408.334 197.527 408.251 182.99 408.155C178.205 408.119 173.407 408.095 168.621 408.059C166.395 408.047 164.014 407.784 161.801 408.011C161.705 408.023 161.598 408.011 161.502 408.011C162.1 408.61 162.698 409.208 163.297 409.806C163.38 404.015 163.476 398.236 163.56 392.445C163.644 386.475 163.368 380.481 163.32 374.51C163.273 366.662 163.297 358.825 163.404 350.976C163.608 335.53 164.122 320.083 164.852 304.649C164.984 301.957 165.079 299.253 165.199 296.561C165.283 294.694 165.295 292.158 166.431 290.578C167.041 289.729 168.118 289.753 169.087 289.585C171.002 289.262 172.94 289.059 174.878 288.915C178.683 288.64 182.512 288.616 186.329 288.496C189.822 288.389 193.28 288.281 196.774 288.461C200.303 288.64 203.833 288.951 207.362 289.178C214.709 289.633 222.067 289.178 229.425 289.43C237.178 289.693 244.919 290.279 252.672 290.614C260.366 290.949 268.047 290.853 275.74 290.65C290.158 290.279 304.479 289.98 318.897 290.65C323.455 290.853 328.421 290.674 332.824 292.002C337.873 293.522 336.09 300.222 336.198 304.146C336.413 311.947 336.748 319.7 336.64 327.501C336.533 335.422 336.258 343.354 336.126 351.275C335.875 366.865 335.755 382.443 335.576 398.033C335.528 401.957 335.48 405.894 335.432 409.818C335.42 412.127 339.009 412.139 339.033 409.818Z" fill="#4E31B6"/>
<path d="M253.259 339.825C257.65 340.638 261.73 343.091 263.68 347.147C267.473 355.044 261.203 362.641 253.295 363.61C248.7 364.173 242.909 363.455 239.236 360.428C236.484 358.154 235.479 355.02 235.994 351.574C236.783 346.226 240.277 341.512 245.637 340.076C248.03 339.43 250.686 339.346 253.259 339.825Z" fill="#613DE4" fill-opacity="0.15"/>
<path d="M252.78 341.548C257.518 342.481 262.017 345.436 262.902 350.497C263.68 354.948 260.665 358.908 256.8 360.751C252.661 362.725 246.774 362.414 242.682 360.464C240.505 359.423 238.614 357.772 237.944 355.379C237.31 353.106 237.789 350.569 238.71 348.439C241.115 342.78 246.906 340.543 252.78 341.548C255.042 341.931 256.011 338.473 253.737 338.09C246.989 336.941 240.158 338.916 236.472 344.97C233.182 350.366 232.991 357.748 238.267 361.935C247.288 369.09 265.905 365.836 266.599 352.448C266.982 344.946 260.593 339.442 253.737 338.09C251.476 337.647 250.507 341.105 252.78 341.548Z" fill="#613DE4"/>
<path d="M351.401 167.245C353.885 165.03 355.36 161.575 354.999 158.251C354.736 155.825 353.582 153.549 351.843 151.848C349.428 149.484 346.025 148.434 342.719 149.184C339.655 149.879 336.937 151.926 335.51 154.736C333.943 157.82 333.914 161.472 335.644 164.491C336.217 165.487 337.198 166.374 338.098 167.07C339.04 167.799 340.095 168.387 341.215 168.798C342.946 169.435 344.829 169.649 346.66 169.429C348.438 169.218 350.061 168.439 351.401 167.245Z" fill="#FACC15"/>
<path opacity="0.5" d="M350.057 165.236C352.023 163.471 353.149 161.038 352.863 158.39C352.655 156.458 351.882 154.696 350.506 153.34C348.596 151.458 345.722 150.577 343.106 151.174C340.683 151.728 338.532 153.359 337.403 155.597C336.164 158.054 336.344 160.923 337.713 163.328C338.165 164.122 338.738 164.868 339.45 165.422C340.196 166.003 341.031 166.472 341.917 166.799C343.286 167.307 344.232 167.431 345.681 167.256C347.087 167.088 348.997 166.187 350.057 165.236Z" fill="#FBFCFE"/>
<path d="M351.638 167.483C354.839 164.603 356.248 159.964 354.794 155.859C353.344 151.762 349.479 148.719 345.087 148.609C340.997 148.508 336.989 151.004 335.175 154.651C334.176 156.66 333.792 158.931 334.127 161.151C334.293 162.258 334.652 163.333 335.168 164.325C335.7 165.341 336.481 166.172 337.354 166.904C339.193 168.441 341.361 169.449 343.744 169.752C346.018 170.041 348.359 169.705 350.321 168.473C350.788 168.183 351.225 167.846 351.638 167.483C351.964 167.195 351.486 166.72 351.162 167.007C349.551 168.428 347.574 169.146 345.432 169.175C343.132 169.209 340.869 168.544 338.953 167.272C338.066 166.681 337.222 165.974 336.531 165.162C335.851 164.363 335.395 163.371 335.092 162.372C334.486 160.377 334.56 158.231 335.229 156.26C336.47 152.604 339.857 149.819 343.702 149.347C347.798 148.847 351.73 151.168 353.6 154.783C354.522 156.566 354.913 158.619 354.619 160.612C354.329 162.576 353.463 164.459 352.175 165.97C351.861 166.338 351.522 166.681 351.162 167.007C350.839 167.296 351.317 167.772 351.638 167.483Z" fill="#111112"/>
<path d="M346.061 167.398C349.273 166.77 352.282 164.188 352.96 160.918C353.31 159.228 353.106 157.426 352.453 155.832C351.795 154.225 350.635 152.908 349.138 152.03C346.072 150.232 342.045 150.371 339.289 152.694C338.03 153.754 337.098 155.206 336.634 156.782C336.106 158.571 336.264 160.467 336.984 162.18C338.263 165.223 341.199 167.517 344.57 167.537C345.071 167.542 345.569 167.488 346.061 167.398C346.274 167.36 346.184 167.034 345.971 167.073C342.701 167.672 339.525 165.966 337.857 163.163C336.928 161.601 336.454 159.738 336.726 157.924C336.957 156.366 337.671 154.883 338.723 153.713C339.895 152.409 341.484 151.532 343.215 151.233C344.817 150.957 346.503 151.191 347.993 151.826C349.488 152.463 350.794 153.52 351.631 154.923C352.48 156.346 352.873 158.061 352.781 159.713C352.689 161.383 352.029 162.9 350.936 164.159C349.91 165.342 348.579 166.269 347.093 166.774C346.727 166.9 346.352 166.996 345.973 167.07C345.758 167.115 345.847 167.441 346.061 167.398Z" fill="#111112"/>
<path d="M346.793 154.833C346.281 154.514 345.664 154.474 345.076 154.512C344.485 154.548 343.886 154.673 343.374 154.983C342.434 155.556 341.913 156.839 342.62 157.796C342.968 158.267 343.489 158.563 343.989 158.846C344.575 159.178 345.179 159.481 345.765 159.816C346.234 160.085 346.757 160.426 346.909 160.978C347.058 161.521 346.822 162.096 346.425 162.471C345.352 163.485 343.514 163.16 342.261 162.715C341.853 162.57 341.675 163.22 342.082 163.364C343.246 163.777 344.703 164.013 345.888 163.564C346.954 163.16 347.794 162.154 347.592 160.963C347.387 159.757 346.086 159.223 345.134 158.709C344.29 158.253 342.544 157.591 343.049 156.33C343.298 155.71 343.9 155.389 344.521 155.255C345.125 155.127 345.906 155.075 346.449 155.412C346.822 155.643 347.161 155.062 346.793 154.833Z" fill="#111112"/>
<path fill-rule="evenodd" clip-rule="evenodd" d="M344.895 153.228C345.081 153.228 345.231 153.379 345.231 153.565V154.799H344.558V153.565C344.558 153.379 344.709 153.228 344.895 153.228Z" fill="#111112"/>
<path fill-rule="evenodd" clip-rule="evenodd" d="M344.894 164.899C344.708 164.899 344.558 164.749 344.558 164.563L344.558 163.328L345.231 163.328L345.231 164.563C345.231 164.749 345.08 164.899 344.894 164.899Z" fill="#111112"/>
<path d="M88.2856 389.908C93.1786 385.545 96.0826 378.743 95.3709 372.196C94.8538 367.418 92.5819 362.936 89.1563 359.586C84.4003 354.932 77.6995 352.863 71.1887 354.339C65.1553 355.71 59.8026 359.741 56.9914 365.275C53.9062 371.348 53.8487 378.539 57.2566 384.484C58.3837 386.447 60.3153 388.193 62.0878 389.563C63.9442 390.999 66.0216 392.157 68.2273 392.966C71.6351 394.222 75.3436 394.642 78.9504 394.208C82.4511 393.793 85.6468 392.259 88.2856 389.908Z" fill="#FACC15"/>
<path opacity="0.5" d="M85.6396 385.951C89.5103 382.476 91.7277 377.685 91.1647 372.47C90.7557 368.664 89.2335 365.194 86.5237 362.525C82.7614 358.817 77.1012 357.082 71.9508 358.259C67.178 359.35 62.9437 362.561 60.7199 366.97C58.2793 371.808 58.6334 377.459 61.3292 382.194C62.2209 383.758 63.3493 385.227 64.7514 386.318C66.22 387.463 67.8634 388.385 69.6081 389.029C72.304 390.029 74.1673 390.275 77.0205 389.93C79.7898 389.599 83.5522 387.825 85.6396 385.951Z" fill="#FBFCFE"/>
<path d="M88.7537 390.376C95.0568 384.705 97.8326 375.569 94.9684 367.484C92.113 359.418 84.5016 353.424 75.8515 353.207C67.7981 353.009 59.9039 357.924 56.3324 365.106C54.3655 369.062 53.6097 373.535 54.2683 377.907C54.5954 380.086 55.3026 382.203 56.3192 384.157C57.3667 386.159 58.9049 387.795 60.6243 389.236C64.2444 392.263 68.5142 394.248 73.2083 394.845C77.6858 395.415 82.296 394.752 86.1591 392.325C87.0785 391.755 87.9404 391.092 88.7537 390.376C89.3946 389.81 88.4532 388.873 87.8167 389.439C84.6431 392.237 80.749 393.651 76.5322 393.709C72.0016 393.775 67.5462 392.467 63.7714 389.96C62.0255 388.798 60.3636 387.406 59.0022 385.806C57.6629 384.232 56.7656 382.278 56.1689 380.311C54.9755 376.382 55.1213 372.156 56.4385 368.276C58.8828 361.075 65.5527 355.59 73.1243 354.662C81.191 353.676 88.935 358.246 92.6169 365.367C94.4335 368.877 95.2026 372.921 94.6236 376.846C94.0534 380.714 92.3473 384.422 89.8101 387.397C89.1913 388.122 88.5239 388.798 87.8167 389.439C87.1802 390.009 88.1217 390.946 88.7537 390.376Z" fill="#111112"/>
<path d="M77.7698 390.208C84.0949 388.971 90.0223 383.887 91.3571 377.447C92.0466 374.119 91.6444 370.57 90.3582 367.432C89.0631 364.267 86.7779 361.672 83.8297 359.944C77.7919 356.403 69.8623 356.677 64.4344 361.252C61.9548 363.339 60.1204 366.198 59.2055 369.301C58.1667 372.824 58.4761 376.559 59.895 379.932C62.4144 385.925 68.1959 390.442 74.8349 390.482C75.8205 390.491 76.8018 390.385 77.7698 390.208C78.1897 390.133 78.0129 389.492 77.593 389.567C71.1529 390.747 64.8985 387.388 61.6144 381.868C59.7845 378.791 58.8519 375.122 59.3867 371.551C59.842 368.484 61.2475 365.562 63.3206 363.259C65.6278 360.691 68.7572 358.963 72.1651 358.375C75.3211 357.831 78.6405 358.291 81.5755 359.542C84.5193 360.797 87.0917 362.879 88.7404 365.641C90.4112 368.444 91.1847 371.821 91.0035 375.074C90.8223 378.362 89.5228 381.35 87.3702 383.83C85.3502 386.159 82.7291 387.985 79.803 388.979C79.0826 389.227 78.3444 389.417 77.5974 389.563C77.1731 389.651 77.3499 390.292 77.7698 390.208Z" fill="#111112"/>
<path d="M79.2116 365.465C78.2038 364.837 76.9883 364.757 75.8302 364.832C74.6677 364.903 73.4876 365.151 72.4798 365.761C70.6278 366.888 69.6023 369.416 70.9947 371.299C71.6798 372.227 72.7052 372.811 73.6909 373.368C74.8446 374.022 76.0336 374.619 77.1872 375.277C78.111 375.808 79.1409 376.479 79.4414 377.567C79.7332 378.636 79.269 379.768 78.4867 380.506C76.3739 382.504 72.7539 381.863 70.2874 380.988C69.483 380.701 69.1338 381.982 69.9338 382.265C72.2279 383.079 75.0965 383.543 77.4303 382.659C79.5298 381.863 81.1829 379.883 80.7851 377.536C80.3829 375.162 77.8193 374.11 75.9451 373.098C74.2832 372.201 70.8444 370.897 71.8389 368.413C72.3295 367.193 73.5141 366.561 74.7385 366.296C75.9275 366.044 77.4657 365.942 78.5353 366.605C79.269 367.06 79.9365 365.915 79.2116 365.465Z" fill="#111112"/>
<path fill-rule="evenodd" clip-rule="evenodd" d="M75.4736 362.305C75.8397 362.305 76.1366 362.602 76.1366 362.968V365.399H74.8105V362.968C74.8105 362.602 75.1074 362.305 75.4736 362.305Z" fill="#111112"/>
<path fill-rule="evenodd" clip-rule="evenodd" d="M75.4732 385.289C75.107 385.289 74.8102 384.992 74.8102 384.626L74.8102 382.195L76.1362 382.195L76.1362 384.626C76.1362 384.992 75.8394 385.289 75.4732 385.289Z" fill="#111112"/>
<path d="M181.603 117.531C184.957 114.541 186.947 109.878 186.459 105.392C186.105 102.117 184.548 99.0448 182.2 96.7484C178.94 93.5583 174.347 92.1405 169.885 93.1523C165.75 94.0915 162.081 96.8544 160.154 100.647C158.04 104.81 158 109.739 160.336 113.814C161.108 115.159 162.432 116.355 163.647 117.295C164.92 118.279 166.343 119.073 167.855 119.627C170.191 120.488 172.733 120.776 175.205 120.479C177.604 120.194 179.795 119.143 181.603 117.531Z" fill="#FACC15"/>
<path opacity="0.5" d="M179.79 114.819C182.443 112.437 183.963 109.154 183.577 105.579C183.296 102.971 182.253 100.592 180.396 98.763C177.817 96.2217 173.938 95.0326 170.408 95.8387C167.136 96.5868 164.234 98.7878 162.71 101.809C161.037 105.125 161.28 108.998 163.127 112.244C163.739 113.316 164.512 114.323 165.473 115.071C166.48 115.855 167.606 116.487 168.802 116.929C170.65 117.615 171.927 117.783 173.882 117.546C175.78 117.319 178.359 116.103 179.79 114.819Z" fill="#FBFCFE"/>
<path d="M181.924 117.851C186.244 113.964 188.147 107.702 186.184 102.161C184.227 96.6325 179.01 92.5245 173.081 92.3761C167.561 92.2397 162.151 95.6086 159.703 100.532C158.355 103.243 157.836 106.309 158.288 109.305C158.512 110.799 158.997 112.25 159.694 113.589C160.412 114.961 161.466 116.082 162.644 117.07C165.125 119.145 168.052 120.505 171.269 120.914C174.338 121.305 177.498 120.851 180.146 119.187C180.776 118.797 181.367 118.342 181.924 117.851C182.364 117.464 181.718 116.821 181.282 117.209C179.107 119.127 176.438 120.096 173.548 120.136C170.442 120.181 167.389 119.284 164.801 117.567C163.605 116.77 162.466 115.816 161.532 114.719C160.615 113.64 160 112.301 159.591 110.953C158.773 108.26 158.873 105.364 159.775 102.704C161.451 97.7686 166.022 94.009 171.212 93.3728C176.741 92.6972 182.048 95.8297 184.572 100.71C185.817 103.116 186.344 105.888 185.947 108.578C185.557 111.229 184.387 113.771 182.648 115.809C182.224 116.306 181.767 116.77 181.282 117.209C180.846 117.6 181.491 118.242 181.924 117.851Z" fill="#111112"/>
<path d="M174.396 117.736C178.731 116.888 182.794 113.404 183.709 108.99C184.181 106.709 183.905 104.276 183.024 102.125C182.136 99.9561 180.57 98.1778 178.549 96.9933C174.411 94.5666 168.976 94.7544 165.256 97.89C163.556 99.3199 162.299 101.28 161.672 103.407C160.96 105.821 161.172 108.381 162.144 110.693C163.871 114.801 167.834 117.897 172.384 117.924C173.06 117.93 173.732 117.858 174.396 117.736C174.684 117.685 174.562 117.246 174.275 117.297C169.861 118.106 165.574 115.804 163.323 112.02C162.069 109.911 161.429 107.397 161.796 104.949C162.108 102.846 163.071 100.844 164.492 99.2654C166.074 97.5053 168.219 96.3207 170.554 95.9178C172.717 95.5451 174.993 95.8602 177.004 96.7176C179.022 97.578 180.785 99.0049 181.915 100.898C183.06 102.819 183.59 105.134 183.466 107.363C183.342 109.617 182.451 111.665 180.976 113.365C179.591 114.961 177.795 116.213 175.789 116.894C175.296 117.064 174.79 117.194 174.278 117.294C173.987 117.355 174.108 117.794 174.396 117.736Z" fill="#111112"/>
<path d="M175.384 100.778C174.693 100.348 173.86 100.293 173.066 100.345C172.269 100.393 171.461 100.563 170.77 100.981C169.5 101.753 168.798 103.486 169.752 104.777C170.221 105.413 170.924 105.813 171.6 106.195C172.391 106.643 173.206 107.052 173.996 107.503C174.629 107.867 175.335 108.327 175.541 109.073C175.741 109.806 175.423 110.581 174.887 111.087C173.439 112.457 170.958 112.017 169.267 111.418C168.716 111.221 168.476 112.099 169.025 112.293C170.597 112.851 172.563 113.169 174.163 112.563C175.602 112.017 176.735 110.66 176.462 109.052C176.187 107.425 174.429 106.704 173.145 106.01C172.006 105.395 169.649 104.501 170.33 102.799C170.667 101.962 171.479 101.529 172.318 101.347C173.133 101.175 174.187 101.105 174.92 101.559C175.423 101.872 175.881 101.087 175.384 100.778Z" fill="#111112"/>
<path fill-rule="evenodd" clip-rule="evenodd" d="M172.822 98.6113C173.073 98.6113 173.276 98.8148 173.276 99.0658V100.732H172.367V99.0658C172.367 98.8148 172.571 98.6113 172.822 98.6113Z" fill="#111112"/>
<path fill-rule="evenodd" clip-rule="evenodd" d="M172.821 114.365C172.57 114.365 172.367 114.161 172.367 113.91L172.367 112.244L173.276 112.244L173.276 113.91C173.276 114.161 173.072 114.365 172.821 114.365Z" fill="#111112"/>
<path d="M474.96 221.433C477.491 219.177 478.993 215.658 478.625 212.272C478.357 209.801 477.182 207.482 475.41 205.749C472.95 203.342 469.484 202.272 466.117 203.036C462.996 203.744 460.227 205.829 458.773 208.692C457.177 211.833 457.148 215.553 458.91 218.628C459.493 219.643 460.492 220.546 461.409 221.255C462.369 221.998 463.444 222.597 464.585 223.015C466.348 223.664 468.266 223.882 470.131 223.658C471.942 223.443 473.595 222.649 474.96 221.433Z" fill="#FACC15"/>
<path opacity="0.5" d="M473.591 219.387C475.594 217.589 476.74 215.111 476.449 212.414C476.238 210.445 475.45 208.65 474.049 207.27C472.103 205.352 469.175 204.455 466.511 205.063C464.042 205.628 461.852 207.289 460.702 209.569C459.44 212.071 459.623 214.994 461.017 217.444C461.478 218.252 462.062 219.012 462.787 219.577C463.547 220.169 464.397 220.646 465.299 220.979C466.694 221.496 467.657 221.623 469.133 221.445C470.566 221.273 472.512 220.356 473.591 219.387Z" fill="#FBFCFE"/>
<path d="M475.202 221.675C478.462 218.742 479.898 214.016 478.417 209.835C476.94 205.662 473.003 202.562 468.529 202.45C464.363 202.347 460.28 204.89 458.433 208.605C457.415 210.651 457.024 212.965 457.365 215.226C457.534 216.353 457.9 217.448 458.426 218.459C458.968 219.494 459.763 220.34 460.653 221.085C462.525 222.652 464.734 223.678 467.162 223.987C469.477 224.282 471.862 223.939 473.86 222.684C474.336 222.389 474.782 222.046 475.202 221.675C475.534 221.383 475.047 220.898 474.718 221.191C473.076 222.638 471.062 223.369 468.881 223.399C466.537 223.433 464.233 222.757 462.28 221.46C461.377 220.859 460.518 220.139 459.814 219.311C459.121 218.497 458.657 217.487 458.348 216.47C457.731 214.437 457.806 212.251 458.488 210.244C459.752 206.52 463.202 203.683 467.118 203.202C471.29 202.693 475.296 205.057 477.2 208.74C478.14 210.555 478.538 212.647 478.238 214.677C477.943 216.678 477.061 218.596 475.749 220.134C475.429 220.509 475.083 220.859 474.718 221.191C474.388 221.486 474.875 221.97 475.202 221.675Z" fill="#111112"/>
<path d="M469.521 221.588C472.793 220.948 475.859 218.319 476.549 214.988C476.906 213.266 476.698 211.43 476.032 209.807C475.363 208.17 474.181 206.828 472.656 205.934C469.533 204.103 465.431 204.245 462.624 206.611C461.341 207.69 460.392 209.169 459.919 210.774C459.382 212.596 459.542 214.528 460.276 216.273C461.579 219.373 464.569 221.709 468.003 221.73C468.513 221.735 469.021 221.68 469.521 221.588C469.738 221.549 469.647 221.218 469.43 221.257C466.099 221.867 462.864 220.13 461.165 217.274C460.218 215.683 459.736 213.785 460.013 211.938C460.248 210.351 460.975 208.84 462.047 207.649C463.241 206.321 464.86 205.427 466.622 205.123C468.255 204.841 469.972 205.079 471.49 205.726C473.012 206.376 474.343 207.452 475.196 208.881C476.06 210.331 476.46 212.077 476.366 213.76C476.273 215.461 475.6 217.007 474.487 218.289C473.442 219.494 472.086 220.438 470.573 220.953C470.2 221.081 469.818 221.179 469.432 221.254C469.213 221.3 469.304 221.632 469.521 221.588Z" fill="#111112"/>
<path d="M470.266 208.79C469.745 208.466 469.116 208.424 468.517 208.463C467.916 208.5 467.305 208.628 466.784 208.943C465.826 209.526 465.296 210.834 466.016 211.808C466.37 212.288 466.901 212.59 467.41 212.878C468.007 213.216 468.622 213.525 469.219 213.866C469.697 214.14 470.229 214.488 470.385 215.05C470.536 215.603 470.296 216.189 469.891 216.57C468.798 217.604 466.926 217.272 465.65 216.82C465.234 216.671 465.053 217.334 465.467 217.48C466.654 217.901 468.137 218.141 469.345 217.684C470.431 217.272 471.286 216.248 471.08 215.034C470.872 213.806 469.546 213.262 468.576 212.739C467.717 212.274 465.938 211.6 466.453 210.315C466.706 209.684 467.319 209.357 467.952 209.22C468.567 209.09 469.363 209.037 469.916 209.38C470.296 209.616 470.641 209.023 470.266 208.79Z" fill="#111112"/>
<path fill-rule="evenodd" clip-rule="evenodd" d="M468.333 207.155C468.523 207.155 468.676 207.309 468.676 207.498V208.756H467.99V207.498C467.99 207.309 468.144 207.155 468.333 207.155Z" fill="#111112"/>
<path fill-rule="evenodd" clip-rule="evenodd" d="M468.333 219.044C468.143 219.044 467.99 218.89 467.99 218.701L467.99 217.444L468.676 217.444L468.676 218.701C468.676 218.89 468.522 219.044 468.333 219.044Z" fill="#111112"/>
<path d="M412.744 402.1C415.274 399.843 416.776 396.325 416.408 392.939C416.141 390.467 414.966 388.149 413.194 386.416C410.734 384.009 407.268 382.939 403.9 383.702C400.78 384.411 398.011 386.496 396.557 389.358C394.961 392.5 394.931 396.219 396.694 399.294C397.277 400.309 398.276 401.213 399.193 401.921C400.153 402.664 401.228 403.263 402.369 403.682C404.131 404.331 406.049 404.548 407.915 404.324C409.726 404.109 411.379 403.316 412.744 402.1Z" fill="#FACC15"/>
<path opacity="0.5" d="M411.375 400.053C413.377 398.255 414.524 395.777 414.233 393.08C414.021 391.111 413.234 389.316 411.832 387.936C409.886 386.018 406.959 385.121 404.295 385.729C401.826 386.294 399.636 387.955 398.486 390.235C397.223 392.737 397.406 395.66 398.801 398.11C399.262 398.918 399.846 399.678 400.571 400.243C401.33 400.835 402.181 401.312 403.083 401.645C404.477 402.162 405.441 402.289 406.917 402.111C408.349 401.939 410.295 401.022 411.375 400.053Z" fill="#FBFCFE"/>
<path d="M412.986 402.342C416.246 399.409 417.682 394.683 416.2 390.501C414.723 386.329 410.787 383.229 406.312 383.117C402.147 383.014 398.064 385.556 396.216 389.271C395.199 391.318 394.808 393.631 395.149 395.892C395.318 397.019 395.684 398.115 396.209 399.125C396.751 400.161 397.547 401.007 398.436 401.752C400.309 403.318 402.517 404.345 404.945 404.653C407.261 404.948 409.646 404.605 411.644 403.35C412.119 403.055 412.565 402.712 412.986 402.342C413.317 402.049 412.83 401.565 412.501 401.857C410.86 403.304 408.846 404.036 406.664 404.066C404.321 404.1 402.017 403.423 400.064 402.127C399.161 401.526 398.301 400.805 397.597 399.978C396.904 399.164 396.44 398.153 396.132 397.136C395.514 395.104 395.59 392.918 396.271 390.911C397.535 387.186 400.985 384.349 404.902 383.869C409.074 383.359 413.08 385.723 414.984 389.406C415.924 391.222 416.322 393.313 416.022 395.344C415.727 397.344 414.845 399.262 413.532 400.801C413.212 401.176 412.867 401.526 412.501 401.857C412.172 402.152 412.659 402.637 412.986 402.342Z" fill="#111112"/>
<path d="M407.305 402.255C410.577 401.615 413.642 398.985 414.333 395.654C414.69 393.933 414.481 392.097 413.816 390.474C413.146 388.837 411.964 387.495 410.439 386.601C407.316 384.77 403.215 384.911 400.407 387.278C399.125 388.357 398.176 389.836 397.703 391.441C397.165 393.263 397.325 395.195 398.059 396.939C399.362 400.039 402.353 402.376 405.787 402.396C406.297 402.401 406.804 402.346 407.305 402.255C407.522 402.216 407.431 401.884 407.213 401.923C403.882 402.534 400.647 400.796 398.949 397.941C398.002 396.349 397.52 394.452 397.796 392.604C398.032 391.018 398.759 389.507 399.831 388.315C401.025 386.987 402.643 386.093 404.406 385.789C406.038 385.508 407.755 385.746 409.273 386.393C410.796 387.042 412.127 388.119 412.979 389.548C413.844 390.997 414.244 392.744 414.15 394.427C414.056 396.128 413.384 397.673 412.271 398.956C411.226 400.161 409.87 401.105 408.357 401.619C407.984 401.747 407.602 401.846 407.216 401.921C406.996 401.967 407.088 402.298 407.305 402.255Z" fill="#111112"/>
<path d="M408.05 389.457C407.528 389.132 406.9 389.091 406.301 389.13C405.699 389.166 405.089 389.294 404.568 389.61C403.61 390.193 403.079 391.501 403.8 392.475C404.154 392.955 404.684 393.256 405.194 393.545C405.791 393.883 406.406 394.192 407.003 394.532C407.48 394.807 408.013 395.154 408.169 395.716C408.319 396.27 408.079 396.855 407.675 397.237C406.582 398.27 404.709 397.939 403.434 397.486C403.018 397.337 402.837 398 403.251 398.147C404.437 398.567 405.921 398.807 407.128 398.35C408.214 397.939 409.069 396.914 408.864 395.7C408.656 394.473 407.33 393.929 406.36 393.405C405.501 392.941 403.722 392.267 404.236 390.982C404.49 390.351 405.103 390.024 405.736 389.887C406.351 389.756 407.147 389.704 407.7 390.047C408.079 390.282 408.425 389.69 408.05 389.457Z" fill="#111112"/>
<path fill-rule="evenodd" clip-rule="evenodd" d="M406.117 387.822C406.306 387.822 406.46 387.975 406.46 388.165V389.422H405.774V388.165C405.774 387.975 405.927 387.822 406.117 387.822Z" fill="#111112"/>
<path fill-rule="evenodd" clip-rule="evenodd" d="M406.117 399.709C405.927 399.709 405.774 399.556 405.774 399.367L405.774 398.109L406.459 398.109L406.459 399.367C406.459 399.556 406.306 399.709 406.117 399.709Z" fill="#111112"/>
<path d="M361.743 301.389C362.97 300.295 363.698 298.589 363.52 296.947C363.39 295.748 362.82 294.624 361.961 293.784C360.768 292.616 359.087 292.097 357.454 292.468C355.941 292.811 354.598 293.822 353.893 295.21C353.119 296.734 353.105 298.538 353.96 300.029C354.242 300.521 354.727 300.959 355.171 301.303C355.637 301.663 356.158 301.953 356.711 302.156C357.566 302.471 358.496 302.577 359.401 302.468C360.279 302.364 361.081 301.979 361.743 301.389Z" fill="#FACC15"/>
<path opacity="0.5" d="M361.079 300.398C362.049 299.526 362.606 298.324 362.464 297.016C362.362 296.061 361.98 295.191 361.3 294.521C360.357 293.591 358.937 293.156 357.645 293.451C356.448 293.725 355.386 294.531 354.828 295.636C354.216 296.85 354.305 298.267 354.981 299.455C355.204 299.847 355.487 300.216 355.839 300.49C356.208 300.777 356.62 301.008 357.057 301.17C357.734 301.42 358.201 301.482 358.917 301.395C359.611 301.312 360.555 300.867 361.079 300.398Z" fill="#FBFCFE"/>
<path d="M361.86 301.507C363.441 300.084 364.137 297.792 363.419 295.765C362.703 293.741 360.794 292.238 358.624 292.184C356.604 292.134 354.624 293.367 353.728 295.168C353.235 296.16 353.045 297.282 353.21 298.379C353.292 298.926 353.47 299.457 353.725 299.947C353.987 300.449 354.373 300.859 354.804 301.221C355.713 301.98 356.784 302.478 357.961 302.627C359.084 302.77 360.24 302.604 361.209 301.995C361.44 301.852 361.656 301.686 361.86 301.507C362.021 301.365 361.785 301.13 361.625 301.272C360.829 301.973 359.852 302.328 358.795 302.343C357.658 302.359 356.541 302.031 355.594 301.402C355.156 301.111 354.739 300.762 354.398 300.36C354.062 299.965 353.837 299.475 353.687 298.982C353.388 297.996 353.424 296.937 353.755 295.963C354.368 294.157 356.041 292.781 357.94 292.548C359.963 292.301 361.906 293.447 362.829 295.234C363.285 296.114 363.478 297.128 363.333 298.113C363.19 299.083 362.762 300.013 362.125 300.759C361.97 300.941 361.803 301.111 361.625 301.272C361.465 301.415 361.702 301.65 361.86 301.507Z" fill="#111112"/>
<path d="M359.105 301.464C360.691 301.154 362.178 299.879 362.513 298.264C362.686 297.429 362.585 296.538 362.262 295.751C361.937 294.957 361.364 294.307 360.625 293.873C359.11 292.985 357.121 293.054 355.76 294.201C355.138 294.725 354.678 295.442 354.448 296.22C354.188 297.104 354.265 298.041 354.621 298.887C355.253 300.39 356.703 301.523 358.368 301.533C358.616 301.535 358.862 301.509 359.105 301.464C359.21 301.445 359.166 301.285 359.06 301.304C357.445 301.6 355.876 300.757 355.052 299.372C354.593 298.601 354.359 297.68 354.494 296.785C354.608 296.015 354.96 295.282 355.48 294.705C356.059 294.06 356.844 293.627 357.699 293.48C358.49 293.343 359.323 293.458 360.059 293.772C360.798 294.087 361.443 294.609 361.856 295.302C362.275 296.005 362.469 296.852 362.424 297.668C362.379 298.493 362.053 299.242 361.513 299.864C361.006 300.449 360.349 300.907 359.615 301.156C359.434 301.218 359.249 301.266 359.061 301.302C358.955 301.325 358.999 301.485 359.105 301.464Z" fill="#111112"/>
<path d="M359.467 295.258C359.214 295.101 358.909 295.081 358.618 295.1C358.327 295.117 358.031 295.179 357.778 295.332C357.314 295.615 357.056 296.249 357.406 296.722C357.577 296.954 357.835 297.101 358.082 297.24C358.371 297.405 358.669 297.554 358.959 297.719C359.191 297.852 359.449 298.021 359.524 298.294C359.597 298.562 359.481 298.846 359.285 299.031C358.755 299.532 357.847 299.371 357.228 299.152C357.026 299.08 356.939 299.401 357.139 299.472C357.715 299.676 358.434 299.793 359.02 299.571C359.546 299.371 359.961 298.875 359.861 298.286C359.76 297.691 359.117 297.427 358.647 297.173C358.23 296.948 357.368 296.621 357.617 295.998C357.74 295.692 358.038 295.533 358.345 295.467C358.643 295.403 359.029 295.378 359.297 295.544C359.481 295.658 359.648 295.371 359.467 295.258Z" fill="#111112"/>
<path fill-rule="evenodd" clip-rule="evenodd" d="M358.53 294.465C358.621 294.465 358.696 294.54 358.696 294.632V295.241H358.363V294.632C358.363 294.54 358.438 294.465 358.53 294.465Z" fill="#111112"/>
<path fill-rule="evenodd" clip-rule="evenodd" d="M358.529 300.23C358.437 300.23 358.362 300.156 358.362 300.064L358.362 299.454L358.695 299.454L358.695 300.064C358.695 300.156 358.62 300.23 358.529 300.23Z" fill="#111112"/>
<path d="M295.29 56.6167C296.425 55.6049 297.099 54.0272 296.933 52.5089C296.814 51.4007 296.287 50.3613 295.492 49.5842C294.389 48.5047 292.835 48.0249 291.325 48.3673C289.926 48.6851 288.684 49.6201 288.032 50.9036C287.317 52.3121 287.303 53.98 288.094 55.3588C288.355 55.814 288.803 56.2189 289.214 56.5367C289.645 56.8699 290.127 57.1385 290.638 57.3261C291.428 57.6172 292.289 57.7146 293.125 57.6142C293.937 57.5178 294.678 57.1621 295.29 56.6167Z" fill="#FACC15"/>
<path opacity="0.5" d="M294.677 55.6992C295.574 54.8932 296.089 53.782 295.958 52.5725C295.863 51.6897 295.51 50.885 294.882 50.266C294.009 49.406 292.696 49.0037 291.502 49.2764C290.395 49.5296 289.413 50.2744 288.897 51.2968C288.331 52.4189 288.413 53.7295 289.038 54.8279C289.245 55.1905 289.507 55.5311 289.832 55.7843C290.173 56.0497 290.554 56.2637 290.959 56.4131C291.584 56.645 292.016 56.7019 292.678 56.6219C293.32 56.5451 294.193 56.1337 294.677 55.6992Z" fill="#FBFCFE"/>
<path d="M295.399 56.7248C296.861 55.4096 297.504 53.2906 296.84 51.4156C296.178 49.5447 294.413 48.1546 292.406 48.1044C290.539 48.0582 288.708 49.1982 287.879 50.8641C287.423 51.7816 287.248 52.819 287.401 53.8329C287.476 54.3383 287.641 54.8293 287.876 55.2824C288.119 55.7468 288.476 56.1261 288.875 56.4603C289.714 57.1626 290.705 57.6228 291.793 57.7612C292.832 57.8935 293.901 57.7397 294.797 57.1769C295.01 57.0447 295.21 56.8909 295.399 56.7248C295.547 56.5936 295.329 56.3763 295.181 56.5075C294.445 57.1564 293.542 57.4845 292.564 57.4978C291.514 57.5132 290.48 57.2097 289.605 56.6285C289.2 56.3588 288.814 56.0359 288.499 55.6648C288.188 55.2999 287.98 54.8468 287.841 54.3906C287.565 53.4792 287.598 52.4992 287.904 51.5991C288.471 49.9291 290.018 48.6569 291.774 48.4417C293.645 48.213 295.441 49.273 296.295 50.9246C296.716 51.7385 296.894 52.6765 296.76 53.5869C296.628 54.4839 296.232 55.344 295.644 56.0339C295.5 56.202 295.346 56.3588 295.181 56.5075C295.034 56.6397 295.252 56.8571 295.399 56.7248Z" fill="white"/>
<path d="M292.851 56.6859C294.318 56.3989 295.693 55.22 296.002 53.7263C296.162 52.9544 296.069 52.1312 295.771 51.4034C295.47 50.6694 294.94 50.0676 294.256 49.6668C292.856 48.8456 291.017 48.9092 289.758 49.9702C289.183 50.4541 288.758 51.1173 288.545 51.837C288.304 52.654 288.376 53.5203 288.705 54.3025C289.29 55.6926 290.631 56.7403 292.17 56.7495C292.399 56.7515 292.626 56.7269 292.851 56.6859C292.948 56.6685 292.907 56.5199 292.81 56.5373C291.316 56.811 289.866 56.0319 289.104 54.7515C288.68 54.038 288.463 53.1871 288.587 52.3588C288.693 51.6473 289.019 50.9697 289.5 50.4356C290.035 49.84 290.761 49.4392 291.551 49.3028C292.283 49.1768 293.053 49.2834 293.734 49.5735C294.416 49.8646 295.013 50.3475 295.395 50.9882C295.783 51.6381 295.962 52.4213 295.92 53.1758C295.878 53.9385 295.577 54.6315 295.078 55.2067C294.609 55.7469 294.001 56.1703 293.323 56.4009C293.155 56.4584 292.984 56.5024 292.811 56.5363C292.713 56.5568 292.754 56.7054 292.851 56.6859Z" fill="#111112"/>
<path d="M293.186 50.9474C292.952 50.8019 292.67 50.7834 292.401 50.8008C292.132 50.8172 291.858 50.8746 291.624 51.0161C291.195 51.2775 290.957 51.8639 291.28 52.3006C291.439 52.5159 291.677 52.6512 291.905 52.7804C292.173 52.9321 292.448 53.0705 292.716 53.2233C292.93 53.3463 293.169 53.5021 293.239 53.7543C293.306 54.0024 293.199 54.2648 293.017 54.436C292.527 54.8994 291.688 54.7507 291.116 54.5477C290.929 54.4811 290.848 54.7784 291.034 54.844C291.566 55.0326 292.231 55.1403 292.772 54.9352C293.259 54.7507 293.643 54.2915 293.55 53.7471C293.457 53.1966 292.863 52.9526 292.428 52.7179C292.042 52.5098 291.245 52.2073 291.476 51.6312C291.589 51.3483 291.864 51.2017 292.148 51.1402C292.424 51.0817 292.781 51.0581 293.029 51.2119C293.199 51.3175 293.354 51.052 293.186 50.9474Z" fill="#111112"/>
<path fill-rule="evenodd" clip-rule="evenodd" d="M292.319 50.2148C292.404 50.2148 292.473 50.2837 292.473 50.3686V50.9324H292.165V50.3686C292.165 50.2837 292.234 50.2148 292.319 50.2148Z" fill="#111112"/>
<path fill-rule="evenodd" clip-rule="evenodd" d="M292.318 55.5449C292.233 55.5449 292.165 55.4761 292.165 55.3912L292.165 54.8273L292.472 54.8273L292.472 55.3912C292.472 55.4761 292.403 55.5449 292.318 55.5449Z" fill="#111112"/>
<g clip-path="url(#clip0_2187_27223)">
<path opacity="0.2" d="M20.2684 46.7119C28.0031 41.8787 37.1245 39.7525 46.1991 40.6676L45.2988 49.5958C38.2034 48.8803 31.0714 50.5427 25.0236 54.3218L20.2684 46.7119Z" fill="white"/>
<path opacity="0.2" d="M1.55231 88.7483C0.215755 81.1683 1.03223 73.3654 3.90896 66.2263C6.78569 59.0872 11.6073 52.8981 17.8259 48.3625L23.1137 55.6124C18.2514 59.1588 14.4814 63.998 12.2321 69.5801C9.98279 75.1622 9.34439 81.2633 10.3894 87.1901L1.55231 88.7483Z" fill="white"/>
<path opacity="0.2" d="M17.3103 114.463C9.65789 108.696 4.25812 100.44 2.04249 91.1176L10.7727 89.0426C12.5052 96.3316 16.7272 102.787 22.7106 107.296L17.3103 114.463Z" fill="white"/>
<path opacity="0.2" d="M34.272 122.002C28.9383 120.972 23.8613 118.896 19.3339 115.894L24.2929 108.416C27.8328 110.763 31.8025 112.386 35.9729 113.191L34.272 122.002Z" fill="white"/>
<path opacity="0.2" d="M50.6256 121.848C46.3205 122.764 41.8964 122.982 37.5221 122.495L38.5143 113.577C41.9346 113.957 45.3938 113.787 48.76 113.071L50.6256 121.848Z" fill="white"/>
<path opacity="0.2" d="M80.7336 67.5322C82.6364 72.7599 83.4592 78.3193 83.1523 83.8741C82.8453 89.4289 81.4151 94.8637 78.9479 99.8501C76.4808 104.836 73.0281 109.271 68.7985 112.884C64.5689 116.498 59.6503 119.217 54.3402 120.876L51.6643 112.311C55.8163 111.014 59.6621 108.888 62.9693 106.062C66.2764 103.237 68.9761 99.7694 70.9051 95.8706C72.8342 91.9718 73.9525 87.7223 74.1925 83.379C74.4325 79.0357 73.7891 74.6889 72.3014 70.6013L80.7336 67.5322Z" fill="white"/>
<path opacity="0.2" d="M49.2155 41.0854C55.8914 42.2626 62.1729 45.0709 67.5018 49.2609C72.8306 53.4509 77.0417 58.8926 79.7605 65.1023L71.5404 68.7014C69.4145 63.846 66.1219 59.5911 61.9553 56.315C57.7887 53.0388 52.8771 50.843 47.6573 49.9226L49.2155 41.0854Z" fill="white"/>
<path opacity="0.2" d="M49.5439 69.854V72.104L40.6064 92.604H36.2471L45.1846 73.104H33.6221V69.854H49.5439Z" fill="white"/>
</g>
<rect opacity="0.2" x="344.777" y="154.589" width="28.7152" height="104.092" rx="2" fill="white"/>
<rect opacity="0.2" x="377.082" y="194.072" width="28.7152" height="84.949" rx="2" fill="white"/>
<rect opacity="0.2" x="409.386" y="165.357" width="28.7152" height="93.3243" rx="2" fill="white"/>
<rect opacity="0.2" x="441.69" y="147.41" width="28.7152" height="141.183" rx="2" fill="white"/>
<path d="M28.7307 409.997C82.3938 411.183 136.057 412.022 189.72 412.502C243.12 412.982 296.508 413.115 349.909 412.902C380.025 412.782 410.154 412.542 440.271 412.209C442.576 412.182 442.576 408.185 440.271 408.212C386.608 408.825 332.933 409.078 279.258 408.985C225.858 408.891 172.469 408.452 119.069 407.666C88.9523 407.226 58.8355 406.666 28.7188 406C26.4251 405.96 26.4251 409.957 28.7307 409.997Z" fill="white"/>
<defs>
<clipPath id="clip0_2187_27223">
<rect width="83.7526" height="83.7526" fill="white" transform="translate(0.194824 39.7275)"/>
</clipPath>
</defs>
</svg>
